<svg width="209" height="190" viewBox="0 0 209 190" fill="none" xmlns="http://www.w3.org/2000/svg">
<path d="M28.8851 112.597C28.8851 72.3911 61.4789 39.7973 101.685 39.7973V39.7973C141.892 39.7973 174.485 72.3911 174.485 112.597V112.597C174.485 152.804 141.892 185.398 101.685 185.398V185.398C61.4789 185.398 28.8851 152.804 28.8851 112.597V112.597Z" fill="url(#paint0_linear)" fill-opacity="0.5"/>
<path d="M168.256 112.621C168.256 144.856 145.091 171.68 114.501 177.351C110.588 178.076 106.548 178.458 102.424 178.458C99.3046 178.458 96.2339 178.242 93.2317 177.821C89.4117 177.287 85.6946 176.425 82.1145 175.27C73.2208 172.385 65.1547 167.664 58.3717 161.552C44.9967 149.499 36.5878 132.04 36.5878 112.621C36.5878 83.5453 55.4381 58.872 81.5856 50.1545C81.5856 50.1545 81.5856 50.1545 81.5905 50.1545C82.5406 49.8362 83.5054 49.5423 84.4751 49.2681C86.0864 48.8077 87.727 48.4159 89.3872 48.0829L89.4117 48.078C92.6244 47.4315 95.9253 47.0201 99.285 46.8634C99.2899 46.8634 99.2899 46.8634 99.2899 46.8634C99.4564 46.8536 99.6131 46.8487 99.7747 46.8438C99.8629 46.8389 99.951 46.834 100.034 46.834C100.343 46.8193 100.651 46.8144 100.96 46.8046C100.96 46.8046 100.96 46.8095 100.965 46.8046C101.45 46.7948 101.934 46.7899 102.424 46.7899C109.937 46.7899 117.151 48.0486 123.875 50.3651C124.58 50.6051 125.276 50.8597 125.971 51.1242C125.971 51.1242 125.971 51.1242 125.971 51.1291C130.007 52.6718 133.846 54.6014 137.456 56.8738C141.163 59.2099 144.621 61.9035 147.78 64.9105C152.746 69.6317 156.977 75.1217 160.283 81.1896C160.88 82.2867 161.448 83.4033 161.987 84.5395C161.987 84.5444 161.987 84.5444 161.987 84.5444C163.378 87.4927 164.558 90.5585 165.503 93.7271C166.884 98.3307 167.771 103.15 168.104 108.121C168.172 109.12 168.217 110.129 168.241 111.142C168.251 111.632 168.256 112.127 168.256 112.621Z" fill="url(#paint1_linear)"/>
<path d="M88.0991 157.433L86.2381 162.977L82.1095 175.27C73.2158 172.385 65.1497 167.664 58.3667 161.552C58.4891 159.103 58.5773 156.997 58.641 155.337C58.7389 152.741 58.7732 151.243 58.7732 151.243L88.0991 157.433Z" fill="#202592"/>
<path d="M114.501 177.351C110.588 178.076 106.548 178.458 102.424 178.458C99.3044 178.458 96.2337 178.242 93.2316 177.821C92.6292 171.978 92.0856 166.797 91.6889 163.055C91.2873 159.255 91.0375 156.943 91.0375 156.943L114.501 152.545C114.408 152.785 114.354 153.941 114.325 155.812C114.261 160.102 114.34 168.134 114.501 177.351Z" fill="#202592"/>
<path d="M84.5142 48.5677C84.5142 48.5677 72.3783 54.048 67.4907 65.1701C62.603 76.2922 73.9994 95.9212 69.1264 106.818C54.4341 139.699 50.7904 150.684 55.394 153.525C65.9382 160.029 95.1123 170.509 115.275 155.112C116.984 153.647 117.719 106.162 117.719 106.162C117.719 106.162 134.341 109.526 137.27 106.715C137.27 106.715 126.637 102.807 129.571 97.6695C129.081 97.0574 117.474 95.7155 116.862 93.1492C116.25 90.5829 121.95 56.7856 99.7893 47.0446L84.5142 48.5677Z" fill="#0075FF"/>
<path d="M103.296 28.7526C103.296 28.7526 104.579 34.0076 107.513 33.5815C110.446 33.1554 111.421 38.4104 109.467 39.7523C107.513 41.0942 104.457 40.4281 104.457 42.6271C104.457 44.8261 100.117 49.0428 98.8342 45.5558C97.556 42.0737 103.296 28.7526 103.296 28.7526Z" fill="#202592"/>
<path d="M104.457 35.5943C104.515 40.2371 101.406 41.7064 99.8139 42.4998C99.76 42.5291 99.7159 42.5634 99.6767 42.6271C99.2996 43.1609 99.6082 44.9387 99.7943 47.0495C100.147 51.0801 95.7336 58.0912 95.7336 58.0912L84.4163 50.1985L84.7836 44.0865L75.3756 33.2142C75.3756 33.2142 83.9314 16.651 90.2247 14.5745C96.5179 12.498 104.462 17.0183 104.462 17.0183C104.462 17.0183 104.398 30.9516 104.457 35.5943Z" fill="url(#paint2_linear)"/>
<path d="M99.7943 47.0495C97.8108 46.354 95.0241 44.9876 94.2552 42.6271H99.6767C99.3045 43.1609 99.6131 44.9387 99.7943 47.0495Z" fill="#FCC7C7"/>
<path d="M93.9271 28.7526H93.8242C93.5989 28.7526 93.4177 28.5714 93.4177 28.3461V26.6957C93.4177 26.4704 93.5989 26.2892 93.8242 26.2892H93.9271C94.1523 26.2892 94.3335 26.4704 94.3335 26.6957V28.3461C94.3384 28.5714 94.1523 28.7526 93.9271 28.7526Z" fill="#202592"/>
<path d="M101.503 29.3991H101.401C101.175 29.3991 100.994 29.2179 100.994 28.9926V27.1071C100.994 26.8818 101.175 26.7006 101.401 26.7006H101.503C101.729 26.7006 101.91 26.8818 101.91 27.1071V28.9926C101.915 29.2179 101.729 29.3991 101.503 29.3991Z" fill="#202592"/>
<path d="M97.3553 26.6957C97.3553 26.6957 100.323 29.2963 100.313 30.0945C100.304 30.8928 98.9323 33.2338 98.9323 33.2338L98.4376 32.9008C98.4376 32.9008 99.9656 30.6039 99.8236 30.1239C99.5542 29.213 96.988 27.014 96.988 27.014L97.3553 26.6957Z" fill="#202592"/>
<path d="M84.7835 28.7526C84.7835 28.7526 85.7287 34.1594 88.3292 33.704C90.9249 33.2436 87.4477 28.3266 88.8337 27.3177C90.2196 26.3088 90.4057 24.5702 89.7642 23.8062C89.1226 23.0422 89.0932 19.8344 91.1404 18.9773C93.1875 18.1203 90.9983 21.1175 94.3384 20.2898C97.6785 19.4671 98.7461 19.374 99.848 20.7159C100.95 22.0578 102.904 21.3869 103.056 20.6572C103.208 19.9274 105.926 23.194 105.926 23.194C105.926 23.194 107.513 18.2133 105.255 16.749C102.992 15.2847 89.7348 9.0502 82.0948 15.0055C82.0948 15.0055 78.4609 23.0716 84.7835 28.7526Z" fill="#202592"/>
<path d="M92.1934 24.4919C92.1934 24.4919 91.7673 22.4447 94.0887 22.4594L94.3385 21.9256C94.3385 21.9256 92.8496 21.5289 92.0562 22.5672C91.2629 23.6054 91.6742 24.4919 91.6742 24.4919H92.1934Z" fill="#202592"/>
<path d="M101.739 23.1695C101.739 23.1695 102.552 21.9892 103.644 23.145L104.026 23.0128C104.026 23.0128 103.516 22.0872 102.625 22.1851C101.734 22.2831 101.489 22.9099 101.489 22.9099L101.739 23.1695Z" fill="#202592"/>
<path d="M81.7276 30.8064L81.2862 31.2855L83.8469 33.6449L84.2883 33.1659L81.7276 30.8064Z" fill="#202592"/>
<path d="M104.251 32.5286C104.187 31.8821 102.076 29.9966 99.6767 29.5509C94.1034 28.6694 89.0248 32.8861 89.0248 32.8861L83.8139 26.5831L83.6523 27.3177L88.4567 33.1701L88.1628 33.9048C89.4851 35.9323 89.3382 38.4839 89.0738 40.0315C88.0355 39.2528 84.2155 36.4318 83.8923 36.7845C83.5298 37.186 85.7778 38.8708 88.9219 40.7759C88.824 41.1824 88.7456 41.4223 88.7456 41.4223C88.7456 41.4223 93.3052 47.0593 100.196 45.497C107.087 43.9298 104.315 33.1799 104.251 32.5286Z" fill="white"/>
<path d="M91.4393 35.423C92.8008 35.1634 98.0508 34.2525 102.953 34.5708C103.115 34.5806 103.257 34.468 103.281 34.3063C103.306 34.13 103.183 33.9733 103.012 33.9488C101.881 33.8166 97.7619 33.4934 91.3217 34.8059C91.165 34.8353 91.0573 34.9822 91.072 35.1389C91.0866 35.325 91.2532 35.4572 91.4393 35.423Z" fill="#ECECEC"/>
<path d="M91.0818 33.4738C92.2718 32.8322 97.3162 30.3884 102.365 32.0976C102.483 32.1368 102.61 32.1025 102.689 32.0094C102.816 31.8576 102.767 31.6274 102.586 31.5491C101.719 31.1475 99.2899 30.2464 96.2681 30.9908C93.2709 31.7303 91.4393 32.6118 90.7977 32.9498C90.6508 33.0281 90.5969 33.2093 90.6753 33.3513C90.7536 33.4983 90.9397 33.5521 91.0818 33.4738Z" fill="#ECECEC"/>
<path d="M95.3639 40.6419C96.5632 40.5393 97.4478 39.4315 97.3398 38.1675C97.2317 36.9036 96.1718 35.962 94.9725 36.0646C93.7732 36.1671 92.8886 37.2749 92.9967 38.5389C93.1048 39.8029 94.1646 40.7444 95.3639 40.6419Z" fill="#ECECEC"/>
<path d="M96.9314 39.3556C97.0066 39.0011 96.8295 38.6631 96.5358 38.6008C96.2421 38.5385 95.9431 38.7755 95.8679 39.13C95.7927 39.4845 95.9698 39.8224 96.2635 39.8847C96.5571 39.947 96.8562 39.7101 96.9314 39.3556Z" fill="#F0F2F4"/>
<path d="M96.2686 38.0267C96.4521 37.9339 96.5097 37.6787 96.3973 37.4567C96.285 37.2346 96.0452 37.1299 95.8618 37.2227C95.6784 37.3155 95.6207 37.5707 95.7331 37.7928C95.8454 38.0148 96.0852 38.1196 96.2686 38.0267Z" fill="#F0F2F4"/>
<path d="M91.5862 40.4037C93.1583 41.1873 99.6768 44.16 102.87 41.0893C103.002 40.962 103.218 40.9767 103.335 41.1187L103.384 41.1775C103.502 41.3146 103.482 41.5203 103.34 41.6329C102.365 42.4165 98.4475 44.875 91.2924 40.9767C91.1601 40.9032 91.0965 40.7514 91.1356 40.6045C91.1895 40.4086 91.405 40.3155 91.5862 40.4037Z" fill="#ECECEC"/>
<path d="M98.6875 38.5181C99.4515 38.621 101.528 38.7777 103.316 37.7835C103.448 37.7101 103.614 37.7835 103.663 37.9255L103.683 37.9843C103.717 38.097 103.668 38.2145 103.565 38.2733C103.032 38.5622 101.283 39.3409 98.6287 39.0079C98.5161 38.9932 98.423 38.9001 98.4132 38.7826C98.4034 38.6259 98.5357 38.4986 98.6875 38.5181Z" fill="#ECECEC"/>
<path d="M75.067 29.2816C75.067 29.2816 67.7355 29.9329 69.3664 34.7422C70.9972 39.5515 73.8475 35.7217 74.6605 38.6504C75.4735 41.584 74.6605 46.7997 80.2828 45.1689C85.9051 43.538 82.565 47.3678 85.8218 46.0651C89.0786 44.7624 88.8386 43.8662 89.2451 42.5634C89.6516 41.2607 85.7434 39.5466 85.5769 38.1655C85.4153 36.7796 78.4462 35.0703 79.2005 30.7508C79.7098 28.1454 80.7725 27.494 80.7725 27.494C80.7725 27.494 82.0753 30.6186 85.8267 29.9672C85.8267 29.9672 79.4698 21.2987 88.8386 16.8225C98.2075 12.3462 104.307 19.2568 104.307 19.2568V26.3176C104.307 26.3176 109.53 24.9669 108.389 20.569C107.248 16.1711 102.85 15.3532 103.663 12.9094C104.476 10.4656 98.7756 2.97246 92.0954 5.73952C85.4153 8.50658 85.4153 3.2957 80.5277 7.44873C75.64 11.6018 71.9718 11.9299 73.2745 17.4689C74.5822 23.0079 67.7355 24.6388 75.067 29.2816Z" fill="#202592"/>
<path d="M155.378 110.508C169.633 105.633 174.89 83.26 167.12 60.5356C159.349 37.8112 141.494 23.3411 127.238 28.2157C112.983 33.0902 107.726 55.4636 115.496 78.188C123.266 100.912 141.122 115.383 155.378 110.508Z" fill="#FFC571"/>
<path d="M169.493 59.7195C177.267 82.4415 172.005 104.812 157.757 109.688C150.887 112.039 143.184 109.894 136.176 104.5C128.634 98.6984 121.899 89.1461 117.871 77.3725C110.102 54.6494 115.359 32.2799 129.612 27.4025C135.173 25.5022 141.286 26.5447 147.127 29.8775C156.271 35.077 164.756 45.8666 169.493 59.7195Z" fill="#FFEFD8"/>
<path d="M169.493 59.7195C177.267 82.4415 172.005 104.812 157.757 109.688C150.887 112.039 143.184 109.894 136.176 104.5C169.707 77.7639 158.522 47.3663 147.131 29.8717C156.271 35.077 164.756 45.8666 169.493 59.7195Z" fill="white" fill-opacity="0.15"/>
<path d="M153.237 94.753C162.489 91.5893 166.078 77.5866 161.253 63.4769C156.428 49.3673 145.017 40.4938 135.765 43.6574C126.513 46.8211 122.924 60.8239 127.749 74.9335C132.573 89.0432 143.985 97.9166 153.237 94.753Z" fill="#FEFEFE"/>
<path d="M139.741 62.0491L138.889 57.6426C138.69 56.628 139.327 55.6413 140.324 55.3914L143.696 54.5567C144.741 54.296 145.801 54.9458 146.048 55.9947L147.015 60.1093C147.253 61.12 148.246 61.7647 149.267 61.5699L151.273 61.1833C152.289 60.9896 153.274 61.621 153.52 62.6248L155.281 69.7936C155.534 70.8261 154.906 71.8712 153.875 72.1334L152.355 72.516C151.329 72.7772 150.703 73.8069 150.945 74.8367L151.998 79.3335C152.244 80.3824 151.587 81.4292 150.54 81.6649L146.374 82.6034C145.352 82.8338 144.333 82.2099 144.069 81.195L142.866 76.4809C142.607 75.4649 141.582 74.8373 140.561 75.0724L139.33 75.3549C138.288 75.5895 137.248 74.9402 137.012 73.8939L135.455 67.0459C135.23 66.0473 135.813 65.0475 136.791 64.7567L138.405 64.2777C139.345 63.9908 139.931 63.0255 139.741 62.0491Z" fill="#FFEFD8"/>
<path d="M127.827 73.4125C127.793 73.7063 127.739 74.01 127.666 74.3087C127.582 74.6711 127.47 75.0384 127.333 75.391C127.22 75.6996 127.083 75.9934 126.941 76.2824C125.903 78.3148 124.223 84.7256 116.21 86.8364L110.667 80.5236C110.667 80.5236 111.734 74.9748 113.605 72.9668C115.476 70.9588 116.23 68.8627 117.596 69.5827C118.963 70.3026 117.856 73.2802 117.856 73.2802C117.856 73.2802 125.805 68.9264 127.073 70.2291C127.416 70.5817 127.641 71.0421 127.764 71.5661C127.896 72.1293 127.91 72.7611 127.827 73.4125Z" fill="#FFD5D5"/>
<path d="M127.827 73.4125C124.6 74.2598 122.332 74.3773 122.332 74.3773C124.091 73.6965 126.554 72.2812 127.759 71.5662C127.896 72.1294 127.911 72.7611 127.827 73.4125Z" fill="#FCC7C7"/>
<path d="M127.666 74.3087C127.582 74.6711 127.47 75.0384 127.333 75.3911C124.002 76.6448 123.312 79.0592 123.312 79.0592C123.15 76.204 125.819 74.8817 127.666 74.3087Z" fill="#FCC7C7"/>
<path d="M114.153 94.4421C115.001 96.0289 114.766 108.61 95.9986 116.045C87.7611 119.909 85.9343 111.113 85.9343 111.113L114.153 94.4421Z" fill="#0065C2"/>
<path d="M84.3329 74.9748C84.3329 74.9748 85.3516 94.2609 97.6295 87.0323C109.907 79.8036 110.529 74.676 115.794 79.9114C121.059 85.1468 119.026 89.3341 119.026 89.3341C119.026 89.3341 110.035 114.953 85.8071 115.3L84.3329 74.9748Z" fill="#0075FF"/>
<path fill-rule="evenodd" clip-rule="evenodd" d="M163.491 7.46561C165.926 7.78473 168.124 8.85772 169.843 10.4426C170.401 10.0452 171.001 9.43868 171.614 8.53209C171.614 8.53209 172.53 7.44975 173.764 8.82593C174.998 10.2021 174.406 11.8085 173.304 12.1611C172.884 12.2953 172.386 12.6219 171.971 13.0714C172.998 14.8045 173.588 16.8275 173.588 18.9881C173.588 19.159 173.584 19.3289 173.577 19.498C174.245 19.9442 175.252 20.3041 176.771 20.3888C176.771 20.3888 178.167 20.619 177.623 22.387C177.075 24.1549 175.39 24.4684 174.523 23.7044C174.161 23.3848 173.549 23.103 172.878 22.9957C171.762 26.0342 169.413 28.4772 166.437 29.7185C166.501 30.3153 166.672 31.0123 166.996 31.8244C166.996 31.8244 167.378 33.1907 165.541 33.4405C163.705 33.6903 162.711 32.2945 163.039 31.1877C163.093 31.004 163.126 30.7873 163.133 30.5519C162.75 30.5902 162.36 30.6098 161.966 30.6098C160.193 30.6098 158.513 30.2127 157.009 29.5027C156.769 29.6836 156.547 29.8959 156.363 30.1445C156.114 30.4825 155.746 30.6147 155.345 30.6147C154.013 30.6245 153.038 29.2091 153.807 28.45C154.009 28.2506 154.209 28.0303 154.385 27.7969C153.063 26.6579 152 25.2262 151.297 23.6025C150.618 23.6321 149.817 23.7745 149.061 24.1745C148.606 24.4145 148.195 24.4047 147.832 24.2578C146.642 23.7631 146.75 22.0001 147.955 21.5348C148.851 21.19 149.851 20.6758 150.386 19.9758C150.359 19.6502 150.345 19.3208 150.345 18.9881C150.345 16.9113 150.889 14.9617 151.844 13.2745C151.382 12.8225 150.74 12.3634 149.855 11.926C149.855 11.926 148.66 11.1669 149.855 9.75155C151.05 8.34109 152.725 8.70839 153.224 9.75155C153.359 10.0332 153.595 10.341 153.901 10.6209C155.446 9.13099 157.403 8.06518 159.584 7.61082C160.001 6.95373 160.521 5.88627 160.521 4.64839C160.521 4.13416 160.722 3.77175 161.026 3.52198C162.02 2.69921 163.528 3.61993 163.372 4.90306C163.271 5.73852 163.248 6.70189 163.491 7.46561Z" fill="url(#paint3_linear)"/>
<path d="M152.285 11.2613C152.555 10.879 152.507 10.3807 152.178 10.1483C151.849 9.9158 151.363 10.0372 151.093 10.4195C150.823 10.8017 150.871 11.3 151.201 11.5325C151.53 11.765 152.016 11.6435 152.285 11.2613Z" fill="white"/>
<path d="M173.983 10.3822C174.176 10.2081 174.008 9.70904 173.609 9.26757C173.21 8.8261 172.731 8.60936 172.538 8.78346C172.345 8.95756 172.513 9.45658 172.912 9.89805C173.311 10.3395 173.79 10.5563 173.983 10.3822Z" fill="white"/>
<path d="M176.75 22.418C176.848 21.9605 176.72 21.5449 176.464 21.4896C176.207 21.4344 175.92 21.7604 175.821 22.2179C175.722 22.6753 175.851 23.0909 176.107 23.1462C176.363 23.2014 176.651 22.8754 176.75 22.418Z" fill="white"/>
<path d="M165.409 32.9308C165.865 32.8272 166.2 32.5913 166.158 32.404C166.115 32.2168 165.711 32.149 165.255 32.2526C164.798 32.3563 164.463 32.5921 164.505 32.7794C164.548 32.9666 164.952 33.0344 165.409 32.9308Z" fill="white"/>
<path d="M161.966 4.81003C162.434 4.81003 162.813 4.64558 162.813 4.44272C162.813 4.23986 162.434 4.07541 161.966 4.07541C161.498 4.07541 161.119 4.23986 161.119 4.44272C161.119 4.64558 161.498 4.81003 161.966 4.81003Z" fill="white"/>
<path d="M167.143 24.0962C168.363 24.0962 169.352 23.1073 169.352 21.8874C169.352 20.6676 168.363 19.6787 167.143 19.6787C165.923 19.6787 164.934 20.6676 164.934 21.8874C164.934 23.1073 165.923 24.0962 167.143 24.0962Z" fill="white"/>
<path d="M165.283 15.5987C165.566 15.2682 165.34 14.6091 164.778 14.1265C164.215 13.644 163.529 13.5207 163.246 13.8513C162.962 14.1818 163.189 14.8409 163.751 15.3234C164.314 15.806 164.999 15.9292 165.283 15.5987Z" fill="white"/>
<path d="M158.906 17.4048C159.19 17.0742 159.192 16.6107 158.911 16.3695C158.629 16.1282 158.171 16.2005 157.888 16.5311C157.604 16.8616 157.603 17.3251 157.884 17.5664C158.165 17.8076 158.623 17.7353 158.906 17.4048Z" fill="white"/>
<path d="M159.58 24.8895C160.253 24.1053 160.19 22.9485 159.441 22.3057C158.692 21.6629 157.539 21.7775 156.866 22.5618C156.194 23.346 156.256 24.5028 157.005 25.1456C157.754 25.7884 158.907 25.6738 159.58 24.8895Z" fill="white"/>
<path d="M148.587 23.743C148.767 23.6481 148.735 23.2359 148.516 22.8223C148.297 22.4088 147.974 22.1505 147.795 22.2453C147.615 22.3402 147.648 22.7524 147.866 23.166C148.085 23.5795 148.408 23.8379 148.587 23.743Z" fill="white"/>
<path d="M155.703 29.9514C155.782 29.8068 155.486 29.491 155.04 29.2459C154.595 29.0009 154.169 28.9194 154.089 29.064C154.01 29.2085 154.307 29.5244 154.752 29.7694C155.198 30.0145 155.623 30.0959 155.703 29.9514Z" fill="white"/>
<path d="M199.543 23.8785C199.235 23.0851 198.662 23.3985 198.662 23.3985C198.216 23.712 197.839 23.8785 197.516 23.952C196.953 23.0655 196.037 22.4142 194.954 22.1889C194.974 22.0077 195.018 21.8411 195.082 21.7187C195.317 21.273 195.008 20.5923 194.2 20.5433C193.392 20.4944 193.441 21.1114 193.441 21.1114C193.519 21.5326 193.524 21.8705 193.49 22.1497C192.613 22.2819 191.83 22.6884 191.242 23.2761C191.012 23.1537 190.806 22.9431 190.635 22.7276C190.321 22.3358 189.616 22.7178 189.552 23.3349C189.533 23.5259 189.577 23.6973 189.719 23.8344C190.037 24.1283 190.189 24.5641 190.258 24.8972C190.15 25.2449 190.091 25.6171 190.091 25.9991C190.091 26.3566 190.145 26.6994 190.238 27.0275C189.993 27.1647 189.729 27.2332 189.533 27.2283C188.999 27.2088 188.495 27.8699 188.818 28.7368C189.141 29.5987 189.704 29.2412 189.704 29.2412C190.263 28.7906 190.723 28.6094 191.09 28.5653C191.825 29.3832 192.902 29.9024 194.107 29.9024C194.528 29.9024 194.935 29.8387 195.317 29.7211C195.361 29.8828 195.38 30.0346 195.371 30.1619C195.331 30.6908 195.919 31.2247 196.717 30.9308C197.516 30.637 197.212 30.0591 197.212 30.0591C196.928 29.6379 196.776 29.2804 196.703 28.9718C197.57 28.2568 198.118 27.1892 198.118 25.9991C198.118 25.7983 198.099 25.6073 198.069 25.4163C198.324 25.289 198.593 25.2253 198.799 25.2351C199.338 25.2743 199.857 24.6768 199.543 23.8785Z" fill="url(#paint4_linear)"/>
<path d="M199.373 24.4781C199.478 24.4266 199.484 24.2276 199.389 24.0335C199.293 23.8395 199.131 23.7239 199.026 23.7754C198.922 23.8269 198.915 24.0259 199.011 24.2199C199.107 24.414 199.269 24.5295 199.373 24.4781Z" fill="white"/>
<path d="M189.393 28.9148C189.53 28.8727 189.571 28.6122 189.485 28.333C189.399 28.0538 189.219 27.8616 189.082 27.9037C188.945 27.9458 188.903 28.2063 188.989 28.4855C189.075 28.7647 189.256 28.9569 189.393 28.9148Z" fill="white"/>
<path d="M196.649 30.7282C196.923 30.5997 197.103 30.4042 197.05 30.2916C196.997 30.1789 196.732 30.1917 196.458 30.3202C196.183 30.4486 196.004 30.6441 196.056 30.7568C196.109 30.8695 196.374 30.8567 196.649 30.7282Z" fill="white"/>
<path d="M194.753 20.9745C194.759 20.8611 194.54 20.7573 194.265 20.7427C193.989 20.7282 193.761 20.8083 193.755 20.9218C193.749 21.0352 193.968 21.139 194.243 21.1535C194.519 21.1681 194.747 21.0879 194.753 20.9745Z" fill="white"/>
<path d="M195.625 27.5516C196.174 27.5516 196.619 27.1065 196.619 26.5574C196.619 26.0083 196.174 25.5632 195.625 25.5632C195.076 25.5632 194.631 26.0083 194.631 26.5574C194.631 27.1065 195.076 27.5516 195.625 27.5516Z" fill="white"/>
<path d="M194.112 24.9462C194.32 24.9462 194.489 24.7773 194.489 24.5691C194.489 24.3608 194.32 24.192 194.112 24.192C193.904 24.192 193.735 24.3608 193.735 24.5691C193.735 24.7773 193.904 24.9462 194.112 24.9462Z" fill="white"/>
<path d="M192.855 27.2519C193.146 27.0842 193.169 26.5818 192.908 26.1298C192.647 25.6777 192.2 25.4471 191.91 25.6148C191.619 25.7825 191.596 26.285 191.857 26.737C192.118 27.1891 192.565 27.4196 192.855 27.2519Z" fill="white"/>
<path d="M190.146 23.2618C190.314 23.0935 190.407 22.9136 190.353 22.8601C190.3 22.8065 190.12 22.8996 189.952 23.0679C189.783 23.2362 189.69 23.416 189.744 23.4696C189.798 23.5231 189.977 23.4301 190.146 23.2618Z" fill="white"/>
<path d="M182.844 36.7051C182.254 36.5665 182.207 37.0293 182.207 37.0293C182.212 37.4174 182.157 37.706 182.07 37.9254C181.323 37.8989 180.571 38.1742 180.002 38.719C179.904 38.6344 179.824 38.5414 179.778 38.4547C179.611 38.137 179.087 38.0439 178.732 38.4987C178.378 38.9535 178.76 39.1734 178.76 39.1734C179.039 39.2972 179.239 39.4305 179.389 39.5631C179.114 40.1313 179.037 40.7553 179.145 41.3373C178.98 41.4231 178.774 41.459 178.578 41.4728C178.221 41.499 178.162 42.0671 178.498 42.3532C178.603 42.4417 178.721 42.4849 178.859 42.4567C179.16 42.3882 179.477 42.4747 179.7 42.5687C179.861 42.7721 180.056 42.9566 180.28 43.1106C180.49 43.2547 180.713 43.3612 180.943 43.4388C180.925 43.6379 180.859 43.8209 180.777 43.9339C180.55 44.2395 180.735 44.8022 181.375 44.9618C182.011 45.1194 182.028 44.6445 182.028 44.6445C181.988 44.1351 182.068 43.7917 182.19 43.5582C182.966 43.4564 183.705 43.0329 184.191 42.3254C184.361 42.0781 184.487 41.8137 184.572 41.542C184.685 41.5812 184.782 41.6309 184.853 41.688C185.147 41.9242 185.698 41.7942 185.847 41.207C185.996 40.6197 185.534 40.5651 185.534 40.5651C185.172 40.5622 184.901 40.5073 184.691 40.426C184.62 39.6288 184.214 38.8764 183.515 38.3967C183.397 38.3158 183.277 38.2503 183.153 38.1906C183.181 37.9897 183.252 37.8059 183.341 37.689C183.581 37.3884 183.439 36.8428 182.844 36.7051Z" fill="url(#paint5_linear)"/>
<path d="M183.128 37.0466C183.14 36.9646 183.026 36.8803 182.873 36.8584C182.72 36.8364 182.587 36.8851 182.575 36.9671C182.564 37.0491 182.678 37.1333 182.83 37.1553C182.983 37.1773 183.116 37.1286 183.128 37.0466Z" fill="white"/>
<path d="M181.711 44.696C181.741 44.5985 181.605 44.4692 181.406 44.4071C181.208 44.345 181.022 44.3736 180.992 44.4711C180.961 44.5685 181.097 44.6978 181.296 44.76C181.495 44.8221 181.68 44.7934 181.711 44.696Z" fill="white"/>
<path d="M185.7 41.1656C185.735 40.9528 185.693 40.7685 185.605 40.7541C185.518 40.7396 185.419 40.9005 185.384 41.1134C185.348 41.3263 185.391 41.5106 185.478 41.525C185.566 41.5394 185.665 41.3785 185.7 41.1656Z" fill="white"/>
<path d="M179.208 38.3479C179.144 38.2987 178.995 38.3851 178.875 38.5411C178.756 38.697 178.711 38.8633 178.775 38.9125C178.839 38.9618 178.988 38.8753 179.108 38.7194C179.227 38.5635 179.272 38.3971 179.208 38.3479Z" fill="white"/>
<path d="M183.422 40.4863C183.644 40.1639 183.562 39.7231 183.239 39.5018C182.917 39.2805 182.476 39.3625 182.255 39.685C182.033 40.0074 182.115 40.4482 182.438 40.6695C182.76 40.8908 183.201 40.8088 183.422 40.4863Z" fill="white"/>
<path d="M181.282 40.325C181.366 40.2026 181.335 40.0354 181.213 39.9515C181.09 39.8676 180.923 39.8987 180.839 40.021C180.755 40.1433 180.786 40.3105 180.909 40.3944C181.031 40.4784 181.198 40.4473 181.282 40.325Z" fill="white"/>
<path d="M182.13 41.9924C182.148 41.7543 181.863 41.5378 181.492 41.5088C181.122 41.4799 180.806 41.6495 180.787 41.8877C180.769 42.1259 181.054 42.3424 181.425 42.3713C181.796 42.4002 182.111 42.2306 182.13 41.9924Z" fill="white"/>
<path d="M178.694 41.9754C178.663 41.8087 178.595 41.6816 178.542 41.6914C178.489 41.7013 178.471 41.8444 178.502 42.0111C178.533 42.1778 178.602 42.3049 178.655 42.295C178.708 42.2851 178.726 42.142 178.694 41.9754Z" fill="white"/>
<defs>
<linearGradient id="paint0_linear" x1="101.909" y1="49.7813" x2="101.909" y2="175.414" gradientUnits="userSpaceOnUse">
<stop stop-color="white"/>
<stop offset="1" stop-color="white" stop-opacity="0.7"/>
</linearGradient>
<linearGradient id="paint1_linear" x1="102.703" y1="130.625" x2="74.1385" y2="168.818" gradientUnits="userSpaceOnUse">
<stop stop-color="white"/>
<stop offset="1" stop-color="#FFEFD8"/>
</linearGradient>
<linearGradient id="paint2_linear" x1="91.2403" y1="45.2534" x2="89.9565" y2="61.6216" gradientUnits="userSpaceOnUse">
<stop stop-color="#FFD5D5"/>
<stop offset="1" stop-color="#FFBEBE"/>
</linearGradient>
<linearGradient id="paint3_linear" x1="160.473" y1="23.1081" x2="166.892" y2="14.4426" gradientUnits="userSpaceOnUse">
<stop stop-color="#C23BF1"/>
<stop offset="1" stop-color="#6A3BF1"/>
</linearGradient>
<linearGradient id="paint4_linear" x1="193.617" y1="17.9855" x2="194.7" y2="33.7639" gradientUnits="userSpaceOnUse">
<stop stop-color="#6A3BF1"/>
<stop offset="1" stop-color="#FFEFD8"/>
</linearGradient>
<linearGradient id="paint5_linear" x1="176.995" y1="37.8102" x2="186.698" y2="43.5335" gradientUnits="userSpaceOnUse">
<stop stop-color="#6A3BF1"/>
<stop offset="1" stop-color="#FFEFD8"/>
</linearGradient>
</defs>
</svg>
