<svg width="165" height="190" viewBox="0 0 165 190" fill="none" xmlns="http://www.w3.org/2000/svg">
<path d="M103.545 52.5236H87.6437C87.4953 52.5236 87.353 52.5825 87.2481 52.6874C87.1432 52.7923 87.0843 52.9346 87.0843 53.083V60.9148C87.0843 61.0632 87.1432 61.2054 87.2481 61.3104C87.353 61.4153 87.4953 61.4742 87.6437 61.4742H103.545C103.693 61.4742 103.836 61.4153 103.941 61.3104C104.046 61.2054 104.105 61.0632 104.105 60.9148V53.083C104.105 52.9346 104.046 52.7923 103.941 52.6874C103.836 52.5825 103.693 52.5236 103.545 52.5236Z" stroke="#AADAF1" stroke-width="2" stroke-linecap="round" stroke-linejoin="round"/>
<path d="M95.028 43.5533H79.1294C78.981 43.5533 78.8387 43.6123 78.7338 43.7172C78.6289 43.8221 78.5699 43.9644 78.5699 44.1127V51.9445C78.5699 52.0929 78.6289 52.2352 78.7338 52.3401C78.8387 52.445 78.981 52.504 79.1294 52.504H95.028C95.1763 52.504 95.3186 52.445 95.4235 52.3401C95.5284 52.2352 95.5874 52.0929 95.5874 51.9445V44.1127C95.5874 43.9644 95.5284 43.8221 95.4235 43.7172C95.3186 43.6123 95.1763 43.5533 95.028 43.5533Z" stroke="#AADAF1" stroke-width="2" stroke-linecap="round" stroke-linejoin="round"/>
<path d="M86.5109 52.5236H70.6123C70.4639 52.5236 70.3216 52.5825 70.2167 52.6874C70.1118 52.7923 70.0529 52.9346 70.0529 53.083V60.9148C70.0529 61.0632 70.1118 61.2054 70.2167 61.3104C70.3216 61.4153 70.4639 61.4742 70.6123 61.4742H86.5109C86.6593 61.4742 86.8015 61.4153 86.9065 61.3104C87.0114 61.2054 87.0703 61.0632 87.0703 60.9148V53.083C87.0703 52.9346 87.0114 52.7923 86.9065 52.6874C86.8015 52.5825 86.6593 52.5236 86.5109 52.5236Z" stroke="#AADAF1" stroke-width="2" stroke-linecap="round" stroke-linejoin="round"/>
<path d="M111.791 61.491H95.8923C95.7439 61.491 95.6016 61.5499 95.4967 61.6548C95.3918 61.7598 95.3329 61.902 95.3329 62.0504V69.8822C95.3329 70.0306 95.3918 70.1729 95.4967 70.2778C95.6016 70.3827 95.7439 70.4416 95.8923 70.4416H111.791C111.939 70.4416 112.082 70.3827 112.186 70.2778C112.291 70.1729 112.35 70.0306 112.35 69.8822V62.0504C112.35 61.902 112.291 61.7598 112.186 61.6548C112.082 61.5499 111.939 61.491 111.791 61.491Z" stroke="#AADAF1" stroke-width="2" stroke-linecap="round" stroke-linejoin="round"/>
<path fill-rule="evenodd" clip-rule="evenodd" d="M85.4172 157.713H139.295C139.651 157.713 139.992 157.855 140.244 158.107C140.496 158.358 140.637 158.7 140.637 159.056V159.056C140.636 159.412 140.495 159.752 140.243 160.003C139.991 160.255 139.65 160.396 139.295 160.396H85.4172C85.0616 160.396 84.7205 160.255 84.4688 160.003C84.2171 159.752 84.0754 159.412 84.0746 159.056V159.056C84.0746 158.7 84.2161 158.358 84.4679 158.107C84.7196 157.855 85.0611 157.713 85.4172 157.713V157.713Z" fill="white"/>
<path fill-rule="evenodd" clip-rule="evenodd" d="M1.3398 165.791H55.2255C55.4016 165.791 55.576 165.825 55.7387 165.893C55.9014 165.96 56.0493 166.058 56.1737 166.183C56.2982 166.307 56.3969 166.455 56.4641 166.618C56.5313 166.781 56.5657 166.955 56.5653 167.131V167.131C56.5657 167.307 56.5313 167.482 56.4641 167.644C56.3969 167.807 56.2982 167.955 56.1737 168.079C56.0493 168.204 55.9014 168.302 55.7387 168.37C55.576 168.437 55.4016 168.471 55.2255 168.471H1.3398C0.984464 168.471 0.64368 168.33 0.392419 168.078C0.141157 167.827 0 167.486 0 167.131H0C0 166.776 0.141157 166.435 0.392419 166.184C0.64368 165.932 0.984464 165.791 1.3398 165.791V165.791Z" fill="white"/>
<path fill-rule="evenodd" clip-rule="evenodd" d="M118.736 158.759C114.243 158.761 109.85 160.079 106.097 162.548C102.344 165.018 99.3968 168.533 97.618 172.658C96.1707 171.491 94.3696 170.85 92.5101 170.84C90.6506 170.83 88.843 171.453 87.3835 172.605C86.3708 170.193 84.7024 168.112 82.5676 166.6C80.4327 165.087 77.9168 164.203 75.3051 164.047C72.6933 163.892 70.0903 164.471 67.791 165.72C65.4918 166.968 63.5884 168.836 62.2965 171.111C60.9516 170.28 59.4381 169.759 57.8664 169.587C56.2947 169.414 54.7043 169.595 53.2112 170.115C51.718 170.635 50.3597 171.482 49.2352 172.593C48.1108 173.705 47.2485 175.053 46.7112 176.54C46.9574 176.54 47.1895 176.471 47.4385 176.471H153.926C153.536 175.039 152.784 173.733 151.742 172.677C150.699 171.622 149.402 170.854 147.975 170.447C146.549 170.04 145.042 170.008 143.599 170.354C142.157 170.7 140.828 171.413 139.742 172.423C137.937 168.358 134.993 164.903 131.264 162.478C127.536 160.053 123.184 158.761 118.736 158.759V158.759Z" fill="#DEDEDE"/>
<path fill-rule="evenodd" clip-rule="evenodd" d="M40.9409 173.791H162.77C163.126 173.792 163.467 173.933 163.718 174.185C163.969 174.437 164.11 174.778 164.11 175.134V175.134C164.11 175.489 163.968 175.829 163.717 176.08C163.466 176.331 163.126 176.473 162.77 176.473H40.9409C40.5858 176.473 40.2454 176.331 39.9943 176.08C39.7432 175.829 39.6018 175.489 39.6011 175.134V175.134C39.6011 174.778 39.7421 174.437 39.9933 174.185C40.2445 173.933 40.5853 173.792 40.9409 173.791V173.791Z" fill="#DEDEDE"/>
<path fill-rule="evenodd" clip-rule="evenodd" d="M21.1655 158.427L17.6216 163.391L24.922 172.541L28.2785 166.667L21.1655 158.427Z" fill="#F77F89"/>
<path fill-rule="evenodd" clip-rule="evenodd" d="M17.2943 161.134L8.90311 170.829L22.0857 186.213C22.0857 186.213 30.835 186.118 33.5985 186.118C33.5426 182.761 31.1035 175.808 24.3122 176.076C25.6828 173.671 26.6562 171.688 26.6562 171.688L17.2943 161.134Z" fill="#0075FF"/>
<path d="M24.3066 176.085C20.511 174.913 18.7852 176.44 16.1224 179.265C14.2623 181.24 10.3856 181.072 8.01083 179.939" stroke="#0065C2" stroke-width="2" stroke-linecap="round" stroke-linejoin="round"/>
<path d="M15.6077 188.414C16.8586 188.951 18.1503 189.388 19.4705 189.72C22.9444 186.644 25.0003 179.34 24.3486 176.085" stroke="#0065C2" stroke-width="2" stroke-linecap="round" stroke-linejoin="round"/>
<path d="M13.9043 164.949C14.725 165.571 15.3613 166.403 15.7451 167.358C16.129 168.313 16.2458 169.355 16.0832 170.371C15.9205 171.388 15.4845 172.341 14.8218 173.128C14.1591 173.916 13.2947 174.509 12.3211 174.843" stroke="#0065C2" stroke-width="2" stroke-linecap="round" stroke-linejoin="round"/>
<path d="M10.366 169.131L23.3416 183.301L32.9552 182.742" stroke="#0065C2" stroke-width="2" stroke-linecap="round" stroke-linejoin="round"/>
<path fill-rule="evenodd" clip-rule="evenodd" d="M42.0848 117.405L19.8984 158.066L28.3931 168.009L68.4837 126.641L59.6841 114.205L42.0848 117.405Z" fill="#F7D167"/>
<path d="M33.0055 163.252L23.1095 152.178" stroke="#FF3274" stroke-width="2" stroke-linecap="round" stroke-linejoin="round"/>
<path fill-rule="evenodd" clip-rule="evenodd" d="M59.6813 114.208L42.0877 117.407L33.137 133.823L48.5014 133.457L53.5109 142.092L68.4837 126.646L59.6813 114.208Z" fill="#BF9111"/>
<path d="M23.6521 162.46C32.7426 151.811 60.5735 119.357 60.5735 119.357" stroke="#FF3274" stroke-width="2" stroke-linecap="round" stroke-linejoin="round"/>
<path fill-rule="evenodd" clip-rule="evenodd" d="M84.0746 171.769L86.7542 177.363L98.7649 175.189L96.779 168.451L84.0746 171.769Z" fill="#F77F89"/>
<path fill-rule="evenodd" clip-rule="evenodd" d="M84.9725 177.385L89.0758 189.133C89.0758 189.133 112.815 184.378 114.619 183.911C111.262 176.023 104.376 177.346 101.355 178.101C100.598 176.664 99.9215 175.186 99.3299 173.673L84.9725 177.385Z" fill="#0075FF"/>
<path d="M101.154 175.399C101.64 173.816 102.77 172.762 103.671 173.041C104.572 173.321 104.918 174.826 104.432 176.398C103.945 177.97 102.815 179.033 101.914 178.756C101.014 178.479 100.667 176.98 101.154 175.399Z" stroke="#0065C2" stroke-width="2" stroke-linecap="round" stroke-linejoin="round"/>
<path d="M105.131 175.198C106.39 173.908 107.956 173.503 108.633 174.294C109.31 175.086 108.834 176.773 107.576 178.062C106.317 179.351 104.751 179.76 104.074 178.968C103.397 178.177 103.872 176.496 105.131 175.198Z" stroke="#0065C2" stroke-width="2" stroke-linecap="round" stroke-linejoin="round"/>
<path fill-rule="evenodd" clip-rule="evenodd" d="M94.1805 82.9613C95.6685 84.1641 97.2125 85.5962 99.1956 86.3458C102.161 87.0647 107.587 93.0112 107.587 94.2923C107.587 95.5062 106.504 95.9146 105.83 95.9705C105.248 96.0069 104.009 94.6615 103.696 94.2783C104.236 95.509 104.549 97.1761 103.951 97.6991C103.352 98.2222 102.491 98.404 101.903 97.7271C100.938 96.6083 101.176 95.3384 101.086 94.5944C100.611 93.6853 99.3159 91.6631 98.7677 91.4169C98.3845 91.4365 97.8083 91.5708 97.6992 92.1833C97.5901 92.7959 99.0138 94.1636 99.1732 94.7342C99.1732 95.4587 98.3817 96.3789 97.6992 96.1971C96.9216 95.9901 94.5161 93.6546 93.9847 93.0168C93.2686 92.1581 92.9441 90.2869 92.5609 89.6603C92.1777 89.0338 90.6897 87.7024 90.4128 87.4227C90.1359 87.143 92.6952 81.7558 94.1805 82.9613Z" fill="#F77F89"/>
<path fill-rule="evenodd" clip-rule="evenodd" d="M79.328 53.6396C84.6732 58.1793 92.6728 76.0582 97.8139 80.458C97.2768 83.2187 88.7597 93.5008 82.7404 91.0505C75.1995 87.9793 75.2918 50.2132 79.328 53.6396Z" fill="#3B4161"/>
<path fill-rule="evenodd" clip-rule="evenodd" d="M83.4816 79.1238L99.3299 169.114L82.7264 173.03L60.9232 115.819L66.3383 76.0582L83.4816 79.1238Z" fill="#F7D167"/>
<path d="M69.4878 138.29L61.6924 117.833" stroke="#FF3274" stroke-width="2" stroke-linecap="round" stroke-linejoin="round"/>
<path d="M89.9457 171.329L64.3328 90.7848" stroke="#FF3274" stroke-width="2" stroke-linecap="round" stroke-linejoin="round"/>
<path d="M84.8858 87.1067C82.6481 88.0437 71.1801 90.1611 66.7495 89.6967" stroke="#FF3274" stroke-width="2" stroke-linecap="round" stroke-linejoin="round"/>
<path fill-rule="evenodd" clip-rule="evenodd" d="M36.7956 65.6307L66.867 68.8221C68.6599 69.0123 69.9438 70.7018 69.748 72.5982L64.8643 118.596C64.6629 120.49 63.049 121.872 61.256 121.673L31.1846 118.493C29.3917 118.302 28.1078 116.613 28.3036 114.717L33.1845 68.7186C33.3859 66.8222 35.0026 65.4517 36.7956 65.6307Z" fill="#0075FF"/>
<path d="M37.783 93.6574C37.783 91.3892 38.4555 89.172 39.7157 87.2861C40.9758 85.4002 42.7669 83.9303 44.8624 83.0623C46.9579 82.1943 49.2637 81.9672 51.4883 82.4097C53.7129 82.8522 55.7563 83.9444 57.3601 85.5483C58.9639 87.1521 60.0562 89.1955 60.4987 91.4201C60.9412 93.6447 60.7141 95.9505 59.8461 98.046C58.9781 100.142 57.5082 101.933 55.6223 103.193C53.7364 104.453 51.5191 105.125 49.251 105.125C46.2095 105.125 43.2925 103.917 41.1419 101.766C38.9912 99.6158 37.783 96.6989 37.783 93.6574Z" stroke="#0065C2" stroke-width="2" stroke-linecap="round" stroke-linejoin="round"/>
<path fill-rule="evenodd" clip-rule="evenodd" d="M48.5126 14.2371C48.5126 11.3813 50.1209 9.06534 52.1068 9.06534C54.0928 9.06534 55.7039 11.3813 55.7039 14.2371C55.7039 17.093 54.0928 19.4089 52.1068 19.4089C50.1209 19.4089 48.5126 17.093 48.5126 14.2371Z" fill="#F77F89"/>
<path fill-rule="evenodd" clip-rule="evenodd" d="M50.5377 16.9503C50.5377 14.6782 51.2115 12.457 52.4739 10.5679C53.7363 8.67867 55.5306 7.20627 57.6298 6.33689C59.729 5.4675 62.039 5.24017 64.2674 5.68365C66.4959 6.12713 68.5428 7.22149 70.1492 8.82834C71.7557 10.4352 72.8495 12.4823 73.2925 14.7109C73.7354 16.9395 73.5075 19.2493 72.6376 21.3484C71.7677 23.4474 70.2949 25.2413 68.4054 26.5033C66.5159 27.7652 64.2946 28.4385 62.0225 28.4379C60.514 28.4379 59.0204 28.1408 57.6268 27.5634C56.2332 26.9861 54.967 26.1399 53.9005 25.0731C52.834 24.0063 51.9881 22.7399 51.4111 21.3462C50.8341 19.9525 50.5373 18.4588 50.5377 16.9503V16.9503Z" fill="#F77F89"/>
<path fill-rule="evenodd" clip-rule="evenodd" d="M46.6497 90.2562C46.1154 92.0379 44.384 95.744 46.0315 102.376C42.91 107.201 44.3672 110.599 51.5166 111.452C52.7193 109.984 53.9249 109.022 55.2675 106.902C55.7038 104.994 55.6647 102.065 55.7038 101.271C55.7793 99.6655 53.427 93.3134 54.0116 90.4603C54.5962 87.6073 47.1839 88.4716 46.6497 90.2562Z" fill="#F77F89"/>
<path fill-rule="evenodd" clip-rule="evenodd" d="M60.9036 32.2923C44.3785 32.2923 38.0878 67.018 39.8919 89.238C43.3184 91.4002 56.9933 92.2421 60.9036 91.2155C61.7427 87.3136 62.0224 70.9843 62.2098 68.3271C71.3367 69.2221 69.762 70.6347 68.6599 82.8495C73.4149 83.0145 79.8203 81.7307 84.6033 79.7224C85.2746 71.3479 80.3517 32.2923 60.9036 32.2923Z" fill="#3B4161"/>
<path d="M37.783 67.7369L39.9647 46.8567C40.306 43.5904 41.9307 40.5935 44.4816 38.5251C47.0325 36.4568 50.3006 35.4866 53.5669 35.8278L55.908 36.0711C59.1743 36.4124 62.1712 38.0372 64.2396 40.5881C66.3079 43.139 67.2781 46.407 66.9369 49.6733L64.6993 71.1409" stroke="#0075FF" stroke-width="6.77" stroke-linecap="round" stroke-linejoin="round"/>
<path fill-rule="evenodd" clip-rule="evenodd" d="M54.1431 23.6717C55.0046 27.3722 55.2199 32.5832 55.0773 34.6306C57.2674 35.9229 62.9455 36.8207 65.6754 33.1566C64.3832 30.0322 64.0951 28.5218 64.2041 26.7233C64.3132 24.9248 53.2816 19.9711 54.1431 23.6717Z" fill="#F77F89"/>
<path fill-rule="evenodd" clip-rule="evenodd" d="M57.8045 27.6379C57.5611 25.652 58.9904 20.9781 59.8072 20.3292C67.4851 20.6089 72.2514 15.1406 73.0261 13.6441C73.7428 14.5956 74.2647 15.6792 74.5617 16.8328C74.7603 17.5936 74.5869 18.1279 73.2863 19.2187C72.9562 23.7024 68.8865 30.821 57.8045 27.6379Z" fill="white"/>
<path d="M60.4169 20.8019C60.4169 20.8019 53.4242 15.0791 51.3936 14.7993" stroke="white" stroke-width="3.05" stroke-linecap="round" stroke-linejoin="round"/>
<path fill-rule="evenodd" clip-rule="evenodd" d="M66.1201 14.8077C66.1201 13.812 66.4446 13.0036 66.8446 13.0036C67.2446 13.0036 67.569 13.812 67.569 14.8077C67.569 15.8035 67.2446 16.6119 66.8446 16.6119C66.4446 16.6119 66.1201 15.8035 66.1201 14.8077Z" fill="#CB5D66"/>
<path d="M61.519 85.006C58.859 85.3892 44.3869 84.7627 39.6011 82.7935" stroke="#737999" stroke-width="2" stroke-linecap="round" stroke-linejoin="round"/>
<path d="M62.2099 68.3271C62.0225 62.8532 67.0041 45.0805 57.1583 37.7718" stroke="#737999" stroke-width="2" stroke-linecap="round" stroke-linejoin="round"/>
<path d="M62.2127 68.2963L57.1583 70.4612" stroke="#737999" stroke-width="2" stroke-linecap="round" stroke-linejoin="round"/>
<path d="M57.3793 67.8152L62.2266 68.1564" stroke="#737999" stroke-width="2" stroke-linecap="round" stroke-linejoin="round"/>
<path d="M58.0981 64.4055L62.2322 68.1201" stroke="#737999" stroke-width="2" stroke-linecap="round" stroke-linejoin="round"/>
<path d="M84.6172 79.7167C84.8969 76.0554 84.1249 66.5313 81.5404 56.9709" stroke="#737999" stroke-width="2" stroke-linecap="round" stroke-linejoin="round"/>
<path d="M94.0126 76.0218C91.775 79.9713 86.4605 84.2368 84.5305 85.0844" stroke="#737999" stroke-width="2" stroke-linecap="round" stroke-linejoin="round"/>
<path d="M78.4553 88.6198C78.2203 87.2045 77.3756 81.9488 77.3756 81.9488" stroke="#FF3274" stroke-width="2" stroke-linecap="round" stroke-linejoin="round"/>
<path d="M98.3425 163.517L80.1923 166.381" stroke="#FF3274" stroke-width="2" stroke-linecap="round" stroke-linejoin="round"/>
<path d="M93.1427 133.787C92.8214 133.823 92.4983 133.841 92.1749 133.84C90.0332 133.841 87.9656 133.056 86.3628 131.636C84.76 130.215 83.7331 128.257 83.4762 126.131C83.2192 124.004 83.7501 121.858 84.9684 120.096C86.1868 118.335 88.0082 117.081 90.0883 116.571" stroke="#FF3274" stroke-width="2" stroke-linecap="round" stroke-linejoin="round"/>
<path d="M88.2954 186.904L113.684 182.09" stroke="#0065C2" stroke-width="2" stroke-linecap="round" stroke-linejoin="round"/>
<path d="M86.2647 181.385C87.1252 181.047 88.055 180.925 88.9735 181.029C89.892 181.132 90.7712 181.459 91.5348 181.979C92.2985 182.5 92.9234 183.2 93.3552 184.017C93.787 184.834 94.0127 185.744 94.0126 186.669C94.0134 187.161 93.9504 187.652 93.8252 188.129" stroke="#0065C2" stroke-width="2" stroke-linecap="round" stroke-linejoin="round"/>
<path d="M57.9247 27.2184C57.0464 26.8855 53.5165 25.6548 51.6816 21.9571" stroke="white" stroke-width="3.05" stroke-linecap="round" stroke-linejoin="round"/>
<path fill-rule="evenodd" clip-rule="evenodd" d="M48.3056 19.1376C48.305 18.4055 48.5217 17.6896 48.9281 17.0807C49.3345 16.4717 49.9124 15.997 50.5887 15.7165C51.265 15.4361 52.0093 15.3626 52.7274 15.5053C53.4455 15.648 54.1051 16.0005 54.6228 16.5182C55.1405 17.0359 55.493 17.6955 55.6357 18.4136C55.7784 19.1317 55.7049 19.876 55.4244 20.5523C55.144 21.2286 54.6692 21.8065 54.0603 22.2129C53.4513 22.6193 52.7354 22.8359 52.0033 22.8354C51.0228 22.8346 50.0827 22.4448 49.3894 21.7515C48.6961 21.0582 48.3063 20.1181 48.3056 19.1376V19.1376Z" fill="#F77F89"/>
<path d="M55.5416 20.2201C55.3093 20.9773 54.8402 21.6399 54.2033 22.1107C53.5664 22.5815 52.7953 22.8355 52.0033 22.8354" stroke="#CB5D66" stroke-width="2" stroke-linecap="round" stroke-linejoin="round"/>
<path d="M49.0859 16.8636C49.6199 16.1778 50.3786 15.7024 51.2285 15.521" stroke="#CB5D66" stroke-width="2" stroke-linecap="round" stroke-linejoin="round"/>
<path fill-rule="evenodd" clip-rule="evenodd" d="M57.8995 0.598588C56.3158 0.963356 54.8193 1.63654 53.4958 2.5797C52.1722 3.52286 51.0474 4.71752 50.1855 6.09544C49.3237 7.47337 48.7418 9.00757 48.473 10.6104C48.2041 12.2133 48.2537 13.8534 48.6188 15.4371L72.738 9.8793C72.3733 8.29552 71.7001 6.79911 70.7569 5.47553C69.8138 4.15195 68.6191 3.02713 67.2412 2.16531C65.8633 1.30349 64.3291 0.721552 62.7262 0.452731C61.1233 0.183911 59.4832 0.233473 57.8995 0.598588V0.598588Z" fill="#F2E283"/>
<path fill-rule="evenodd" clip-rule="evenodd" d="M63.5692 8.09195L80.9978 4.07534C82.4411 3.73969 83.7949 4.30191 84.041 5.32284C84.276 6.34657 83.297 7.44582 81.8509 7.78147L64.4223 11.7981C62.9762 12.1309 61.6252 11.5715 61.3791 10.5478C61.1413 9.52405 62.1231 8.4248 63.5692 8.09195Z" fill="#F2E283"/>
<path d="M45.5225 109.204C46.2672 108.414 46.9349 107.555 47.5168 106.639" stroke="#CB5D66" stroke-width="2" stroke-linecap="round" stroke-linejoin="round"/>
<path d="M48.6104 110.879C49.7852 109.743 51.5054 107.346 52.3837 105.909" stroke="#CB5D66" stroke-width="2" stroke-linecap="round" stroke-linejoin="round"/>
<path d="M98.0349 91.6323C99.797 90.1694 102.547 93.1651 103.797 94.3735" stroke="#CB5D66" stroke-width="2" stroke-linecap="round" stroke-linejoin="round"/>
<path d="M52.6438 20.6424C52.4421 20.7316 52.2239 20.7774 52.0033 20.7767C51.7576 20.7771 51.5151 20.7206 51.2947 20.6118C51.0744 20.503 50.8822 20.3447 50.7332 20.1493C50.5842 19.9539 50.4823 19.7267 50.4356 19.4855C50.3889 19.2442 50.3985 18.9955 50.4639 18.7586C50.5292 18.5217 50.6484 18.3031 50.8121 18.1199C50.9759 17.9366 51.1798 17.7938 51.4079 17.7024C51.636 17.611 51.8822 17.5736 52.1271 17.593C52.3721 17.6125 52.6092 17.6883 52.82 17.8146" stroke="#CB5D66" stroke-width="2" stroke-linecap="round" stroke-linejoin="round"/>
<path d="M63.7902 0.676894C62.062 0.229506 60.2576 0.161062 58.5005 0.476253C56.7434 0.791444 55.0752 1.48282 53.6103 2.50299C52.1454 3.52316 50.9184 4.848 50.0134 6.38671C49.1084 7.92542 48.5468 9.64162 48.3671 11.4177" stroke="#FF3274" stroke-width="2" stroke-linecap="round" stroke-linejoin="round"/>
<path d="M73.0262 13.6441C73.7429 14.5956 74.2647 15.6792 74.5618 16.8328C74.7604 17.5936 74.5869 18.1279 73.2863 19.2187C73.029 22.6955 70.5256 27.7554 64.2489 28.3708" stroke="#C9C9C9" stroke-width="2" stroke-linecap="round" stroke-linejoin="round"/>
</svg>
