<svg width="198" height="190" viewBox="0 0 198 190" fill="none" xmlns="http://www.w3.org/2000/svg">
<path fill-rule="evenodd" clip-rule="evenodd" d="M85.9819 84.7169C85.9819 82.6609 89.205 80.998 93.1782 80.998C97.1514 80.998 100.375 82.6609 100.375 84.7169C100.375 86.7729 97.1514 88.4329 93.1782 88.4329C89.205 88.4329 85.9819 86.776 85.9819 84.7169Z" fill="#8DC5E0"/>
<path fill-rule="evenodd" clip-rule="evenodd" d="M74.7372 171.133L76.9211 178.19L85.9819 176.113L85.0933 167.139L74.7372 171.133Z" fill="#FF3274"/>
<path fill-rule="evenodd" clip-rule="evenodd" d="M50.6873 85.5484H188.492C188.845 85.5484 189.184 85.6892 189.434 85.9398C189.683 86.1905 189.824 86.5304 189.824 86.8848V89.3037C189.824 89.6581 189.683 89.998 189.434 90.2486C189.184 90.4993 188.845 90.6401 188.492 90.6401H50.6873C50.3342 90.6401 49.9955 90.4993 49.7458 90.2486C49.4962 89.998 49.3559 89.6581 49.3559 89.3037V86.8848C49.3559 86.5304 49.4962 86.1905 49.7458 85.9398C49.9955 85.6892 50.3342 85.5484 50.6873 85.5484V85.5484Z" fill="#AADAF1"/>
<path d="M69.4476 90.761L41.5692 176.575" stroke="#AADAF1" stroke-width="2" stroke-linecap="round" stroke-linejoin="round"/>
<path d="M92.0727 90.761L64.2063 176.575" stroke="#AADAF1" stroke-width="2" stroke-linecap="round" stroke-linejoin="round"/>
<path d="M92.0727 90.761L119.936 176.575" stroke="#AADAF1" stroke-width="2" stroke-linecap="round" stroke-linejoin="round"/>
<path d="M69.4476 90.761L97.311 176.575" stroke="#AADAF1" stroke-width="2" stroke-linecap="round" stroke-linejoin="round"/>
<path fill-rule="evenodd" clip-rule="evenodd" d="M44.5152 162.528L41.5812 169.18L49.7023 172.672L53.317 165.948L44.5152 162.528Z" fill="#FF3274"/>
<path fill-rule="evenodd" clip-rule="evenodd" d="M41.3945 168.566L49.9794 172.297C49.9794 172.297 60.679 182.359 65.6161 184.812C65.601 187.046 65.3148 188.083 63.6039 188.721C62.8388 189.005 49.0095 183.448 49.0095 183.448L46.69 180.951L37.7436 176.82L41.3945 168.566Z" fill="#6A3416"/>
<path d="M46.5786 166.812C46.5786 166.595 46.6427 166.383 46.7628 166.203C46.883 166.022 47.0538 165.881 47.2536 165.798C47.4534 165.715 47.6732 165.694 47.8853 165.736C48.0974 165.778 48.2923 165.883 48.4452 166.036C48.5981 166.19 48.7023 166.385 48.7445 166.598C48.7866 166.811 48.765 167.032 48.6822 167.232C48.5995 167.433 48.4593 167.604 48.2795 167.725C48.0997 167.846 47.8883 167.91 47.672 167.91C47.5283 167.91 47.3859 167.882 47.2531 167.827C47.1203 167.772 46.9996 167.691 46.8979 167.589C46.7963 167.487 46.7158 167.366 46.661 167.233C46.6062 167.1 46.5782 166.957 46.5786 166.812V166.812Z" stroke="white" stroke-width="2" stroke-linecap="round" stroke-linejoin="round"/>
<path d="M42.4427 168.243C42.4427 168.025 42.5071 167.812 42.6277 167.631C42.7483 167.45 42.9198 167.309 43.1203 167.225C43.3208 167.142 43.5414 167.121 43.7542 167.163C43.967 167.206 44.1624 167.311 44.3156 167.465C44.4688 167.62 44.573 167.816 44.615 168.03C44.6569 168.243 44.6348 168.465 44.5513 168.666C44.4679 168.867 44.3269 169.039 44.1462 169.159C43.9655 169.28 43.7532 169.344 43.5362 169.343C43.2459 169.342 42.9678 169.226 42.7628 169.02C42.5578 168.813 42.4427 168.534 42.4427 168.243V168.243Z" stroke="white" stroke-width="2" stroke-linecap="round" stroke-linejoin="round"/>
<path d="M48.1118 170.175C48.1118 169.957 48.1759 169.745 48.2961 169.565C48.4162 169.384 48.587 169.244 48.7868 169.161C48.9866 169.077 49.2065 169.056 49.4186 169.098C49.6307 169.14 49.8255 169.245 49.9784 169.398C50.1314 169.552 50.2355 169.748 50.2777 169.96C50.3199 170.173 50.2982 170.394 50.2155 170.595C50.1327 170.795 49.9926 170.967 49.8127 171.087C49.6329 171.208 49.4215 171.272 49.2053 171.272C48.9153 171.272 48.6371 171.156 48.4321 170.951C48.227 170.745 48.1118 170.466 48.1118 170.175Z" stroke="white" stroke-width="2" stroke-linecap="round" stroke-linejoin="round"/>
<path fill-rule="evenodd" clip-rule="evenodd" d="M37.0689 175.233L45.8255 179.142C46.0531 179.242 46.2322 179.428 46.3236 179.66C46.415 179.891 46.4114 180.15 46.3135 180.379L45.5484 182.106C45.4971 182.218 45.4243 182.318 45.3341 182.402C45.244 182.486 45.1382 182.551 45.0229 182.594C44.9076 182.637 44.7851 182.656 44.6623 182.651C44.5395 182.646 44.4188 182.617 44.3073 182.565L35.5447 178.656C35.4318 178.607 35.3297 178.536 35.244 178.448C35.1584 178.36 35.091 178.255 35.0457 178.14C35.0003 178.026 34.978 177.903 34.9799 177.78C34.9817 177.657 35.0079 177.535 35.0567 177.422L35.8188 175.696C35.8704 175.583 35.9437 175.481 36.0345 175.397C36.1253 175.312 36.2319 175.247 36.348 175.204C36.4642 175.161 36.5877 175.141 36.7114 175.146C36.8351 175.151 36.9566 175.181 37.0689 175.233V175.233Z" fill="#3C1B09"/>
<path fill-rule="evenodd" clip-rule="evenodd" d="M22.2576 98.8701C42.2018 93.2312 70.8122 96.3545 76.9843 104.957C79.1893 108.028 78.4422 112.836 77.888 114.647C77.3337 116.458 53.9947 166.719 53.9947 166.719L43.5302 162.725L53.814 121.907C53.814 121.907 19.7785 99.5656 22.2576 98.8701Z" fill="#C4C4C4"/>
<path d="M47.2352 164.137L59.2813 125.175" stroke="#8D8D8D" stroke-width="2" stroke-linecap="round" stroke-linejoin="round"/>
<path d="M44.5814 158.534L55.8111 162.767" stroke="#8D8D8D" stroke-width="2" stroke-linecap="round" stroke-linejoin="round"/>
<path fill-rule="evenodd" clip-rule="evenodd" d="M76.7403 177.54L85.7349 174.964C85.7349 174.964 100.365 175.94 105.733 174.695C107.134 176.433 107.577 177.416 106.637 179C106.224 179.705 92.0185 184.207 92.0185 184.207L88.6478 183.75L79.1321 186.251L76.7403 177.54Z" fill="#6A3416"/>
<path fill-rule="evenodd" clip-rule="evenodd" d="M77.6048 185.453L86.8465 182.904C86.9643 182.869 87.0878 182.859 87.2097 182.873C87.3317 182.886 87.4497 182.924 87.5572 182.984C87.6646 183.043 87.7593 183.123 87.8358 183.22C87.9123 183.316 87.9692 183.426 88.0032 183.545L88.5032 185.359C88.5345 185.478 88.542 185.602 88.5253 185.725C88.5086 185.847 88.468 185.965 88.4059 186.071C88.3438 186.178 88.2613 186.271 88.1633 186.345C88.0652 186.42 87.9535 186.474 87.8345 186.505L78.5929 189.054C78.475 189.088 78.3515 189.098 78.2296 189.085C78.1076 189.071 77.9896 189.033 77.8822 188.974C77.7747 188.914 77.68 188.834 77.6035 188.738C77.527 188.641 77.4701 188.531 77.4362 188.413L76.9361 186.598C76.9048 186.479 76.8973 186.355 76.914 186.233C76.9307 186.11 76.9713 185.993 77.0334 185.886C77.0955 185.78 77.178 185.687 77.2761 185.612C77.3741 185.538 77.4859 185.484 77.6048 185.453V185.453Z" fill="#3C1B09"/>
<path d="M80.7587 174.38C80.7581 174.162 80.822 173.949 80.9422 173.768C81.0625 173.586 81.2337 173.445 81.4342 173.361C81.6346 173.277 81.8553 173.255 82.0683 173.298C82.2813 173.34 82.4769 173.445 82.6305 173.599C82.784 173.753 82.8885 173.95 82.9307 174.163C82.9729 174.377 82.9509 174.599 82.8676 174.8C82.7842 175.001 82.6432 175.173 82.4624 175.294C82.2817 175.414 82.0693 175.479 81.8521 175.478C81.5621 175.478 81.284 175.362 81.0789 175.156C80.8739 174.951 80.7587 174.671 80.7587 174.38Z" stroke="white" stroke-width="2" stroke-linecap="round" stroke-linejoin="round"/>
<path d="M82.7197 170.831C82.7191 170.613 82.7829 170.4 82.9032 170.218C83.0234 170.037 83.1947 169.895 83.3951 169.811C83.5956 169.728 83.8163 169.706 84.0293 169.748C84.2423 169.79 84.4379 169.895 84.5914 170.049C84.745 170.204 84.8494 170.4 84.8917 170.614C84.9339 170.827 84.9119 171.049 84.8285 171.25C84.7452 171.451 84.6042 171.623 84.4234 171.744C84.2426 171.865 84.0302 171.929 83.8131 171.928C83.5233 171.927 83.2457 171.812 83.0408 171.606C82.8359 171.4 82.7204 171.122 82.7197 170.831V170.831Z" stroke="white" stroke-width="2" stroke-linecap="round" stroke-linejoin="round"/>
<path d="M76.7403 173.597C76.7403 173.38 76.8044 173.168 76.9246 172.987C77.0448 172.807 77.2155 172.666 77.4153 172.583C77.6151 172.5 77.835 172.478 78.0471 172.521C78.2592 172.563 78.454 172.668 78.607 172.821C78.7599 172.975 78.864 173.17 78.9062 173.383C78.9484 173.596 78.9268 173.817 78.844 174.017C78.7612 174.218 78.6211 174.389 78.4413 174.51C78.2614 174.63 78.05 174.695 77.8338 174.695C77.5438 174.695 77.2656 174.579 77.0606 174.373C76.8555 174.168 76.7403 173.888 76.7403 173.597Z" stroke="white" stroke-width="2" stroke-linecap="round" stroke-linejoin="round"/>
<path fill-rule="evenodd" clip-rule="evenodd" d="M5.91307 123.551H51.6392C53.2074 123.551 54.7114 124.177 55.8203 125.29C56.9293 126.403 57.5522 127.913 57.5522 129.487C57.5522 131.061 56.9293 132.57 55.8203 133.683C54.7114 134.797 53.2074 135.422 51.6392 135.422H5.91307C4.34482 135.422 2.84081 134.797 1.7319 133.683C0.622982 132.57 0 131.061 0 129.487H0C0 127.913 0.622982 126.403 1.7319 125.29C2.84081 124.177 4.34482 123.551 5.91307 123.551V123.551Z" fill="#AADAF1"/>
<path fill-rule="evenodd" clip-rule="evenodd" d="M26.8603 131.367H30.6919C30.9955 131.367 31.2866 131.488 31.5013 131.704C31.716 131.919 31.8366 132.212 31.8366 132.516V175.027C31.8366 175.332 31.716 175.624 31.5013 175.84C31.2866 176.055 30.9955 176.176 30.6919 176.176H26.8603C26.5567 176.176 26.2656 176.055 26.0509 175.84C25.8363 175.624 25.7157 175.332 25.7157 175.027V132.516C25.7157 132.212 25.8363 131.919 26.0509 131.704C26.2656 131.488 26.5567 131.367 26.8603 131.367V131.367Z" fill="#AADAF1"/>
<path fill-rule="evenodd" clip-rule="evenodd" d="M25.318 162.528H32.2462C32.7463 162.528 33.226 162.727 33.5796 163.082C33.9332 163.437 34.1319 163.919 34.1319 164.421V174.683C34.1319 174.933 34.0826 175.18 33.9869 175.411C33.8912 175.641 33.751 175.851 33.5743 176.026C33.3976 176.202 33.1879 176.342 32.9574 176.436C32.7269 176.53 32.4801 176.577 32.2312 176.575H25.303C24.8029 176.575 24.3232 176.376 23.9696 176.021C23.616 175.666 23.4173 175.185 23.4173 174.683V164.421C23.4173 164.171 23.4666 163.924 23.5623 163.693C23.658 163.462 23.7982 163.253 23.9749 163.077C24.1516 162.901 24.3613 162.762 24.5918 162.668C24.8223 162.574 25.0691 162.526 25.318 162.528Z" fill="#AADAF1"/>
<path d="M5.81968 183.883V181.879C5.81968 180.472 6.37633 179.123 7.36718 178.129C8.35803 177.134 9.70191 176.575 11.1032 176.575H28.7761" stroke="#AADAF1" stroke-width="2" stroke-linecap="round" stroke-linejoin="round"/>
<path d="M51.6813 183.883V181.879C51.6809 181.182 51.5437 180.491 51.2775 179.848C51.0113 179.204 50.6213 178.619 50.1298 178.126C49.6383 177.634 49.0549 177.243 48.413 176.977C47.7711 176.711 47.0833 176.575 46.3888 176.575H28.7219" stroke="#AADAF1" stroke-width="2" stroke-linecap="round" stroke-linejoin="round"/>
<path d="M20.1159 183.883V181.464C20.1159 178.764 21.5166 176.575 23.2426 176.575H34.3096C36.0357 176.575 37.4364 178.764 37.4364 181.464V183.883" stroke="#AADAF1" stroke-width="2" stroke-linecap="round" stroke-linejoin="round"/>
<path d="M2.9249 186.792C2.9249 186.217 3.09468 185.656 3.41276 185.178C3.73084 184.7 4.18294 184.327 4.7119 184.108C5.24085 183.888 5.82289 183.83 6.38443 183.942C6.94596 184.054 7.46176 184.331 7.8666 184.737C8.27144 185.144 8.54714 185.661 8.65884 186.225C8.77054 186.789 8.71321 187.373 8.49411 187.904C8.27501 188.435 7.90398 188.889 7.42794 189.208C6.95189 189.527 6.39221 189.698 5.81968 189.698C5.05218 189.697 4.31635 189.39 3.77364 188.846C3.23094 188.301 2.9257 187.562 2.9249 186.792V186.792Z" stroke="#AADAF1" stroke-width="2" stroke-linecap="round" stroke-linejoin="round"/>
<path d="M17.2211 186.792C17.2211 186.217 17.3909 185.656 17.7089 185.178C18.027 184.7 18.4791 184.327 19.0081 184.108C19.537 183.888 20.1191 183.83 20.6806 183.942C21.2421 184.054 21.7579 184.331 22.1628 184.737C22.5676 185.144 22.8433 185.661 22.955 186.225C23.0667 186.789 23.0094 187.373 22.7903 187.904C22.5712 188.435 22.2002 188.889 21.7241 189.208C21.2481 189.527 20.6884 189.698 20.1159 189.698C19.3484 189.697 18.6125 189.39 18.0698 188.846C17.5271 188.301 17.2219 187.562 17.2211 186.792V186.792Z" stroke="#AADAF1" stroke-width="2" stroke-linecap="round" stroke-linejoin="round"/>
<path d="M37.4364 183.883C38.0096 183.883 38.5702 184.053 39.0471 184.372C39.524 184.691 39.8959 185.145 40.1157 185.677C40.3355 186.208 40.3933 186.793 40.2818 187.358C40.1704 187.922 39.8946 188.441 39.4895 188.848C39.0843 189.255 38.568 189.532 38.0058 189.645C37.4436 189.757 36.8608 189.7 36.3311 189.48C35.8014 189.26 35.3487 188.887 35.0301 188.408C34.7116 187.93 34.5416 187.367 34.5416 186.792C34.5416 186.021 34.8465 185.282 35.3893 184.736C35.932 184.191 36.6683 183.884 37.4364 183.883" stroke="#AADAF1" stroke-width="2" stroke-linecap="round" stroke-linejoin="round"/>
<path d="M48.7986 186.792C48.7986 186.217 48.9684 185.656 49.2865 185.178C49.6045 184.7 50.0567 184.327 50.5856 184.108C51.1146 183.888 51.6966 183.83 52.2581 183.942C52.8197 184.054 53.3355 184.331 53.7403 184.737C54.1452 185.144 54.4209 185.661 54.5325 186.225C54.6442 186.789 54.5869 187.373 54.3678 187.904C54.1487 188.435 53.7777 188.889 53.3016 189.208C52.8256 189.527 52.2659 189.698 51.6934 189.698C50.9259 189.697 50.1901 189.39 49.6473 188.846C49.1046 188.301 48.7994 187.562 48.7986 186.792V186.792Z" stroke="#AADAF1" stroke-width="2" stroke-linecap="round" stroke-linejoin="round"/>
<path fill-rule="evenodd" clip-rule="evenodd" d="M7.62704 87.039C-10.6182 125.293 26.2067 126.324 39.1292 126.134C52.0518 125.943 55.4527 124.966 58.9499 124.117C60.0675 127.515 73.463 171.526 73.463 171.526L85.2258 167.958C85.2258 167.958 76.2343 112.047 74.204 108.27C68.6283 97.8875 35.6471 97.3251 31.4751 97.5761C27.3031 97.827 9.94045 82.1892 7.62704 87.039Z" fill="#C4C4C4"/>
<path d="M8.76567 92.2667C-3.73219 123.576 49.868 121.689 61.5917 118.103C63.3448 123.137 77.8579 169.93 77.8579 169.93" stroke="#8D8D8D" stroke-width="2" stroke-linecap="round" stroke-linejoin="round"/>
<path d="M76.5445 118.16C72.7734 117.382 69.3751 115.347 66.9009 112.386C64.4267 109.425 63.0218 105.711 62.9141 101.848" stroke="#8D8D8D" stroke-width="2" stroke-linecap="round" stroke-linejoin="round"/>
<path d="M53.3381 125.266C55.2283 124.986 57.1017 124.603 58.9499 124.117C59.4138 125.526 61.9893 133.922 64.8419 143.265" stroke="#8D8D8D" stroke-width="2" stroke-linecap="round" stroke-linejoin="round"/>
<path d="M76.4572 117.55C75.4752 112.63 74.6498 109.123 74.204 108.27C68.9627 98.5164 39.5148 97.4279 32.5294 97.5428" stroke="#8D8D8D" stroke-width="2" stroke-linecap="round" stroke-linejoin="round"/>
<path d="M84.6626 164.499L72.4509 168.203" stroke="#8D8D8D" stroke-width="2" stroke-linecap="round" stroke-linejoin="round"/>
<path fill-rule="evenodd" clip-rule="evenodd" d="M29.722 27.7199C29.722 26.4808 30.0881 25.2694 30.774 24.2391C31.46 23.2088 32.4349 22.4058 33.5756 21.9317C34.7162 21.4577 35.9713 21.3338 37.1821 21.5757C38.3929 21.8177 39.505 22.4147 40.3778 23.2911C41.2505 24.1676 41.8447 25.2841 42.0852 26.4996C42.3257 27.715 42.2017 28.9748 41.7288 30.1195C41.2559 31.2642 40.4555 32.2424 39.4287 32.9304C38.4019 33.6184 37.1949 33.9853 35.9604 33.9847C35.1409 33.9847 34.3294 33.8227 33.5723 33.5078C32.8153 33.1929 32.1274 32.7314 31.5481 32.1496C30.9688 31.5679 30.5093 30.8772 30.196 30.1171C29.8826 29.3571 29.7216 28.5425 29.722 27.7199V27.7199Z" fill="#6A3416"/>
<path fill-rule="evenodd" clip-rule="evenodd" d="M88.705 79.2927C89.7322 78.4461 92.5155 76.381 93.4071 76.3931C94.2988 76.4052 96.9977 78.951 97.058 79.6192C97.1182 80.2874 96.2597 81.3426 95.7477 81.4182C95.2356 81.4938 93.5879 79.9064 93.2264 80.0485C92.8649 80.1907 92.0697 81.0373 91.8378 81.4122C91.6058 81.7871 87.6809 80.1241 88.705 79.2927Z" fill="#F77F89"/>
<path fill-rule="evenodd" clip-rule="evenodd" d="M51.8952 62.6934L58.0583 69.0065C58.0583 69.0065 62.7213 58.9593 65.9685 53.6439C65.3118 52.6945 64.1611 48.912 64.3087 48.2015C64.4563 47.491 67.8481 40.7847 68.6675 41.1748C69.4868 41.5648 70.2519 42.874 69.8332 44.1983C70.3182 42.4537 71.1375 40.0409 71.8604 39.8021C72.5834 39.5632 74.1046 39.8777 74.0383 41.1022C74.3847 40.3009 74.9962 39.7386 75.6951 39.7083C76.2975 39.6811 77.5265 40.1981 77.6108 40.9601C77.7133 41.9125 76.3578 44.1862 76.1921 44.5097C76.8247 43.645 76.8186 43.6027 77.1982 43.6027C77.9603 43.6299 79.2495 44.7667 78.62 46.4085C77.9904 48.0503 74.8787 55.712 72.4689 56.0385C72.5804 57.5261 65.3992 78.2828 65.3992 78.2828L54.5189 77.8474L46.5936 67.3255L51.8952 62.6934Z" fill="#F77F89"/>
<path fill-rule="evenodd" clip-rule="evenodd" d="M30.46 39.8867C10.4495 39.9109 3.76231 87.0541 5.85281 90.2863C7.38605 92.6568 25.5379 99.6261 31.7582 97.4854C33.9542 96.7295 39.6684 84.9528 42.9036 73.0702C46.3526 70.2281 52.8802 64.8461 53.9435 63.8091C53.6423 61.5323 48.398 52.3589 42.9669 48.2952C41.0902 43.9927 37.6081 39.8867 30.46 39.8867Z" fill="#3B4161"/>
<path fill-rule="evenodd" clip-rule="evenodd" d="M35.635 71.9182C35.635 71.9182 45.1869 84.0124 47.6991 84.9951C50.2114 85.9777 77.3458 85.6633 79.3279 85.4305C81.3099 85.1977 80.9485 86.7155 82.7408 86.8122C84.5963 86.915 85.6657 85.2672 85.9187 84.4357C87.0513 85.6996 89.0484 87.6437 90.3588 86.9664C91.2865 86.4827 91.2986 86.0594 90.66 85.3912C91.5637 85.9143 93.1963 86.6822 93.856 86.1652C94.9163 85.3368 95.0157 84.5627 94.6573 83.9187C93.5518 81.9262 89.9913 79.1052 89.1448 78.7787C88.1689 78.3916 85.1957 79.4559 83.7649 79.5436C77.2795 79.9458 60.926 75.8972 55.5611 75.6523C54.7719 74.1405 46.5936 64.2142 45.9611 63.2225C43.7169 65.1485 35.635 71.9182 35.635 71.9182Z" fill="#F77F89"/>
<path fill-rule="evenodd" clip-rule="evenodd" d="M32.9692 30.1902C32.9686 28.3086 33.5239 26.4691 34.565 24.9044C35.6061 23.3397 37.0861 22.12 38.8178 21.3997C40.5496 20.6794 42.4552 20.4907 44.2938 20.8577C46.1323 21.2246 47.8212 22.1306 49.1467 23.4611C50.4722 24.7916 51.3748 26.4867 51.7404 28.3322C52.1059 30.1776 51.918 32.0904 51.2004 33.8287C50.4827 35.5669 49.2676 37.0524 47.7088 38.0974C46.1499 39.1424 44.3173 39.6998 42.4427 39.6992C39.9304 39.6984 37.5213 38.6963 35.7448 36.9132C33.9683 35.1301 32.97 32.7119 32.9692 30.1902V30.1902Z" fill="#F77F89"/>
<path fill-rule="evenodd" clip-rule="evenodd" d="M34.2403 28.119C34.2795 29.5976 31.195 38.9464 29.978 40.7363C30.5805 42.1665 36.4754 45.7524 39.1835 44.9874C39.4847 43.1733 40.4938 39.5269 41.1173 38.7166C41.7409 37.9063 34.2012 26.6284 34.2403 28.119Z" fill="#F77F89"/>
<path fill-rule="evenodd" clip-rule="evenodd" d="M45.0694 10.141C44.1689 10.1438 43.2797 10.3431 42.4635 10.7253C41.6474 11.1075 40.9239 11.6633 40.3432 12.3542C39.5641 12.0593 38.7389 11.9058 37.9063 11.9007C36.7902 11.8848 35.6863 12.1345 34.6849 12.6295C33.6836 13.1245 32.8134 13.8506 32.1456 14.7483C31.4779 15.6461 31.0315 16.6899 30.8432 17.7942C30.655 18.8985 30.7301 20.0318 31.0624 21.1014C30.6415 21.4901 30.3054 21.9621 30.0752 22.4877C29.845 23.0133 29.7257 23.581 29.725 24.1552C29.7317 25.143 30.0813 26.0977 30.7136 26.8548C31.3458 27.6119 32.2212 28.1242 33.1891 28.3035C33.2373 28.0707 33.2373 27.9074 33.3126 27.6413C33.5174 26.9338 36.5839 25.6397 36.9273 25.8725C37.1976 26.0672 37.5054 26.2031 37.831 26.2716C37.8591 26.2733 37.8872 26.2733 37.9153 26.2716C39.1888 26.2684 40.4383 25.9232 41.5342 25.2719C42.6301 24.6207 43.5324 23.687 44.1477 22.5678C44.4552 22.6221 44.7663 22.6534 45.0785 22.6615C45.0785 23.9006 45.4445 25.1118 46.1303 26.1421C46.8161 27.1723 47.7909 27.9753 48.9314 28.4494C50.0719 28.9236 51.3268 29.0477 52.5375 28.8059C53.7482 28.5642 54.8603 27.9676 55.7332 27.0914C56.6061 26.2153 57.2005 25.099 57.4413 23.8837C57.6822 22.6685 57.5586 21.4088 57.0862 20.2641C56.6138 19.1193 55.8138 18.1409 54.7874 17.4525C53.761 16.7641 52.5543 16.3967 51.3199 16.3967C51.3187 15.574 51.1561 14.7596 50.8413 14C50.5266 13.2404 50.0658 12.5504 49.4854 11.9695C48.905 11.3886 48.2163 10.9281 47.4586 10.6144C46.7009 10.3007 45.8891 10.1398 45.0694 10.141Z" fill="#6A3416"/>
<path fill-rule="evenodd" clip-rule="evenodd" d="M30.457 24.4273C30.4587 23.6993 30.6754 22.9882 31.0797 22.3838C31.4839 21.7793 32.0575 21.3087 32.7281 21.0314C33.3987 20.7541 34.1361 20.6824 34.8472 20.8255C35.5583 20.9687 36.2112 21.3201 36.7234 21.8355C37.2356 22.3509 37.5841 23.0071 37.725 23.7212C37.8658 24.4353 37.7926 25.1753 37.5147 25.8477C37.2367 26.5201 36.7665 27.0948 36.1633 27.499C35.5601 27.9033 34.8511 28.119 34.1259 28.119C33.6433 28.119 33.1655 28.0235 32.7198 27.8378C32.274 27.6522 31.8692 27.3801 31.5284 27.0372C31.1875 26.6943 30.9175 26.2872 30.7336 25.8394C30.5498 25.3915 30.4558 24.9117 30.457 24.4273V24.4273Z" fill="#F77F89"/>
<path d="M11.6213 88.4329C11.2267 82.5853 16.7933 60.8611 20.9593 54.3967" stroke="#737999" stroke-width="2" stroke-linecap="round" stroke-linejoin="round"/>
<path d="M23.9565 59.5398C24.9264 61.5505 29.725 70.4548 33.7915 73.5963C35.3428 72.1208 46.5243 62.5573 46.5243 62.5573C45.0965 59.8935 38.2316 51.5425 36.0055 49.4955" stroke="#737999" stroke-width="2" stroke-linecap="round" stroke-linejoin="round"/>
<path d="M31.686 71.5645L45.1267 60.4166" stroke="#737999" stroke-width="2" stroke-linecap="round" stroke-linejoin="round"/>
<path d="M41.4336 45.5256C41.3406 45.8244 41.2002 46.1061 41.0179 46.3601C39.4214 48.5976 34.9211 48.3527 30.966 45.8159" stroke="#737999" stroke-width="2" stroke-linecap="round" stroke-linejoin="round"/>
<path d="M43.006 48.3164C43.7681 50.3059 44.8134 54.947 44.3706 59.3886" stroke="#737999" stroke-width="2" stroke-linecap="round" stroke-linejoin="round"/>
<path d="M47.9552 65.8016L53.0158 61.2935" stroke="#737999" stroke-width="2" stroke-linecap="round" stroke-linejoin="round"/>
<path d="M25.9054 84.3571C27.5772 84.0941 36.7044 84.2815 35.0175 84.856C33.3306 85.4305 30.1738 85.8387 31.5805 86.1713C32.9318 86.4891 34.3008 86.7253 35.6802 86.8788" stroke="#737999" stroke-width="2" stroke-linecap="round" stroke-linejoin="round"/>
<path d="M47.4672 30.4411C47.3738 31.2787 47.5576 33.1623 48.1871 33.9847" stroke="#B5545C" stroke-width="2" stroke-linecap="round" stroke-linejoin="round"/>
<path fill-rule="evenodd" clip-rule="evenodd" d="M42.3885 29.3285C42.6897 28.6119 43.2922 28.1795 43.7109 28.364C44.1296 28.5484 44.2139 29.271 43.9037 29.9936C43.5934 30.7163 43 31.1426 42.5813 30.9582C42.1626 30.7737 42.0752 30.0481 42.3885 29.3285Z" fill="#B5545C"/>
<path fill-rule="evenodd" clip-rule="evenodd" d="M49.5426 30.9642C49.8439 30.2476 50.4463 29.8153 50.865 29.9967C51.2837 30.1781 51.3681 30.9037 51.0578 31.6264C50.7475 32.349 50.1541 32.7753 49.7354 32.5909C49.3167 32.4064 49.2294 31.6778 49.5426 30.9642Z" fill="#B5545C"/>
<path d="M42.3524 36.2252C41.7741 36.041 41.2628 35.6898 40.8824 35.2155C40.502 34.7412 40.2694 34.1648 40.2137 33.5584" stroke="#B5545C" stroke-width="2" stroke-linecap="round" stroke-linejoin="round"/>
<path d="M40.6986 39.539C39.4414 39.3024 38.2449 38.8128 37.1811 38.0999C36.1173 37.387 35.2082 36.4655 34.5084 35.3907" stroke="#B5545C" stroke-width="2" stroke-linecap="round" stroke-linejoin="round"/>
<path d="M35.4061 27.8772C34.9969 28.0318 34.5631 28.1107 34.1259 28.11C33.7919 28.1099 33.4595 28.0641 33.1379 27.9739" stroke="#B5545C" stroke-width="2" stroke-linecap="round" stroke-linejoin="round"/>
<path d="M33.418 26.6466C33.0315 26.5411 32.682 26.3293 32.4091 26.035C32.1362 25.7407 31.9508 25.3757 31.8737 24.9811C31.7966 24.5866 31.831 24.1783 31.9729 23.8023C32.1149 23.4264 32.3587 23.0977 32.6769 22.8536C32.9951 22.6094 33.3751 22.4594 33.7737 22.4206C34.1724 22.3817 34.574 22.4555 34.933 22.6337C35.2921 22.8118 35.5944 23.0872 35.8057 23.4288C36.0171 23.7703 36.1291 24.1643 36.129 24.5664" stroke="#B5545C" stroke-width="2" stroke-linecap="round" stroke-linejoin="round"/>
<path d="M65.6673 77.1883L55.6455 75.6523L49.4252 67.6339" stroke="#B5545C" stroke-width="2" stroke-linecap="round" stroke-linejoin="round"/>
<path d="M69.6615 52.7761C70.035 51.9598 71.0713 50.1698 70.7128 49.3897C70.3543 48.6097 67.8722 47.5544 68.1765 46.8076C68.4807 46.0608 69.8603 44.0411 69.8603 44.0411" stroke="#B5545C" stroke-width="2" stroke-linecap="round" stroke-linejoin="round"/>
<path d="M74.0233 41.0961L72.1225 44.9965" stroke="#B5545C" stroke-width="2" stroke-linecap="round" stroke-linejoin="round"/>
<path d="M76.2825 44.5067L74.7372 46.7078" stroke="#B5545C" stroke-width="2" stroke-linecap="round" stroke-linejoin="round"/>
<path d="M89.3406 78.8724L92.0998 80.9889" stroke="#B5545C" stroke-width="2" stroke-linecap="round" stroke-linejoin="round"/>
<path d="M90.6208 85.2642L88.5604 83.3533" stroke="#B5545C" stroke-width="2" stroke-linecap="round" stroke-linejoin="round"/>
<path fill-rule="evenodd" clip-rule="evenodd" d="M78.2435 11.2386H81.7166C81.8792 11.2386 82.0178 11.4321 82.0178 11.6709V13.8449C82.0178 14.0837 81.8822 14.2742 81.7166 14.2742H78.2435C78.0778 14.2742 77.9422 14.0837 77.9422 13.8449V11.6709C77.9452 11.4321 78.0778 11.2386 78.2435 11.2386Z" fill="#FF3274"/>
<path fill-rule="evenodd" clip-rule="evenodd" d="M83.5179 12.8955V14.2319C83.5179 14.2712 83.4908 14.2863 83.4607 14.2682L82.304 13.606L81.1503 12.9378C81.1171 12.9196 81.1171 12.8894 81.1503 12.8713L82.304 12.2L83.4607 11.5318C83.4663 11.5277 83.4731 11.5253 83.4801 11.5249C83.4871 11.5246 83.494 11.5262 83.5001 11.5298C83.5061 11.5333 83.511 11.5385 83.5142 11.5448C83.5174 11.551 83.5187 11.5581 83.5179 11.5651V12.8955Z" fill="#FF3274"/>
<path d="M75.6077 12.7564C75.6077 11.7398 75.908 10.746 76.4707 9.90072C77.0334 9.05545 77.8332 8.39663 78.7689 8.0076C79.7046 7.61856 80.7342 7.51677 81.7276 7.7151C82.7209 7.91343 83.6334 8.40297 84.3495 9.12182C85.0657 9.84066 85.5534 10.7565 85.751 11.7536C85.9486 12.7507 85.8472 13.7842 85.4596 14.7234C85.072 15.6626 84.4157 16.4654 83.5736 17.0302C82.7314 17.595 81.7414 17.8964 80.7286 17.8964C79.3704 17.8964 78.0679 17.3549 77.1076 16.3909C76.1472 15.427 75.6077 14.1196 75.6077 12.7564Z" stroke="#FF3274" stroke-width="2" stroke-linecap="round" stroke-linejoin="round"/>
<path d="M8.76266 0.302369H82.1383C83.1171 0.301971 84.0863 0.495183 84.9907 0.870961C85.895 1.24674 86.7167 1.79772 87.4088 2.4924C88.1009 3.18709 88.6498 4.01186 89.0242 4.91959C89.3985 5.82732 89.591 6.8002 89.5906 7.78263V45.2958C89.5906 47.2797 88.8055 49.1824 87.4079 50.5852C86.0103 51.988 84.1148 52.7761 82.1383 52.7761H8.76266C6.7867 52.7753 4.89195 51.9869 3.49501 50.5841C2.09808 49.1814 1.31334 47.2792 1.31334 45.2958V7.78263C1.31295 6.80045 1.50534 5.82782 1.87952 4.92029C2.25371 4.01276 2.80236 3.18812 3.49413 2.49347C4.1859 1.79882 5.00724 1.24778 5.91123 0.871829C6.81522 0.495873 7.78415 0.302369 8.76266 0.302369V0.302369Z" stroke="#9B9B9B" stroke-width="2" stroke-linecap="round" stroke-linejoin="round"/>
<path d="M89.1117 5.10077H1.8676" stroke="#9B9B9B" stroke-width="2" stroke-linecap="round" stroke-linejoin="round"/>
<path d="M6.66914 2.79073C6.66854 2.58011 6.73022 2.37404 6.84637 2.19862C6.96252 2.02321 7.12791 1.88632 7.3216 1.8053C7.51529 1.72429 7.72858 1.70278 7.93446 1.7435C8.14034 1.78423 8.32955 1.88535 8.47814 2.03407C8.62673 2.1828 8.72802 2.37243 8.76917 2.57896C8.81033 2.7855 8.78951 2.99964 8.70935 3.19429C8.62918 3.38894 8.49328 3.55534 8.31885 3.67242C8.14442 3.7895 7.9393 3.852 7.72946 3.852C7.44876 3.852 7.17952 3.74029 6.98076 3.54135C6.782 3.34241 6.66994 3.07248 6.66914 2.79073V2.79073Z" stroke="#FF3274" stroke-width="2" stroke-linecap="round" stroke-linejoin="round"/>
<path d="M10.8441 2.79073C10.8435 2.58011 10.9052 2.37404 11.0214 2.19862C11.1375 2.02321 11.3029 1.88632 11.4966 1.8053C11.6903 1.72429 11.9036 1.70278 12.1095 1.7435C12.3153 1.78423 12.5045 1.88535 12.6531 2.03407C12.8017 2.1828 12.903 2.37243 12.9442 2.57896C12.9853 2.7855 12.9645 2.99965 12.8843 3.19429C12.8042 3.38894 12.6683 3.55534 12.4938 3.67242C12.3194 3.7895 12.1143 3.852 11.9045 3.852C11.7654 3.8524 11.6275 3.82524 11.4989 3.77209C11.3703 3.71893 11.2534 3.64082 11.1549 3.54223C11.0564 3.44365 10.9782 3.32652 10.9249 3.19756C10.8716 3.06861 10.8441 2.93036 10.8441 2.79073V2.79073Z" stroke="#FF3274" stroke-width="2" stroke-linecap="round" stroke-linejoin="round"/>
<path d="M15.0282 2.79073C15.0276 2.58011 15.0892 2.37404 15.2054 2.19862C15.3215 2.02321 15.4869 1.88632 15.6806 1.8053C15.8743 1.72429 16.0876 1.70278 16.2935 1.7435C16.4994 1.78423 16.6886 1.88535 16.8372 2.03407C16.9858 2.1828 17.087 2.37243 17.1282 2.57896C17.1693 2.7855 17.1485 2.99964 17.0684 3.19429C16.9882 3.38894 16.8523 3.55534 16.6779 3.67242C16.5034 3.7895 16.2983 3.852 16.0885 3.852C15.8078 3.852 15.5385 3.74029 15.3398 3.54135C15.141 3.34241 15.029 3.07248 15.0282 2.79073V2.79073Z" stroke="#FF3274" stroke-width="2" stroke-linecap="round" stroke-linejoin="round"/>
<path d="M146.456 90.761L118.59 176.575" stroke="#AADAF1" stroke-width="2" stroke-linecap="round" stroke-linejoin="round"/>
<path d="M169.081 90.761L141.215 176.575" stroke="#AADAF1" stroke-width="2" stroke-linecap="round" stroke-linejoin="round"/>
<path d="M169.081 90.761L196.945 176.575" stroke="#AADAF1" stroke-width="2" stroke-linecap="round" stroke-linejoin="round"/>
<path d="M146.456 90.761L174.319 176.575" stroke="#AADAF1" stroke-width="2" stroke-linecap="round" stroke-linejoin="round"/>
<path fill-rule="evenodd" clip-rule="evenodd" d="M98.1997 34.8918H141.392C142.286 34.8918 143.144 35.2482 143.776 35.8827C144.408 36.5172 144.763 37.3778 144.763 38.2751V74.077C144.763 74.9743 144.408 75.8349 143.776 76.4694C143.144 77.1039 142.286 77.4604 141.392 77.4604H98.1997C97.3067 77.4588 96.4509 77.1016 95.8201 76.4673C95.1893 75.8329 94.835 74.9733 94.835 74.077V38.2751C94.835 37.3789 95.1893 36.5192 95.8201 35.8849C96.4509 35.2506 97.3067 34.8934 98.1997 34.8918Z" fill="#AADAF1"/>
<path fill-rule="evenodd" clip-rule="evenodd" d="M98.1997 34.8888C97.7572 34.8884 97.3189 34.9755 96.91 35.1452C96.501 35.3149 96.1294 35.5639 95.8164 35.8778C95.5033 36.1917 95.255 36.5645 95.0856 36.9748C94.9162 37.3852 94.8289 37.825 94.8289 38.2691V74.0771C94.8329 74.9718 95.1898 75.8285 95.8215 76.4597C96.4532 77.0909 97.3083 77.4453 98.1997 77.4453H100.366C100.347 77.2397 100.299 77.0401 100.299 76.8406V34.8888H98.1997Z" fill="#8DC5E0"/>
<path fill-rule="evenodd" clip-rule="evenodd" d="M113.809 66.9052H128.392L136.558 85.5484H121.46L113.809 66.9052Z" fill="#8DC5E0"/>
<path fill-rule="evenodd" clip-rule="evenodd" d="M162.523 72.4111H174.536V85.5484H162.523V72.4111Z" fill="#8DC5E0"/>
<path d="M171.334 78.9782C171.334 78.3629 171.516 77.7613 171.857 77.2497C172.197 76.7381 172.681 76.3393 173.248 76.1038C173.814 75.8683 174.437 75.8067 175.039 75.9268C175.64 76.0468 176.192 76.3431 176.626 76.7782C177.059 77.2133 177.354 77.7677 177.474 78.3712C177.594 78.9748 177.532 79.6003 177.298 80.1688C177.063 80.7373 176.666 81.2232 176.156 81.5651C175.646 81.907 175.047 82.0895 174.434 82.0895C173.612 82.0895 172.823 81.7617 172.242 81.1782C171.661 80.5947 171.334 79.8034 171.334 78.9782V78.9782Z" stroke="#8DC5E0" stroke-width="2" stroke-linecap="round" stroke-linejoin="round"/>
<path d="M162.523 74.6485H174.434" stroke="#AADAF1" stroke-width="2" stroke-linecap="round" stroke-linejoin="round"/>
<path opacity="0.25" fill-rule="evenodd" clip-rule="evenodd" d="M8.80183 0.302368H82.1775C84.1539 0.302368 86.0495 1.09047 87.4471 2.49329C88.8446 3.89611 89.6298 5.79874 89.6298 7.78263V45.2958C89.6298 47.2797 88.8446 49.1824 87.4471 50.5852C86.0495 51.988 84.1539 52.7761 82.1775 52.7761H8.80183C6.82587 52.7753 4.93111 51.9869 3.53418 50.5841C2.13725 49.1814 1.35251 47.2792 1.35251 45.2958V7.78263C1.35211 6.80045 1.5445 5.82782 1.91869 4.92029C2.29288 4.01276 2.84153 3.18812 3.5333 2.49347C4.22507 1.79882 5.04641 1.24778 5.9504 0.871829C6.85439 0.495873 7.82332 0.302368 8.80183 0.302368V0.302368Z" fill="white"/>
</svg>
