<svg width="75" height="75" viewBox="0 0 75 75" fill="none" xmlns="http://www.w3.org/2000/svg">
<g clip-path="url(#clip0_534_543)">
<path fill-rule="evenodd" clip-rule="evenodd" d="M42.6787 2.03983L44.26 2.76722C43.7502 2.48874 43.2218 2.2457 42.6787 2.03983Z" fill="#1F351B"/>
<path fill-rule="evenodd" clip-rule="evenodd" d="M75 37.4921C75.0031 44.9118 72.8056 52.1657 68.6854 58.3363C64.5652 64.5069 58.7074 69.3168 51.8531 72.1577C44.9987 74.9985 37.4558 75.7426 30.1785 74.2959C22.9012 72.8491 16.2165 69.2765 10.97 64.03C5.72347 58.7835 2.15087 52.0988 0.704123 44.8215C-0.742624 37.5442 0.0014904 30.0013 2.84233 23.1469C5.68318 16.2926 10.4931 10.4349 16.6637 6.31464C22.8342 2.19442 30.0882 -0.00312404 37.5079 3.33774e-06C42.432 -0.00207479 47.3083 0.966268 51.858 2.84969C56.4077 4.7331 60.5416 7.49467 64.0235 10.9765C67.5053 14.4584 70.2669 18.5923 72.1503 23.142C74.0337 27.6917 75.0021 32.568 75 37.4921Z" fill="#0075FF"/>
<path fill-rule="evenodd" clip-rule="evenodd" d="M38.0297 43.5642L42.7736 45.9678C43.2955 46.1125 43.8532 46.0502 44.3304 45.7939C44.8076 45.5376 45.1676 45.1071 45.3352 44.592L46.5054 42.7894L43.1689 41.0342L43.6591 40.5282C44.1644 40.0459 44.7808 39.6955 45.4537 39.508C46.1267 39.3204 46.8354 39.3015 47.5174 39.4529C47.8311 39.5534 48.1683 39.5534 48.482 39.4529L49.2568 36.1006H51.3125H51.3915C51.4414 36.1223 51.4952 36.1336 51.5496 36.1336C51.6041 36.1336 51.6579 36.1223 51.7078 36.1006C51.8078 36.0363 51.8853 35.9423 51.9291 35.8318L50.8855 28.8267V28.7002C51.6473 26.7778 51.9453 24.703 51.7552 22.6439C50.1739 22.7388 44.5288 22.2486 42.0778 23.0392C40.4965 23.5452 39.0259 26.5813 39.0259 26.5813C38.6142 26.3115 38.1416 26.1487 37.651 26.1078C37.1604 26.0669 36.6674 26.1492 36.2166 26.3471C35.7658 26.545 35.3716 26.8523 35.0697 27.2411C34.7678 27.6299 34.5677 28.088 34.4877 28.5737C34.2894 29.1935 34.2208 29.8474 34.2861 30.4949C34.3514 31.1423 34.5492 31.7694 34.8672 32.3371C34.8672 32.3371 30.9772 35.5788 29.7122 36.654C29.3011 36.9861 28.7002 37.413 28.1309 37.7609V37.9032L23.7982 45.5092C24.7299 46.4862 25.74 47.3852 26.8185 48.1974C27.6882 48.7508 28.7951 49.4308 30.2182 50.2214C31.1353 50.7432 32.0367 51.2334 32.8748 51.6762C33.7619 52.0545 34.67 52.3819 35.5945 52.6566L34.9937 50.2846L38.0297 43.5642Z" fill="white"/>
<path fill-rule="evenodd" clip-rule="evenodd" d="M24.3675 25.2214C24.2088 27.6852 24.5091 30.157 25.253 32.5111C25.2802 32.7194 25.3224 32.9256 25.3795 33.1278C24.7153 30.5445 24.3754 27.8886 24.3675 25.2214Z" fill="#1F351B"/>
<path fill-rule="evenodd" clip-rule="evenodd" d="M23.7982 45.5091L28.036 37.9506V37.8083L27.0398 38.4566L26.9608 37.8716L22.9601 44.9715L23.1815 44.845C23.3396 45.0348 23.561 45.2719 23.7982 45.5091Z" fill="#1F351B"/>
<path fill-rule="evenodd" clip-rule="evenodd" d="M52.1505 22.5016H51.8026C51.9927 24.5606 51.6948 26.6355 50.9329 28.5579V28.6844L51.9766 35.6894C51.9327 35.8 51.8553 35.894 51.7552 35.9583C51.7053 35.98 51.6515 35.9913 51.5971 35.9913C51.5427 35.9913 51.4888 35.98 51.4389 35.9583H51.3599H49.2726L48.4978 39.4529C48.1792 39.5568 47.8359 39.5568 47.5174 39.4529C46.8382 39.2906 46.1294 39.298 45.4538 39.4745C44.7781 39.651 44.1563 39.9912 43.6432 40.4649L43.1689 40.9709L46.4737 42.7419L45.3036 44.5446C45.1359 45.0597 44.776 45.4902 44.2988 45.7465C43.8216 46.0028 43.2639 46.065 42.7419 45.9203L38.0297 43.5642L34.8672 50.2846L35.468 52.6566C36.1638 52.8621 36.5907 52.9412 36.654 52.957L35.9899 50.3795L38.4567 45.0348L42.1885 46.9798C42.9667 47.2184 43.807 47.1478 44.5345 46.7826C45.262 46.4173 45.8207 45.7857 46.0942 45.019L47.8336 42.3466L44.8766 40.7653C45.5883 40.4368 46.3873 40.348 47.1537 40.5123C47.497 40.6081 47.8582 40.6208 48.2075 40.5493C48.5567 40.4778 48.8838 40.3242 49.1619 40.1012L49.2726 39.9905L49.9367 37.1126H50.9804C51.2184 37.1643 51.4654 37.1567 51.6998 37.0905C51.9341 37.0244 52.1487 36.9016 52.3245 36.7331C52.4923 36.5909 52.6231 36.4102 52.7057 36.2064C52.7883 36.0026 52.8203 35.7818 52.7988 35.5629L51.7868 28.8425C52.6124 26.7158 52.9055 24.4196 52.6407 22.1537C52.4825 22.2768 52.3189 22.3929 52.1505 22.5016Z" fill="#1F351B"/>
<path fill-rule="evenodd" clip-rule="evenodd" d="M26.8185 48.1973C28.6829 49.6069 30.7178 50.7758 32.8748 51.6761C32.0367 51.2334 31.1353 50.7432 30.2182 50.2214C28.7951 49.4307 27.6882 48.7508 26.8185 48.1973Z" fill="#1F351B"/>
<path fill-rule="evenodd" clip-rule="evenodd" d="M28.1151 37.7609C28.6211 37.413 29.222 36.9861 29.6964 36.654C30.9614 35.5787 34.8514 32.3371 34.8514 32.3371C34.5406 31.7478 34.3575 31.0997 34.3139 30.4349C34.2703 29.7701 34.3672 29.1036 34.5984 28.4788C34.6784 27.9931 34.8785 27.535 35.1804 27.1462C35.4823 26.7574 35.8765 26.4501 36.3273 26.2522C36.7781 26.0543 37.2711 25.972 37.7617 26.0129C38.2523 26.0539 38.7249 26.2166 39.1366 26.4864C39.1366 26.4864 40.5914 23.4503 42.1885 22.9443C44.6395 22.1537 50.3321 22.6439 51.8659 22.549H52.2138C52.4483 22.4491 52.6755 22.3328 52.8937 22.2011C53.6345 21.7468 54.2489 21.1132 54.6801 20.3586C55.1112 19.6041 55.3452 18.7531 55.3605 17.8842C55.3605 17.8842 50.6167 15.37 46.4421 13.4092L44.1651 12.3814C43.241 11.9692 42.2962 11.6051 41.3346 11.2903C33.191 8.87096 27.1031 13.5832 25.0474 20.5566C24.6187 22.1008 24.411 23.698 24.4307 25.3004C24.4245 27.9386 24.7431 30.5675 25.3795 33.1278C25.8193 34.7368 26.3472 36.3205 26.9608 37.8716L27.1822 38.4725L28.1151 37.7609Z" fill="black"/>
<path fill-rule="evenodd" clip-rule="evenodd" d="M36.7805 52.957C36.7805 52.957 36.2903 52.8621 35.5946 52.6565C34.67 52.3819 33.7619 52.0545 32.8748 51.6762C30.7178 50.7758 28.683 49.607 26.8185 48.1974C25.74 47.3852 24.7299 46.4862 23.7982 45.5092C23.561 45.272 23.3397 45.0348 23.1183 44.7818L22.8969 44.9083C21.3156 45.8254 11.4959 51.8659 8.36497 61.2429C11.8763 65.5458 16.3027 69.0118 21.3221 71.3889C26.3415 73.7659 31.8276 74.9941 37.3814 74.9842C39.8191 74.9712 42.2498 74.7223 44.6395 74.241C43.754 64.4371 36.7331 52.9096 36.7331 52.9096L36.7805 52.957Z" fill="#2C2E31"/>
<path fill-rule="evenodd" clip-rule="evenodd" d="M55.6293 39.105L50.8855 39.6584C50.7261 39.6584 50.5733 39.7217 50.4606 39.8344C50.3479 39.9471 50.2846 40.0999 50.2846 40.2593C50.2846 40.4187 50.3479 40.5715 50.4606 40.6842C50.5733 40.7969 50.7261 40.8602 50.8855 40.8602L55.6293 40.2909C55.7845 40.2674 55.9248 40.1856 56.0218 40.0622C56.1187 39.9388 56.165 39.7831 56.1512 39.6268C56.1346 39.4942 56.0743 39.3709 55.9798 39.2763C55.8853 39.1818 55.762 39.1215 55.6293 39.105Z" fill="#F9A134"/>
<path fill-rule="evenodd" clip-rule="evenodd" d="M55.4238 43.7223L51.5497 42.2201C51.477 42.1924 51.3996 42.1794 51.3219 42.1819C51.2442 42.1845 51.1678 42.2024 51.0972 42.2348C51.0265 42.2672 50.963 42.3134 50.9104 42.3706C50.8577 42.4278 50.817 42.4949 50.7906 42.568C50.7332 42.7149 50.7359 42.8785 50.798 43.0234C50.8601 43.1684 50.9767 43.2831 51.1227 43.3428L54.9968 44.8292C55.0697 44.8456 55.1453 44.8456 55.2182 44.8292C55.3388 44.8081 55.4501 44.7505 55.5371 44.6644C55.6241 44.5782 55.6827 44.4675 55.7051 44.3471C55.7275 44.2267 55.7125 44.1024 55.6622 43.9907C55.6119 43.879 55.5288 43.7854 55.4238 43.7223Z" fill="#F9A134"/>
<path fill-rule="evenodd" clip-rule="evenodd" d="M49.6996 44.513C49.6496 44.4475 49.5867 44.393 49.5148 44.3528C49.4429 44.3126 49.3635 44.2877 49.2815 44.2795C49.1995 44.2713 49.1168 44.2801 49.0383 44.3052C48.9599 44.3304 48.8875 44.3714 48.8255 44.4257C48.7636 44.48 48.7135 44.5465 48.6784 44.621C48.6432 44.6955 48.6238 44.7764 48.6212 44.8587C48.6186 44.9411 48.633 45.023 48.6635 45.0996C48.6939 45.1761 48.7398 45.2456 48.7982 45.3036L51.8659 48.9406C51.9223 49.0067 51.9927 49.0595 52.072 49.0951C52.1513 49.1306 52.2376 49.1481 52.3245 49.1461C52.4642 49.1469 52.5992 49.0962 52.704 49.0038C52.7604 48.9479 52.8052 48.8814 52.8357 48.8082C52.8663 48.7349 52.882 48.6563 52.882 48.5769C52.882 48.4975 52.8663 48.4189 52.8357 48.3456C52.8052 48.2723 52.7604 48.2058 52.704 48.1499L49.6996 44.513Z" fill="#F9A134"/>
</g>
<defs>
<clipPath id="clip0_534_543">
<rect width="75" height="75" fill="white"/>
</clipPath>
</defs>
</svg>
