<svg width="75" height="75" viewBox="0 0 75 75" fill="none" xmlns="http://www.w3.org/2000/svg">
<rect width="75" height="75" rx="37.5" fill="#0075FF"/>
<path d="M45.3372 51.8512C45.208 51.4583 44.928 51.1309 44.5834 50.9344L32.7167 44.8008L32.7382 44.6044L43.0328 49.4283C43.2481 49.5156 43.442 49.5811 43.6789 49.5811C44.2604 49.5811 44.7773 49.2537 45.0572 48.7298C45.4449 47.9659 45.1434 47.0273 44.3896 46.6344L30.6922 39.5403L36.9163 39.8459H37.0025C37.907 39.8459 38.6824 39.1474 38.7685 38.2307C38.8762 37.2484 38.1655 36.3535 37.1963 36.2443L23.1544 34.6946H23.0251H22.9821C22.659 34.6946 20.3761 34.9128 19.2131 35.2621L2 25.5C0.539278 30.5985 0.0778942 33.651 0 39.5L14.1305 45.6085C14.8843 47.6821 16.3488 49.341 18.2871 50.3014L18.5024 50.3887L21.2807 51.7639L21.496 51.873L21.9483 52.0913L23.0467 52.637C23.262 52.7461 23.4774 52.8334 23.6928 52.9208L36.1841 58.7488C36.3779 58.8361 36.5933 58.9016 36.8302 58.9016C37.4117 58.9016 37.9286 58.5742 38.2085 58.0503C38.5962 57.2863 38.2947 56.3477 37.5409 55.9548L29.3785 51.6984L29.5077 51.5456L41.1375 57.0244C41.3529 57.1117 41.5683 57.1772 41.7836 57.1772C42.3651 57.1772 42.882 56.8498 43.162 56.3259C43.5497 55.5619 43.2481 54.6233 42.4944 54.2304L31.2306 48.4024L31.3383 48.1623L43.2481 53.772C43.442 53.8594 43.6573 53.9248 43.8943 53.9248C44.4757 53.9248 44.9926 53.5974 45.2726 53.0736C45.4449 52.6807 45.4664 52.2441 45.3372 51.8512Z" fill="#C88266"/>
<path d="M45.8111 51.6983C45.6388 51.1745 45.2942 50.7597 44.7988 50.4978L43.9374 50.0613C44.5835 49.9739 45.165 49.581 45.4665 48.9699C45.7034 48.4897 45.7464 47.9221 45.5957 47.3983C45.4234 46.8744 45.0788 46.4597 44.5835 46.1977L32.889 40.1514L36.8733 40.3479H36.981C38.144 40.3479 39.1131 39.4748 39.2208 38.2961C39.35 37.0301 38.467 35.895 37.2179 35.7641L23.1975 34.2143L23.0252 34.1925H22.9606C22.6375 34.1925 20.5269 34.3889 19.2563 34.7163L2 25.5L1.5 26L19.1486 35.7641C20.1393 35.393 22.6375 35.1747 22.9606 35.1747H22.9821H23.0898L37.1317 36.7245C37.8425 36.8118 38.3593 37.4448 38.2732 38.1651C38.2086 38.8418 37.6271 39.3438 36.981 39.3438H36.9164L28.4524 38.9509L44.1312 47.0709C44.6481 47.3328 44.8634 47.9876 44.5835 48.5115C44.3896 48.8826 44.0235 49.1008 43.6358 49.1008L43.1836 48.9917L32.2429 43.8622C32.2644 44.2551 32.2214 44.6698 32.1137 45.0627L44.3035 51.3709C44.8204 51.6329 45.0357 52.2877 44.7558 52.8116C44.5619 53.1826 44.1958 53.4009 43.8081 53.4009L43.3559 53.2918L31.0153 47.4856L30.4984 48.577L42.1929 54.6233C42.7098 54.8852 42.9251 55.54 42.6452 56.0639C42.4513 56.435 42.0852 56.6532 41.6975 56.6532L41.353 56.5659L29.3785 50.9344C29.1416 51.2618 28.8616 51.5674 28.5386 51.8075L37.2825 56.3695C37.7994 56.6314 38.0148 57.2863 37.7348 57.8101C37.541 58.1812 37.1748 58.3995 36.7872 58.3995L36.3564 58.3122L23.8436 52.4623C23.6282 52.3968 23.4344 52.3095 23.219 52.2004L22.1206 51.6547L21.6684 51.4364L21.4961 51.3491L19.127 50.1704L19.1486 50.1486C18.9332 50.0613 18.7178 49.9739 18.5025 49.8648C16.5426 48.9044 15.1858 47.18 14.5397 45.2591L0 39V40L13.7644 46.0013C14.5397 48.0313 15.9827 49.6465 17.8564 50.6506L18.7178 51.0872L21.0223 52.2004L21.2592 52.3313L21.7114 52.5496L22.7883 53.0735C23.0036 53.1826 23.2405 53.2699 23.4775 53.3573L35.9472 59.1853C36.2057 59.3162 36.5072 59.3817 36.7872 59.3817C37.5409 59.3817 38.2301 58.9452 38.5747 58.2685C38.8332 57.7883 38.8762 57.2208 38.7039 56.6969L38.5532 56.3477L40.9222 57.4609C41.1807 57.5918 41.4822 57.6573 41.7621 57.6573C42.5159 57.6573 43.2266 57.2208 43.5712 56.5441C43.8081 56.0639 43.8512 55.4964 43.7005 54.9725C43.6359 54.7324 43.5066 54.5141 43.3559 54.3395L43.8727 54.3832C44.6265 54.3832 45.3157 53.9466 45.6818 53.2699C45.9187 52.7679 45.9618 52.2222 45.8111 51.6983Z" fill="#052A39"/>
<path d="M60.0037 52.004C60.2406 51.2837 60.3914 50.5197 60.3914 49.7121C60.3914 45.8704 57.3116 42.7708 53.5212 42.7708C52.7243 42.7708 51.9705 42.9018 51.2383 43.1638C50.1399 40.3916 47.4694 38.4489 44.3465 38.4489C41.4821 38.4489 39.0054 40.086 37.7778 42.4871C37.1102 42.247 36.3995 42.116 35.6457 42.116C32.2213 42.116 29.4646 44.9318 29.4646 48.3806C29.4646 49.1664 29.6154 49.9085 29.8738 50.5852C28.8185 52.1131 28.194 53.9467 28.194 55.9548C28.194 60.8224 31.8552 64.8169 36.5502 65.2535C37.6055 67.0215 39.5223 68.1784 41.6975 68.1784C44.2819 68.1784 46.4787 66.5195 47.3401 64.2057C48.6323 64.9042 50.0968 65.2753 51.6475 65.2753C56.7302 65.2753 60.8652 61.0844 60.8652 55.933C60.8652 54.536 60.5637 53.2045 60.0037 52.004Z" fill="#F8FAFC"/>
<path d="M52.6813 56.6534C53.5212 56.6315 54.1673 55.9767 54.1889 55.1254C54.1889 54.7107 54.0381 54.3178 53.7581 54.0122C53.4782 53.7066 53.0905 53.5538 52.6813 53.532L39.3501 53.2919L39.2854 53.1173L50.6138 52.899C51.4322 52.8772 52.0998 52.2005 52.1214 51.371C52.1429 50.5198 51.4537 49.7994 50.6138 49.7776L35.2581 49.472L40.9869 46.9837C41.8483 46.6126 42.2791 45.6085 41.956 44.7136C41.6976 43.9932 41.0299 43.513 40.2761 43.513C40.0823 43.513 39.8669 43.5567 39.6731 43.6222L26.3849 48.4679C26.2557 48.5116 24.0159 49.8431 23.1114 50.6725L2 50C5 56.5 6.32027 58.9851 10 63L22.9391 62.2194C24.4897 63.7474 26.6003 64.6423 28.7325 64.6423H28.9694H32.0706L32.2645 64.6642L32.8029 64.6423H34.009C34.2459 64.6423 34.4828 64.6205 34.7197 64.5987L48.4601 64.2931C49.2785 64.2713 49.9461 63.5946 49.9677 62.7651C49.9677 62.3504 49.8169 61.9575 49.5369 61.6519C49.257 61.3463 48.8693 61.1717 48.4601 61.1717L39.3285 60.9753L39.3931 60.7788L52.2075 60.5387C53.0474 60.5169 53.6935 59.8402 53.7151 59.0108C53.7366 58.1595 53.0474 57.4392 52.2075 57.4173L39.5654 57.1772V56.9153L52.6813 56.6534Z" fill="#C88266"/>
<path d="M53.0259 57.1117C53.952 56.9371 54.6412 56.1294 54.6627 55.1472C54.6842 54.0121 53.8012 53.0735 52.6813 53.0735L51.7337 53.0517C52.2721 52.6806 52.6167 52.0913 52.6382 51.3928C52.6598 50.2578 51.7768 49.3192 50.6569 49.2973L37.5194 49.0354L41.1807 47.442C42.2791 46.9618 42.8175 45.6957 42.4083 44.5607C42.0852 43.6439 41.2238 43.0328 40.2762 43.0328C40.0177 43.0328 39.7593 43.0764 39.5224 43.1637L26.2342 48.0095C26.0404 48.075 23.9728 49.3192 22.9391 50.1923L2 49.5L2.5 50.5L23.3052 51.1745C24.059 50.4106 26.5357 48.9481 26.5572 48.9263L39.8454 44.1023L40.2762 44.015C40.8146 44.015 41.3099 44.3424 41.5037 44.8881C41.7407 45.543 41.4176 46.2633 40.793 46.547L33.0183 49.9303L50.6138 50.2796C51.1953 50.3014 51.6476 50.7816 51.6476 51.371C51.6476 51.9385 51.1737 52.3969 50.6138 52.4187L38.5532 52.6588C38.747 53.0081 38.8763 53.401 38.9624 53.7939L52.6382 54.0558C53.2197 54.0558 53.6935 54.5578 53.672 55.1472C53.6505 55.7147 53.1982 56.1949 52.6382 56.1949L39.0486 56.4568V57.6792L52.1644 57.9193C52.7459 57.9411 53.2197 58.4213 53.1982 59.0107C53.1767 59.5782 52.7244 60.0584 52.1644 60.0584L38.9839 60.2985C38.9193 60.7133 38.7686 61.0843 38.5963 61.4554L48.4386 61.6737C49.0201 61.6955 49.4723 62.1757 49.4723 62.7651C49.4723 63.3326 48.9985 63.791 48.4386 63.8128L34.6551 64.1184C34.4397 64.1402 34.2028 64.1621 33.9874 64.1621H32.7814L32.2645 64.1839H32.2429L32.0707 64.1621H29.4432V64.1402C29.2063 64.1621 28.9694 64.1621 28.7325 64.1621C26.5357 64.1621 24.5543 63.2016 23.1329 61.7392L9 62L10 63L22.7452 62.6996C24.3174 64.1839 26.3634 65.0352 28.474 65.1006H32.0276L32.2429 65.1225H32.286L32.7814 65.1006H33.9874C34.2243 65.1006 34.4828 65.0788 34.7197 65.057L48.4386 64.7514C49.5154 64.7296 50.3984 63.8565 50.42 62.7433C50.4415 62.0448 50.0969 61.4118 49.58 61.0407L52.186 60.997C53.2843 60.9752 54.1458 60.1021 54.1674 58.9889C54.1889 58.1594 53.7151 57.4391 53.0259 57.1117Z" fill="#052A39"/>
<path d="M48.094 32.7519C48.094 34.1271 46.9956 35.2403 45.6388 35.2403C44.282 35.2403 43.1836 34.1271 43.1836 32.7519C43.1836 31.3768 45.6388 27.8188 45.6388 27.8188C45.6388 27.8188 48.094 31.3768 48.094 32.7519Z" fill="#F8FAFC"/>
<path d="M56.5148 11.2733H53.995V18.411H56.5148V11.2733Z" fill="#052A39"/>
<path d="M58.6039 11.7099L55.4164 11.2952H55.0718L51.8844 11.7099C51.1091 11.8191 50.4414 11.2079 50.4414 10.4221C50.4414 9.63631 51.1306 9.02513 51.8844 9.13427L55.0718 9.549H55.4164L58.6039 9.13427C59.3792 9.02513 60.0684 9.63631 60.0684 10.4221C60.0684 11.2079 59.3792 11.8191 58.6039 11.7099Z" fill="#052A39"/>
<path d="M47.1032 26.4655H44.1527V21.969C44.1527 19.3715 46.2417 17.276 48.7831 17.276H69.107C69.839 18.4466 70.2181 19.1015 70.8271 20.2664H48.8046C47.8785 20.2664 47.1032 21.0304 47.1032 21.9908V26.4655Z" fill="#052A39"/>
</svg>
