<svg width="75" height="75" viewBox="0 0 75 75" fill="none" xmlns="http://www.w3.org/2000/svg">
<g clip-path="url(#clip0_534_525)">
<path fill-rule="evenodd" clip-rule="evenodd" d="M57.5111 60.2309C56.3662 60.2309 55.2682 59.7761 54.4586 58.9665C53.649 58.1569 53.1942 57.0589 53.1942 55.914C53.2027 55.3176 53.3334 54.7292 53.5782 54.1853C53.8229 53.6413 54.1766 53.1533 54.6174 52.7514V37.0651C54.6174 36.2977 54.9222 35.5616 55.4649 35.019C56.0076 34.4763 56.7436 34.1714 57.5111 34.1714C58.2786 34.1714 59.0146 34.4763 59.5573 35.019C60.0999 35.5616 60.4048 36.2977 60.4048 37.0651V52.704C61.0547 53.2883 61.5119 54.0561 61.7159 54.9059C61.92 55.7557 61.8614 56.6474 61.5478 57.4631C61.2342 58.2788 60.6804 58.9801 59.9596 59.4743C59.2388 59.9685 58.385 60.2323 57.5111 60.2309ZM37.5079 1.54143e-06C30.1606 -0.00210484 22.9747 2.15463 16.8428 6.20225C10.711 10.2499 5.90355 16.0099 3.01785 22.7668C0.132155 29.5237 -0.704622 36.9795 0.611486 44.208C1.9276 51.4364 5.33858 58.1189 10.4206 63.425C12.9772 57.9836 16.8064 53.2378 21.5845 49.5889L24.8577 41.6825C24.0974 40.204 23.4216 38.6835 22.8337 37.1284C22.7394 36.9839 22.6599 36.8303 22.5965 36.6698C21.5862 34.4124 20.9916 31.9911 20.8413 29.5225C20.6161 27.9492 20.6161 26.3519 20.8413 24.7786C21.9323 18.2638 26.5655 13.2037 33.6812 13.4092C33.7243 13.1426 33.7115 12.87 33.6434 12.6086C33.5753 12.3472 33.4536 12.1029 33.2859 11.8912C32.7384 11.3376 32.4313 10.5904 32.4313 9.81183C32.4313 9.03322 32.7384 8.28603 33.2859 7.73245L34.0924 6.91018C34.1931 6.80976 34.3296 6.75337 34.4719 6.75337C34.6141 6.75337 34.7506 6.80976 34.8514 6.91018C34.9518 7.01096 35.0082 7.14742 35.0082 7.28969C35.0082 7.43196 34.9518 7.56843 34.8514 7.6692L34.0449 8.49146C33.6962 8.84883 33.5011 9.32835 33.5011 9.82764C33.5011 10.3269 33.6962 10.8064 34.0449 11.1638C34.3336 11.4615 34.5562 11.8168 34.6979 12.2065C34.8396 12.5962 34.8973 13.0115 34.8672 13.425L36.0215 13.5832C36.4801 13.5832 37.0494 13.8046 37.6977 13.9785C37.8495 13.6323 37.8945 13.2487 37.8269 12.8769C37.7593 12.505 37.5821 12.1618 37.3182 11.8912C36.7706 11.3376 36.4636 10.5904 36.4636 9.81183C36.4636 9.03322 36.7706 8.28603 37.3182 7.73245L38.0297 6.91018C38.0771 6.85892 38.1346 6.81802 38.1985 6.79004C38.2625 6.76207 38.3315 6.74763 38.4013 6.74763C38.4711 6.74763 38.5402 6.76207 38.6041 6.79004C38.6681 6.81802 38.7256 6.85892 38.7729 6.91018C38.8734 7.01096 38.9298 7.14742 38.9298 7.28969C38.9298 7.43196 38.8734 7.56843 38.7729 7.6692L38.0297 8.47565C37.6811 8.83302 37.4859 9.31254 37.4859 9.81183C37.4859 10.3111 37.6811 10.7906 38.0297 11.148C38.431 11.5567 38.7056 12.0726 38.8206 12.6336C38.9356 13.1947 38.8861 13.777 38.6781 14.3106H38.9153C39.6003 14.4804 40.2759 14.6863 40.9393 14.9273L41.303 14.5478C41.6517 14.1904 41.8468 13.7109 41.8468 13.2116C41.8468 12.7123 41.6517 12.2328 41.303 11.8754C40.763 11.3179 40.461 10.5722 40.461 9.79602C40.461 9.01985 40.763 8.27413 41.303 7.71664L42.1094 6.89437C42.2102 6.79395 42.3467 6.73756 42.4889 6.73756C42.6312 6.73756 42.7677 6.79395 42.8685 6.89437C42.9689 6.99514 43.0253 7.13161 43.0253 7.27388C43.0253 7.41615 42.9689 7.55261 42.8685 7.65338L42.0462 8.47565C41.6975 8.83302 41.5023 9.31254 41.5023 9.81183C41.5023 10.3111 41.6975 10.7906 42.0462 11.148C42.5937 11.7016 42.9008 12.4488 42.9008 13.2274C42.9008 14.006 42.5937 14.7532 42.0462 15.3068C46.2366 16.7141 50.68 18.4693 50.68 18.4693C50.7714 19.3344 50.6425 20.2085 50.3052 21.0103C49.9679 21.8121 49.4332 22.5155 48.7508 23.055C49.2962 25.2727 49.2962 27.5894 48.7508 29.8071L50.4902 36.2903C50.5402 36.5049 50.536 36.7285 50.478 36.9411C50.4201 37.1536 50.3101 37.3484 50.1581 37.5079C49.9997 37.6891 49.8019 37.8317 49.5799 37.9249C49.358 38.0181 49.1176 38.0593 48.8773 38.0455L47.8495 38.172L47.5174 41.0342L46.1417 44.1967L45.4459 46.1259C45.2777 46.9315 44.8021 47.6398 44.1201 48.1004C43.438 48.561 42.6033 48.7376 41.7932 48.5927L37.3498 47.3593L35.5155 53.0519L36.4485 55.5345C36.4485 55.5345 43.7065 64.8482 46.3315 73.9247C55.2419 71.7603 63.0501 66.4055 68.2794 58.8733C73.5086 51.341 75.7962 42.1535 74.7095 33.0486C73.6227 23.9437 69.237 15.5528 62.3818 9.46288C55.5267 3.37298 46.6774 0.00643172 37.5079 1.54143e-06Z" fill="#0075FF"/>
<path fill-rule="evenodd" clip-rule="evenodd" d="M37.7135 31.7521C38.3246 32.5123 38.7861 33.3816 39.0734 34.3137C39.0734 34.6744 38.9301 35.0203 38.6751 35.2753C38.42 35.5304 38.0742 35.6736 37.7135 35.6736C37.3528 35.6736 37.0069 35.5304 36.7519 35.2753C36.4969 35.0203 36.3536 34.6744 36.3536 34.3137C36.6409 33.3816 37.1024 32.5123 37.7135 31.7521ZM41.1923 27.5617C41.7997 28.3244 42.2607 29.1929 42.5522 30.1234C42.5728 30.3132 42.5531 30.5052 42.4945 30.6869C42.436 30.8687 42.3398 31.036 42.2122 31.1781C42.0847 31.3202 41.9287 31.4339 41.7543 31.5117C41.5799 31.5895 41.3911 31.6297 41.2002 31.6297C41.0093 31.6297 40.8205 31.5895 40.6461 31.5117C40.4717 31.4339 40.3157 31.3202 40.1882 31.1781C40.0606 31.036 39.9644 30.8687 39.9059 30.6869C39.8473 30.5052 39.8277 30.3132 39.8482 30.1234C40.1349 29.1941 40.5905 28.3256 41.1923 27.5617ZM36.6382 46.1101L41.9829 47.4858C42.5213 47.5562 43.0663 47.4187 43.507 47.1015C43.9476 46.7842 44.2508 46.3109 44.3549 45.778L45.0981 43.754L46.4105 40.8286L46.8058 37.2865L48.8299 37.0335H48.9089C48.9629 37.0413 49.018 37.0367 49.07 37.0203C49.122 37.0039 49.1696 36.976 49.2094 36.9387C49.3069 36.8647 49.3743 36.758 49.3991 36.6382L47.5965 29.8071V29.6648C48.1298 27.6653 48.1786 25.5674 47.7388 23.5452C46.1575 23.8299 40.5123 24.0196 38.1721 25.1265C36.5908 25.8223 35.5629 29.0165 35.5629 29.0165C35.1234 28.8034 34.6378 28.7031 34.1498 28.7247C33.6618 28.7463 33.1869 28.889 32.768 29.1401C32.349 29.3912 31.9991 29.7426 31.75 30.1628C31.5009 30.5829 31.3603 31.0584 31.3409 31.5465C31.1785 32.192 31.1565 32.8649 31.2765 33.5196C31.3966 34.1744 31.6558 34.7957 32.0367 35.3416L27.4352 40.2435C27.0715 40.623 26.5339 41.1132 26.0595 41.5244C26.0669 41.5715 26.0669 41.6195 26.0595 41.6667L22.8969 49.3833C24.8653 51.0356 27.0523 52.4085 29.396 53.463L29.7122 53.5895L31.0563 54.143C32.4499 54.6587 33.883 55.0606 35.3416 55.3447L34.4561 53.0835L36.6382 46.1101Z" fill="white"/>
<path fill-rule="evenodd" clip-rule="evenodd" d="M22.5965 36.6698C22.6599 36.8303 22.7393 36.9839 22.8336 37.1284C21.8635 34.6833 21.1945 32.1292 20.8412 29.5225C20.9916 31.9911 21.5862 34.4124 22.5965 36.6698Z" fill="#1F351B"/>
<path fill-rule="evenodd" clip-rule="evenodd" d="M40.9235 14.9431C40.2601 14.7021 39.5845 14.4962 38.8994 14.3264L40.9077 14.9589L40.9235 14.9431Z" fill="#1F351B"/>
<path fill-rule="evenodd" clip-rule="evenodd" d="M22.8178 49.3991L25.9804 41.6825C25.9878 41.6353 25.9878 41.5873 25.9804 41.5402L25.0791 42.315L24.7786 41.7457L21.5054 49.6521L22.2802 49.067L22.8178 49.3991Z" fill="#1F351B"/>
<path fill-rule="evenodd" clip-rule="evenodd" d="M29.3169 53.4788L30.993 54.1588L29.6332 53.6844L29.3169 53.4788Z" fill="#1F351B"/>
<path fill-rule="evenodd" clip-rule="evenodd" d="M48.1025 23.4504C47.9996 23.5047 47.8865 23.537 47.7704 23.5452C48.2102 25.5674 48.1614 27.6653 47.6281 29.6648V29.8071L49.494 36.6224C49.4691 36.7422 49.4017 36.8489 49.3042 36.9228C49.2645 36.9602 49.2168 36.9881 49.1648 37.0045C49.1128 37.0209 49.0578 37.0254 49.0038 37.0177H48.9247L46.9007 37.2707L46.5212 40.8128L45.1929 43.7381L44.3548 45.778C44.2233 46.2969 43.9016 46.7475 43.4535 47.0404C43.0054 47.3332 42.4636 47.4471 41.9355 47.3593L36.5908 45.9836L34.3295 52.9728L35.215 55.234C35.9424 55.3605 36.3694 55.408 36.4326 55.408L35.468 52.9254L37.3498 47.3593L41.7457 48.4978C42.5559 48.6427 43.3906 48.4661 44.0726 48.0055C44.7547 47.545 45.2303 46.8366 45.3985 46.031L46.1417 44.1967L47.5174 41.0342L47.8336 38.172L48.8615 38.0455C49.1018 38.0593 49.3421 38.0181 49.5641 37.9249C49.7861 37.8317 49.9838 37.6891 50.1423 37.5079C50.2943 37.3484 50.4042 37.1536 50.4622 36.9411C50.5202 36.7285 50.5243 36.5049 50.4744 36.2903L48.6875 29.7438C49.2329 27.5262 49.2329 25.2094 48.6875 22.9918C48.5045 23.1594 48.3089 23.3127 48.1025 23.4504Z" fill="#1F351B"/>
<path fill-rule="evenodd" clip-rule="evenodd" d="M26.0595 41.4769C26.5338 41.0658 27.0715 40.5756 27.4352 40.1961L32.0367 35.2941C31.6558 34.7482 31.3966 34.1269 31.2765 33.4722C31.1565 32.8174 31.1785 32.1446 31.3409 31.499C31.3604 31.008 31.5027 30.5297 31.7546 30.1078C32.0065 29.6859 32.3602 29.3339 32.7832 29.0838C33.2062 28.8338 33.6852 28.6937 34.1763 28.6764C34.6674 28.6591 35.155 28.7651 35.5946 28.9848C35.5946 28.9848 36.6857 25.8223 38.2037 25.0949C40.544 24.0196 46.2524 23.8298 47.7704 23.5136C47.8807 23.5264 47.9922 23.5264 48.1025 23.5136C48.3206 23.3824 48.5317 23.2399 48.735 23.0866C49.4275 22.5444 49.9698 21.8341 50.3102 21.0231C50.6507 20.2121 50.7779 19.3275 50.68 18.4535C50.68 18.4535 46.2366 16.7457 42.0462 15.2909L41.0184 16.3346C40.9178 16.4355 40.7813 16.4924 40.6388 16.4927C40.4992 16.4934 40.3641 16.4428 40.2593 16.3504C40.1589 16.2496 40.1025 16.1132 40.1025 15.9709C40.1025 15.8286 40.1589 15.6922 40.2593 15.5914L40.9235 14.9114L38.9153 14.2789H38.6781C38.5353 14.6674 38.3147 15.0225 38.0297 15.3226L36.9703 16.3978C36.921 16.4485 36.862 16.4887 36.7968 16.5159C36.7315 16.543 36.6614 16.5567 36.5908 16.556C36.5237 16.5575 36.4571 16.5457 36.3946 16.5213C36.3322 16.4969 36.2753 16.4603 36.2271 16.4137C36.1267 16.3129 36.0703 16.1764 36.0703 16.0341C36.0703 15.8919 36.1267 15.7554 36.2271 15.6546L37.2707 14.5794C37.4411 14.4134 37.5757 14.2143 37.666 13.9943C37.0177 13.8204 36.4485 13.678 35.9899 13.599L34.8672 13.425C34.8143 14.1304 34.5181 14.7956 34.0291 15.3068L32.9696 16.382C32.9216 16.4343 32.8628 16.4755 32.7973 16.5028C32.7317 16.5301 32.6611 16.5428 32.5901 16.5402C32.4838 16.5446 32.3787 16.5164 32.2888 16.4595C32.199 16.4025 32.1287 16.3194 32.0874 16.2213C32.0461 16.1232 32.0358 16.0149 32.0578 15.9107C32.0798 15.8066 32.1332 15.7118 32.2106 15.6388L33.2859 14.5636C33.5994 14.2376 33.7895 13.8127 33.8235 13.3618C26.7078 13.1562 22.0746 18.2163 20.9836 24.7312C20.7585 26.3044 20.7585 27.9017 20.9836 29.475C21.3441 32.0803 22.013 34.6335 22.976 37.081C23.5639 38.6361 24.2397 40.1565 25 41.635L25.3005 42.2043L26.0595 41.4769Z" fill="black"/>
<path fill-rule="evenodd" clip-rule="evenodd" d="M36.4484 55.5345C36.4484 55.5345 35.9582 55.5345 35.2309 55.3605C33.777 55.0782 32.349 54.6763 30.9614 54.1588L29.2853 53.4788C26.9416 52.4243 24.7546 51.0514 22.7862 49.3991L22.3593 48.9406L21.5844 49.5256C16.8064 53.1746 12.9772 57.9204 10.4206 63.3618C14.9645 68.117 20.6775 71.5955 26.988 73.4493C33.2984 75.303 39.9851 75.467 46.3789 73.9247C43.754 64.8482 36.4484 55.5345 36.4484 55.5345Z" fill="#2C2E31"/>
<path fill-rule="evenodd" clip-rule="evenodd" d="M57.5111 58.1436C57.0417 58.1403 56.5853 57.9891 56.207 57.7113C55.8286 57.4335 55.5476 57.0434 55.4039 56.5966C55.2602 56.1497 55.2612 55.6689 55.4067 55.2227C55.5522 54.7765 55.8349 54.3875 56.2144 54.1113L56.7046 53.7476V41.8564C56.7046 41.7512 56.7256 41.6471 56.7663 41.5502C56.807 41.4532 56.8666 41.3653 56.9417 41.2917C57.0168 41.2181 57.1059 41.1601 57.2036 41.1214C57.3014 41.0826 57.4059 41.0637 57.5111 41.0658C57.7207 41.0658 57.9219 41.1491 58.0701 41.2973C58.2184 41.4456 58.3017 41.6467 58.3017 41.8564V53.6844L58.8077 54.0481C59.0957 54.2524 59.3307 54.5226 59.493 54.8362C59.6553 55.1498 59.7402 55.4976 59.7407 55.8507C59.7407 56.442 59.5058 57.0092 59.0876 57.4273C58.6695 57.8454 58.1024 58.0803 57.5111 58.0803V58.1436ZM59.5035 53.1309V37.0651C59.5035 36.5367 59.2936 36.0299 58.9199 35.6563C58.5463 35.2826 58.0395 35.0727 57.5111 35.0727C56.9826 35.0727 56.4759 35.2826 56.1022 35.6563C55.7286 36.0299 55.5187 36.5367 55.5187 37.0651V53.1309C54.9315 53.5526 54.4933 54.1497 54.267 54.8363C54.0408 55.5229 54.0383 56.2636 54.2598 56.9517C54.4813 57.6398 54.9154 58.2399 55.4997 58.6656C56.0839 59.0914 56.7882 59.3207 57.5111 59.3207C58.234 59.3207 58.9382 59.0914 59.5225 58.6656C60.1067 58.2399 60.5408 57.6398 60.7623 56.9517C60.9838 56.2636 60.9813 55.5229 60.7551 54.8363C60.5289 54.1497 60.0906 53.5526 59.5035 53.1309Z" fill="white"/>
<path fill-rule="evenodd" clip-rule="evenodd" d="M57.5111 59.3453C56.7867 59.3422 56.0819 59.1099 55.4976 58.6817C54.9133 58.2535 54.4795 57.6514 54.2583 56.9616C54.0371 56.2718 54.04 55.5297 54.2664 54.8416C54.4928 54.1535 54.9311 53.5547 55.5187 53.1309V37.0651C55.5187 36.5367 55.7286 36.0299 56.1022 35.6563C56.4759 35.2826 56.9827 35.0727 57.5111 35.0727C58.0395 35.0727 58.5463 35.2826 58.9199 35.6563C59.2936 36.0299 59.5035 36.5367 59.5035 37.0651V53.1309C59.947 53.4462 60.3079 53.8638 60.5557 54.3483C60.8034 54.8328 60.9307 55.3698 60.9266 55.914C60.9267 56.8213 60.5673 57.6917 59.9272 58.3347C59.2871 58.9778 58.4184 59.3412 57.5111 59.3453ZM60.4048 52.704V37.0651C60.4048 36.2977 60.0999 35.5616 59.5573 35.019C59.0146 34.4763 58.2786 34.1714 57.5111 34.1714C56.7436 34.1714 56.0076 34.4763 55.4649 35.019C54.9222 35.5616 54.6173 36.2977 54.6173 37.0651V52.704C54.1766 53.1059 53.8229 53.5939 53.5782 54.1378C53.3334 54.6818 53.2027 55.2701 53.1942 55.8665C53.1942 57.0114 53.649 58.1095 54.4586 58.919C55.2682 59.7286 56.3662 60.1834 57.5111 60.1834C58.656 60.1834 59.754 59.7286 60.5636 58.919C61.3732 58.1095 61.828 57.0114 61.828 55.8665C61.8195 55.2701 61.6888 54.6818 61.444 54.1378C61.1992 53.5939 60.8456 53.1059 60.4048 52.704Z" fill="#1F351B"/>
<path fill-rule="evenodd" clip-rule="evenodd" d="M58.8077 54.1113L58.3017 53.6844V41.8564C58.3017 41.6467 58.2184 41.4456 58.0701 41.2974C57.9219 41.1491 57.7208 41.0658 57.5111 41.0658C57.4059 41.0637 57.3014 41.0826 57.2037 41.1214C57.1059 41.1602 57.0169 41.2181 56.9418 41.2917C56.8667 41.3653 56.807 41.4532 56.7663 41.5502C56.7256 41.6471 56.7046 41.7513 56.7046 41.8564V53.6844L56.2144 54.0481C55.8349 54.3243 55.5523 54.7132 55.4067 55.1595C55.2612 55.6057 55.2602 56.0865 55.4039 56.5333C55.5476 56.9802 55.8286 57.3703 56.207 57.6481C56.5853 57.9258 57.0417 58.0771 57.5111 58.0803C58.1024 58.0803 58.6695 57.8454 59.0876 57.4273C59.5058 57.0092 59.7407 56.4421 59.7407 55.8507C59.7303 55.5084 59.6407 55.1731 59.4788 54.8713C59.3169 54.5695 59.0872 54.3093 58.8077 54.1113Z" fill="#F9A134"/>
<path fill-rule="evenodd" clip-rule="evenodd" d="M33.2859 14.5635L32.2264 15.6388C32.1489 15.7117 32.0956 15.8066 32.0736 15.9107C32.0516 16.0148 32.0619 16.1232 32.1032 16.2213C32.1445 16.3193 32.2148 16.4025 32.3046 16.4594C32.3945 16.5164 32.4996 16.5446 32.6059 16.5401C32.6769 16.5428 32.7475 16.5301 32.8131 16.5028C32.8786 16.4755 32.9374 16.4343 32.9854 16.382L34.0449 15.3067C34.5849 14.7492 34.8869 14.0035 34.8869 13.2274C34.8869 12.4512 34.5849 11.7055 34.0449 11.148C33.6962 10.7906 33.5011 10.3111 33.5011 9.8118C33.5011 9.31251 33.6962 8.833 34.0449 8.47562L34.8514 7.65336C34.9518 7.55259 35.0082 7.41612 35.0082 7.27385C35.0082 7.13159 34.9518 6.99512 34.8514 6.89435C34.7506 6.79392 34.6141 6.73753 34.4718 6.73753C34.3296 6.73753 34.1931 6.79392 34.0923 6.89435L33.2859 7.73242C32.7384 8.286 32.4313 9.03319 32.4313 9.8118C32.4313 10.5904 32.7384 11.3376 33.2859 11.8912C33.6346 12.2486 33.8297 12.7281 33.8297 13.2274C33.8297 13.7267 33.6346 14.2062 33.2859 14.5635Z" fill="white"/>
<path fill-rule="evenodd" clip-rule="evenodd" d="M37.2391 14.5635L36.1954 15.6388C36.095 15.7396 36.0386 15.8761 36.0386 16.0183C36.0386 16.1606 36.095 16.2971 36.1954 16.3978C36.2436 16.4445 36.3006 16.4811 36.363 16.5055C36.4254 16.5299 36.4921 16.5417 36.5591 16.5401C36.6298 16.5409 36.6999 16.5272 36.7651 16.5C36.8304 16.4728 36.8894 16.4327 36.9386 16.382L38.0297 15.3067C38.3147 15.0067 38.5353 14.6515 38.6781 14.2631C38.8861 13.7295 38.9356 13.1472 38.8206 12.5862C38.7056 12.0251 38.4309 11.5092 38.0297 11.1005C37.681 10.7432 37.4859 10.2637 37.4859 9.76437C37.4859 9.26507 37.681 8.78556 38.0297 8.42819L38.8362 7.60592C38.9366 7.50515 38.993 7.36868 38.993 7.22641C38.993 7.08415 38.9366 6.94768 38.8362 6.84691C38.7888 6.79565 38.7313 6.75474 38.6674 6.72677C38.6034 6.69879 38.5344 6.68435 38.4646 6.68435C38.3948 6.68435 38.3257 6.69879 38.2618 6.72677C38.1978 6.75474 38.1404 6.79565 38.093 6.84691L37.2707 7.66917C36.7307 8.22667 36.4287 8.97239 36.4287 9.74855C36.4287 10.5247 36.7307 11.2704 37.2707 11.8279C37.5392 12.0955 37.7206 12.438 37.7911 12.8105C37.8616 13.1829 37.818 13.568 37.666 13.9152C37.5744 14.1607 37.4284 14.3824 37.2391 14.5635Z" fill="white"/>
<path fill-rule="evenodd" clip-rule="evenodd" d="M40.2435 15.6389C40.1431 15.7396 40.0867 15.8761 40.0867 16.0184C40.0867 16.1606 40.1431 16.2971 40.2435 16.3979C40.3483 16.4903 40.4833 16.5409 40.623 16.5402C40.7655 16.5398 40.902 16.483 41.0025 16.3821L42.0304 15.3384C42.5779 14.7848 42.885 14.0376 42.885 13.259C42.885 12.4804 42.5779 11.7332 42.0304 11.1797C41.6817 10.8223 41.4865 10.3428 41.4865 9.84347C41.4865 9.34418 41.6817 8.86467 42.0304 8.50729L42.8526 7.68503C42.953 7.58426 43.0094 7.44779 43.0094 7.30552C43.0094 7.16326 42.953 7.02679 42.8526 6.92602C42.8052 6.87476 42.7478 6.83385 42.6838 6.80588C42.6199 6.7779 42.5508 6.76346 42.481 6.76346C42.4112 6.76346 42.3422 6.7779 42.2782 6.80588C42.2143 6.83385 42.1568 6.87476 42.1094 6.92602L41.2872 7.74828C40.7471 8.30577 40.4452 9.0515 40.4452 9.82766C40.4452 10.6038 40.7471 11.3495 41.2872 11.907C41.6358 12.2644 41.831 12.7439 41.831 13.2432C41.831 13.7425 41.6358 14.222 41.2872 14.5794L40.9235 14.9589L40.2435 15.6389Z" fill="white"/>
<path fill-rule="evenodd" clip-rule="evenodd" d="M41.1923 31.5465C41.5529 31.5465 41.8988 31.4032 42.1539 31.1482C42.4089 30.8931 42.5522 30.5472 42.5522 30.1866C42.2679 29.2339 41.8066 28.3434 41.1923 27.5617C40.5905 28.3256 40.1349 29.194 39.8482 30.1233C39.8397 30.3058 39.868 30.4882 39.9316 30.6595C39.9951 30.8308 40.0925 30.9876 40.218 31.1204C40.3434 31.2532 40.4943 31.3594 40.6617 31.4326C40.8291 31.5058 41.0096 31.5446 41.1923 31.5465Z" fill="#334F25"/>
<path fill-rule="evenodd" clip-rule="evenodd" d="M37.7135 35.6578C38.0714 35.6578 38.4149 35.5167 38.6695 35.2651C38.9241 35.0135 39.0692 34.6716 39.0734 34.3137C38.786 33.3815 38.3246 32.5123 37.7135 31.752C37.1023 32.5123 36.6409 33.3815 36.3536 34.3137C36.3577 34.6716 36.5028 35.0135 36.7574 35.2651C37.012 35.5167 37.3555 35.6578 37.7135 35.6578Z" fill="#334F25"/>
</g>
<defs>
<clipPath id="clip0_534_525">
<rect width="75" height="75" fill="white"/>
</clipPath>
</defs>
</svg>
