<svg width="75" height="75" viewBox="0 0 75 75" fill="none" xmlns="http://www.w3.org/2000/svg">
<rect width="75" height="75" rx="37.5" fill="#0075FF"/>
<path d="M33.7792 37.7201L39.1279 32.3167C39.4057 31.9471 39.18 30.3807 39.041 29.4302C38.9542 28.8142 38.8674 28.3038 38.8847 27.9694C39.0237 23.7453 39.7357 21.95 41.2639 19.5036C42.8442 16.9867 45.2927 15.209 48.1407 14.4874C51.0061 13.7658 53.9583 14.2058 56.4763 15.7195C56.6674 15.8251 56.841 15.9483 57.0147 16.0715C59.9321 17.9899 61.7903 20.6124 62.2765 23.4461C62.728 26.051 61.9639 28.779 60.0884 31.3311L58.786 36.9633C58.7513 37.2273 58.5255 37.4913 58.2129 37.6497C57.8482 37.8257 57.4662 37.8081 57.1536 37.5969L56.32 37.0513L52.76 41.5042C51.9959 42.5778 50.5372 42.8594 49.4258 42.1378L49.4084 42.1202L46.8383 39.7441L41.8543 46.0099L34.2654 47.2068L33.7792 37.7201Z" fill="white"/>
<path d="M33.9703 47.5764L33.4494 37.5793L38.8675 32.0879C39.0412 31.7711 38.7807 30.0287 38.7112 29.4655C38.6244 28.8319 38.5375 28.3038 38.5549 27.9518C38.6938 23.6397 39.4232 21.8093 40.9861 19.3276C42.6185 16.7403 45.1192 14.9099 48.054 14.1706C51.0062 13.4314 54.0452 13.8714 56.6501 15.4379C56.8411 15.5435 57.0322 15.6667 57.2058 15.7899C60.1927 17.7611 62.1203 20.454 62.624 23.3757C63.0928 26.051 62.3287 28.8495 60.4185 31.4543L59.1334 36.9985C59.0813 37.3681 58.7861 37.7201 58.3867 37.9137C57.9178 38.1425 57.4142 38.1249 56.9974 37.8433L56.407 37.4561L53.038 41.6626C52.1697 42.8771 50.5026 43.1763 49.2696 42.3666L49.2002 42.3138L46.8905 40.1666L42.0454 46.274L33.9703 47.5764ZM34.1266 37.8433L34.5955 46.8196L41.6981 45.6931L46.821 39.2338L49.6343 41.8386C50.5894 42.4546 51.8571 42.2258 52.517 41.293L52.5344 41.2754L56.2681 36.5937L57.3447 37.2977C57.5705 37.4385 57.831 37.4561 58.0741 37.3153C58.3172 37.1921 58.4388 37.0161 58.4562 36.8929V36.8577L59.776 31.1551L59.8107 31.1023C61.6341 28.6383 62.3808 25.9982 61.9467 23.4813C61.4778 20.7356 59.6544 18.2012 56.8238 16.3355C56.6501 16.2123 56.4764 16.1067 56.2854 16.0011C53.8542 14.5402 50.9715 14.1002 48.1929 14.8043C45.4318 15.4907 43.0527 17.2331 41.5245 19.6796C40.031 22.0733 39.3364 23.8333 39.1974 27.9694C39.1801 28.2686 39.2669 28.7967 39.3537 29.3599C39.6142 31.0847 39.6837 32.1055 39.3885 32.4928L39.3537 32.528L34.1266 37.8433Z" fill="#052A39"/>
<path d="M38.6243 32.8448C38.6243 32.8448 37.9123 23.8158 41.3333 18.5004C44.546 13.5371 50.3288 11.2842 56.0422 15.0859C58.5602 16.7756 65.3156 23.5341 65.3156 23.5341C65.3156 23.5341 64.6036 26.139 61.8077 26.4382C61.2693 26.491 56.2853 24.379 53.9757 24.4318C52.6385 24.4494 50.7977 26.491 50.7977 26.491C50.7977 26.491 48.6444 24.1854 46.8383 26.9838C45.7095 28.7439 46.1263 30.0463 46.1263 30.0463C46.1263 30.0463 42.3927 31.6656 41.1597 32.1936C40.3782 32.528 38.6243 32.8448 38.6243 32.8448Z" fill="#052A39"/>
<path d="M61.0958 34.5696L61.1652 34.552L62.6239 34.0416L62.7802 33.7072L62.4677 33.5488L61.0089 34.0768L60.8526 34.3936L61.0958 34.5696Z" fill="#02567F"/>
<path d="M62.7627 35.08L61.4082 34.8512L61.113 35.08L61.3214 35.3616L62.6759 35.5728L62.728 35.5904L62.9711 35.3616L62.7627 35.08Z" fill="#02567F"/>
<path d="M60.9742 35.7488L60.6269 35.8017L60.679 36.1537L61.912 37.1041L62.0857 37.1569L62.2767 37.0513L62.2246 36.6993L60.9742 35.7488Z" fill="#02567F"/>
<path d="M36.5752 31.1376C36.8531 31.1376 37.3219 31.1552 37.7561 31.2432C38.4681 31.384 39.0759 31.736 38.5723 32.5281C38.1902 33.1617 37.4782 33.7073 36.9573 34.2353C36.2453 34.9393 35.4812 35.6257 34.7692 36.3298C34.335 36.7522 33.6925 37.2978 33.5362 37.9138C33.5015 38.0722 33.5188 38.4594 33.6404 38.565C35.4291 40.1491 47.3073 38.7058 49.096 40.2899C50.6415 41.6803 52.2045 43.0532 53.7327 44.4612C54.0626 44.7604 55.6776 45.8516 55.7124 46.3445C55.7297 46.6613 54.0452 49.935 52.9686 50.8326C52.2303 51.436 50.2021 64.8401 49 73.2074C34.2033 76.4264 26.3666 75.2061 13.4161 66.2422C16.7156 60.2862 21.6586 50.2632 21.5711 50.4278C21.4496 50.6566 11.3079 60.5481 11.3079 60.5481L5.17795 55.5C6.09264 53.6955 5.45455 52.8955 7.60901 49.8998C9.91867 46.6789 13.9649 39.4803 16.674 36.5586C16.9171 36.2946 17.1602 36.0482 17.4207 35.8194C21.8664 31.7536 30.7924 31.208 36.5752 31.1376Z" fill="#02567F"/>
<path d="M8.5294 50.058C8.80726 49.9348 9.06774 49.794 9.3456 49.6708L13.0966 47.8579L13.1661 47.8227C13.9302 48.6852 14.7116 49.5476 15.4931 50.41L15.4931 50.41C15.962 50.938 16.4309 51.4484 16.8997 51.9765L17.056 52.1525C17.056 52.3285 17.1081 52.7333 17.1081 52.7861C17.1255 53.4725 17.1602 54.1589 17.195 54.8453C16.2051 55.8486 15.1979 56.8518 14.208 57.855C13.5134 58.559 12.8014 59.2631 12.1068 59.9671C11.881 60.2135 11.6379 60.4423 11.4121 60.6711L11.2385 60.8471L11.169 60.9175C10.6145 61.4455 10.0579 61.9724 9.5 62.4986C7.79193 60.4744 6.76748 59.0853 4.74365 55.8662C5.87243 54.0357 6.98385 52.2229 8.09526 50.3924L8.18209 50.234L8.5294 50.058Z" fill="white"/>
<path d="M17.0733 52.1867L17.0906 52.1174L17.0733 52.1867Z" fill="white"/>
<path d="M7.62631 49.8821C7.78261 49.6005 8.07783 49.5301 8.37304 49.3893C9.9707 48.6325 11.551 47.8933 13.0965 47.2244L13.4786 47.33L13.6523 47.5237L16.3787 50.5509C16.7434 50.9558 17.1254 51.3782 17.4901 51.783C17.7159 52.047 17.6985 52.2934 17.7159 52.6454C17.7506 53.3494 17.7853 54.071 17.8201 54.7751C17.8374 54.9511 17.8722 55.1447 17.768 55.3031L17.5943 55.4791C16.726 56.3415 15.8751 57.2215 15.0068 58.084C13.7391 59.3512 12.5061 60.636 11.2037 61.8681C10.8025 62.2488 10.4013 62.6295 10 63.0101L9.55328 62.5C10.0991 61.9851 10.6437 61.4695 11.1863 60.9528L11.2558 60.8824L11.4294 60.7064C11.6552 60.4776 11.8983 60.2488 12.1241 60.02C12.8187 59.316 13.5307 58.612 14.2253 57.908C15.2152 56.9047 16.2224 55.9015 17.2123 54.8983C17.1949 54.2119 17.1602 53.5255 17.1254 52.8391L17.1254 52.839C17.1254 52.7862 17.0733 52.3814 17.0733 52.2054L16.917 52.0294C16.4482 51.5014 15.9793 50.991 15.5104 50.4629C14.7289 49.6005 13.9648 48.7381 13.1834 47.8581L13.1139 47.8933L9.34553 49.6709C9.06768 49.7941 8.80719 49.9349 8.52934 50.0581L8.18202 50.2341L8.07783 50.3925C6.95266 52.2171 5.84476 54.0242 4.73691 55.8487L4.42973 55.1083C5.25214 53.7577 6.07454 52.4158 6.89695 51.0614C7.14007 50.6741 7.38319 50.2693 7.62631 49.8821Z" fill="#052A39"/>
<path d="M7.14011 49.0374C7.1922 50.9207 11.2211 52.4871 12.5582 53.42C12.9577 53.7016 16.9344 56.7465 17.3686 56.324C17.7854 55.9016 22.0226 50.6919 21.9358 50.2871C21.5537 48.6326 20.3902 46.855 19.6088 45.3589C19.3483 44.8661 18.8968 43.5637 18.3758 43.2821C14.729 41.3988 14.9895 39.3219 12.7493 41.962C12.4193 42.3492 7.14011 48.6854 7.14011 49.0374Z" fill="#02567F"/>
<path d="M54.8786 30.9791C54.3055 30.7679 53.8019 30.4159 53.5067 29.9759L53.5935 29.5535L53.993 29.6239C54.4445 30.3103 55.6253 30.7327 56.4068 30.4863C56.5631 30.4335 56.7194 30.5215 56.7715 30.6975C56.8236 30.8559 56.7194 31.0319 56.5631 31.0847C56.0595 31.2255 55.4343 31.1727 54.8786 30.9791Z" fill="#052A39"/>
<path d="M55.2607 28.7791C54.6529 28.1807 54.0972 27.5295 53.7846 27.0015C53.6804 26.8431 53.7152 26.7375 53.8541 26.7903C53.993 26.8431 54.184 27.0015 54.2882 27.1775C54.7745 27.9871 56.0595 29.2543 56.8757 29.712C57.032 29.8 57.2057 29.9936 57.2578 30.1344C57.3099 30.2752 57.223 30.3104 57.0494 30.2224C56.5284 29.9056 55.8685 29.3775 55.2607 28.7791Z" fill="#052A39"/>
<path d="M51.7183 52.9974C51.892 52.5398 53.6459 49.6533 58.1263 49.4421C62.6067 49.2309 56.6155 46.098 56.3376 45.6404C56.0598 45.1828 50.4332 49.8293 50.4332 50.0405C50.4332 50.2341 51.7183 52.9974 51.7183 52.9974Z" fill="#02567F"/>
<path d="M24.8532 40.2194L24.8708 40.1843L24.8532 40.2194Z" fill="white"/>
<path d="M40.4476 41.9969L40.465 41.9796L40.3957 42.0142L40.4476 41.9969Z" fill="white"/>
<path d="M40.5866 41.7155L40.604 41.6803L40.5519 41.5395L40.5866 41.7155Z" fill="white"/>
<path d="M62.9017 39.533C62.6586 39.3394 62.4155 39.1458 62.1724 38.9522L61.8598 38.7058L61.6688 38.6882C59.498 38.477 57.3099 38.2834 55.1392 38.0722C51.9439 37.773 48.7312 37.4737 45.5359 37.1745C43.8514 37.0161 42.1496 36.8929 40.4824 36.6993C39.4058 36.5761 38.3464 36.3825 37.2698 36.1889C36.4709 36.0481 35.6721 35.9073 34.8906 35.7137C34.4912 35.6257 33.9182 35.5377 33.5535 35.2561L30.0282 35.0273C29.6462 35.0097 29.2641 35.0273 28.8821 35.0625L28.4653 35.0977C28.2916 35.2913 27.9964 35.4497 27.788 35.6081C27.5449 35.8017 27.3018 35.9953 27.0413 36.1713L27.0239 36.1889L26.9371 36.3121L25.982 38.037C25.791 38.3714 25.5999 38.7058 25.4436 39.0578C25.2873 39.357 25.1484 39.6738 24.9921 39.973L24.9053 40.1842V40.2018C24.9921 41.0994 25.0095 41.9971 25.0616 42.8947C25.2179 42.8243 25.3742 42.7539 25.5131 42.6659C25.7736 42.4899 25.7562 42.1731 25.843 41.8915C25.9472 41.6099 26.2251 41.5395 26.4856 41.4163C26.6592 41.3459 26.8155 41.2578 26.9892 41.1874C27.5275 40.9586 28.0832 40.765 28.6389 40.5538L29.5767 40.2018L29.9935 40.061C30.4624 40.0082 30.966 40.0962 31.4348 40.1138C31.5043 39.7442 32.1121 39.7266 32.1121 40.149L32.0774 41.9091C32.0774 42.1027 31.9558 42.2611 31.7474 42.2787C30.7923 42.3315 29.8372 42.4371 28.8994 42.6131C28.3785 42.7187 27.4928 42.8243 27.1629 43.2995C27.0413 43.4755 27.0587 43.7043 27.1455 43.8803C27.7533 43.8627 28.3437 43.8451 28.9515 43.8099C29.9761 43.7747 31.0007 43.7395 32.0426 43.7043C32.4073 43.6867 32.7894 43.6691 33.1541 43.6691L33.4493 43.6515C34.5086 43.1763 35.62 42.8243 36.6793 42.3315C37.4087 41.9795 38.086 41.6627 38.8848 41.5043C39.3537 41.4163 39.8225 41.3635 40.2914 41.3635L40.4998 41.4339L40.5693 41.4691L40.8124 41.5747C41.0902 41.6979 41.3681 41.8035 41.6459 41.9091C42.5663 42.2611 43.4694 42.6131 44.3898 42.9827C47.4288 44.1619 50.4678 45.3236 53.5242 46.4676L53.611 46.5028L53.8368 46.5908C54.1493 46.6964 54.4793 46.802 54.7919 46.9252L57.692 47.9284C59.0639 48.4037 60.4358 48.8789 61.8077 49.3541C62.4155 49.0021 63.0407 48.6677 63.6485 48.3156C63.7006 48.298 64.0479 48.0516 64.2042 47.9812L64.291 47.7524C64.5515 47.066 64.812 46.3972 65.0725 45.7108C65.5066 44.5843 65.9234 43.4579 66.3575 42.3315L66.3054 42.2963C65.1419 41.3459 64.0131 40.4306 62.9017 39.533Z" fill="white"/>
<path d="M64.152 47.9283L64.2213 47.9109L64.152 47.9283Z" fill="white"/>
<path d="M62.7106 38.4945C62.4501 38.2833 62.2418 38.0545 61.9118 38.0193C61.4429 37.9841 60.9741 37.9313 60.5052 37.8785C58.5949 37.7025 56.7021 37.5265 54.7918 37.3505C52.4127 37.1217 50.0336 36.9105 47.6371 36.6817C45.7616 36.5057 43.9034 36.3297 42.0279 36.1537C41.2638 36.0833 40.4997 36.0129 39.7356 35.8896C38.5721 35.7136 37.426 35.52 36.2798 35.2912C35.7415 35.1856 35.2032 35.08 34.6648 34.9392C34.4912 34.8864 34.2654 34.8336 34.1265 34.7808L33.9528 34.7104L33.8834 34.6752C33.6229 34.5168 33.2061 34.552 32.9109 34.5344C32.3378 34.4992 31.7821 34.464 31.2264 34.4112C30.4623 34.3584 29.7329 34.3056 28.9515 34.3408C28.7431 34.3584 28.5173 34.3408 28.3089 34.376C28.1526 34.3936 28.0484 34.4992 27.9269 34.5872C27.5101 34.904 27.0933 35.2208 26.6592 35.5376C26.416 35.7136 26.3118 35.9424 26.1729 36.2065C25.8951 36.7169 25.5999 37.2273 25.322 37.7377C24.94 38.4241 24.5753 39.1105 24.2453 39.8322C24.1064 40.1314 24.2106 40.5362 24.2279 40.853C24.2627 41.3458 24.28 41.8386 24.3148 42.3314L24.3669 43.3523C24.3842 43.5811 24.61 43.7219 24.8184 43.6691C25.2352 43.5459 25.6693 43.3875 26.0166 43.1059C26.2945 42.877 26.3639 42.5074 26.4508 42.1554C27.2843 41.7858 28.1353 41.4514 28.9862 41.1346C29.264 41.029 29.5245 40.9234 29.8024 40.8178L30.0281 40.7298C30.4623 40.8178 30.9312 40.7826 31.3653 40.7826C31.3653 41.0466 31.3479 41.3106 31.3479 41.5746C30.8617 41.6098 30.3755 41.6626 29.8892 41.7154C28.9862 41.8386 27.9616 41.9442 27.128 42.3842C26.3987 42.7538 26.1035 43.5635 26.5376 44.2851C26.7286 44.6195 27.0586 44.5315 27.3885 44.5139C28.7952 44.4611 30.2018 44.4083 31.6084 44.3731C32.1641 44.3555 32.7025 44.3379 33.2582 44.3203C33.5881 44.3027 33.8486 44.1971 34.1612 44.0739C35.2205 43.6691 36.2798 43.2467 37.3044 42.7186C38.1901 42.261 39.1626 42.0146 40.1524 42.0322L40.3087 42.1026C40.656 42.2434 41.0033 42.3842 41.3333 42.5074C42.5836 43.0003 43.8513 43.4755 45.1017 43.9683C47.6197 44.9363 50.1551 45.9043 52.6905 46.8548C54.4098 47.506 56.1637 48.0692 57.9003 48.6676C59.0812 49.0724 60.2794 49.4772 61.4603 49.8997L61.7034 49.9877C61.8944 50.0229 62.0507 49.882 62.207 49.794C62.8322 49.442 63.4747 49.0724 64.0999 48.7204C64.4125 48.5444 64.6382 48.4564 64.7772 48.122C64.9856 47.5764 65.1766 47.0484 65.385 46.5204C65.8886 45.2003 66.3922 43.8803 66.8958 42.5778L67 42.3138L66.9305 41.8914C65.5239 40.7826 64.1173 39.6386 62.7106 38.4945ZM24.8358 40.2194L24.8705 40.1842L24.8358 40.2194ZM40.4476 41.997L40.3955 42.0146L40.4476 41.9794V41.997ZM40.5866 41.7154L40.5518 41.5394L40.6039 41.6802L40.5866 41.7154ZM64.152 47.9284L64.2215 47.9108L64.152 47.9284ZM65.0203 45.6755C64.7598 46.3619 64.4993 47.0308 64.2388 47.7172L64.152 47.946C63.9957 48.0164 63.6484 48.2452 63.5963 48.2804C62.9885 48.6324 62.3633 48.9668 61.7555 49.3188C60.3836 48.8436 59.0117 48.3684 57.6398 47.8932L54.7571 46.89C54.4445 46.7844 54.1145 46.6788 53.802 46.5556L53.5762 46.4676L53.4894 46.4323C50.433 45.2883 47.394 44.1091 44.355 42.9475C43.4346 42.5954 42.5142 42.2434 41.6112 41.8738C41.3333 41.7682 41.0554 41.6626 40.7776 41.5394L40.5345 41.4338L40.465 41.3986L40.2566 41.3282C39.7877 41.3106 39.3015 41.381 38.85 41.469C38.0512 41.6098 37.3739 41.9442 36.6445 42.2962C35.5852 42.789 34.4738 43.1411 33.4145 43.6163H33.3971L33.1019 43.6515C32.7198 43.6691 32.3552 43.6691 31.9731 43.6867C30.9485 43.7219 29.9239 43.7571 28.882 43.7923C28.2742 43.8099 27.6837 43.8275 27.0759 43.8627C26.9891 43.6867 26.9718 43.4755 27.0933 43.2819C27.4233 42.8066 28.3089 42.701 28.8299 42.5954C29.7677 42.4194 30.7228 42.3138 31.6779 42.261C31.8689 42.2434 31.9905 42.085 32.0078 41.8914C32.0252 41.3106 32.0426 40.7122 32.0426 40.1314C32.0599 39.709 31.4521 39.7266 31.3653 40.0962C30.8964 40.061 30.3928 39.9906 29.9239 40.0434L29.5072 40.1842L28.5694 40.5362C28.0137 40.7474 27.458 40.941 26.9197 41.1698C26.746 41.2402 26.5723 41.3282 26.416 41.3986C26.1556 41.5218 25.8603 41.5746 25.7735 41.8738C25.6693 42.1554 25.704 42.4722 25.4436 42.6482C25.3046 42.7362 25.1483 42.8066 24.9921 42.877C24.94 41.9794 24.9226 41.0642 24.8358 40.1842V40.1666L24.9226 39.9554C25.0789 39.6562 25.2352 39.3393 25.3741 39.0401C25.5478 38.6881 25.7388 38.3537 25.9124 38.0193L26.8676 36.2945L26.937 36.1713L26.9544 36.1537C27.2149 35.9776 27.4406 35.784 27.7011 35.5904C27.9095 35.432 28.2047 35.2736 28.3784 35.08L28.7952 35.0448C29.1772 35.0272 29.5593 34.992 29.9413 35.0096L33.4492 35.2384C33.8139 35.5024 34.387 35.5904 34.7864 35.696C35.5678 35.8896 36.3667 36.0305 37.1655 36.1713C38.2248 36.3649 39.3015 36.5585 40.3782 36.6817C42.0627 36.8753 43.7471 36.9985 45.449 37.1569C48.6443 37.4561 51.857 37.7553 55.0523 38.0545C57.223 38.2657 59.4111 38.4593 61.5819 38.6705L61.7729 38.6881L62.0855 38.9345C62.3286 39.1281 62.5717 39.3217 62.8148 39.5154C63.9436 40.413 65.055 41.3282 66.1838 42.2258L66.2359 42.261C65.8712 43.4227 65.4544 44.5491 65.0203 45.6755Z" fill="#052A39"/>
</svg>
