<svg width="75" height="74" viewBox="0 0 75 74" fill="none" xmlns="http://www.w3.org/2000/svg">
<rect width="75" height="74" rx="37" fill="#0075FF"/>
<path d="M31.3807 52.2991C29.6293 51.4161 28.0942 50.1575 26.885 48.6131L27.1194 48.4319V39.9093C27.1194 39.9093 30.3154 38.8439 37.7727 38.8439C45.2301 38.8439 48.4261 39.9093 48.4261 39.9093V48.4319L48.6605 48.6131C47.4513 50.1575 45.9162 51.4161 44.1647 52.2991C42.1708 53.2597 39.986 53.7586 37.7727 53.7586C35.5595 53.7586 33.3747 53.2597 31.3807 52.2991Z" fill="#F5F5F5"/>
<path d="M30.3154 37.7786C31.4921 37.7786 32.446 36.3477 32.446 34.5826C32.446 32.8175 31.4921 31.3866 30.3154 31.3866C29.1386 31.3866 28.1847 32.8175 28.1847 34.5826C28.1847 36.3477 29.1386 37.7786 30.3154 37.7786Z" fill="#351F0D"/>
<path d="M45.2301 37.7786C46.4069 37.7786 47.3608 36.3477 47.3608 34.5826C47.3608 32.8175 46.4069 31.3866 45.2301 31.3866C44.0534 31.3866 43.0994 32.8175 43.0994 34.5826C43.0994 36.3477 44.0534 37.7786 45.2301 37.7786Z" fill="#351F0D"/>
<path d="M42.0235 20.7546C41.7039 21.1913 36.4731 28.1906 29.2501 28.1906V21.7986L22.8581 27.1253V32.4519H20.7274C20.1628 32.4536 19.6219 32.6786 19.2227 33.0779C18.8234 33.4771 18.5984 34.018 18.5967 34.5826V35.6479C18.624 36.7909 18.9911 37.8999 19.6514 38.8333C19.3318 38.7054 14.3354 36.5428 14.3354 31.3866C14.3957 29.7441 14.8073 28.1335 15.5423 26.6634C16.2774 25.1933 17.3189 23.8977 18.5967 22.8639C16.812 22.9013 15.0551 22.4173 13.5413 21.4712C12.0275 20.5251 10.8225 19.1579 10.0741 17.5372C10.0741 17.5372 18.5967 16.4719 22.8581 14.3412C27.1194 12.2106 29.2501 9.01456 37.7728 9.01456C39.8507 8.95101 41.9119 9.40445 43.7713 10.3342C45.6307 11.2639 47.2302 12.6408 48.4261 14.3412C48.8755 13.6322 49.5098 13.0591 50.2607 12.6837C51.0115 12.3082 51.8506 12.1447 52.6875 12.2106C55.8835 12.2106 61.2101 14.3412 61.2101 20.7332V29.8951C61.2103 30.8638 60.8796 31.8035 60.2726 32.5585L56.9488 36.7133L56.8316 36.7239C56.908 36.3703 56.9473 36.0097 56.9488 35.6479V34.5826C56.9471 34.018 56.7221 33.4771 56.3229 33.0779C55.9237 32.6786 55.3827 32.4536 54.8181 32.4519H52.6875V28.1906C47.3608 28.1906 47.3608 19.6679 47.3608 19.6679C47.3608 19.6679 44.1648 24.9946 40.9688 24.9946L42.0235 20.7546Z" fill="#28180B"/>
<path d="M54.8181 32.4519H52.6874V28.1906C47.3607 28.1906 47.3607 19.6679 47.3607 19.6679C47.3607 19.6679 44.1647 24.9946 40.9687 24.9946L42.0234 20.7545C41.7038 21.1913 36.473 28.1906 29.25 28.1906V21.7986L22.858 27.1252V32.4519H20.7274C20.1628 32.4536 19.6218 32.6786 19.2226 33.0778C18.8234 33.477 18.5984 34.018 18.5967 34.5826V35.6479C18.6239 36.7909 18.9911 37.8999 19.6514 38.8333L19.662 38.8439C20.6897 40.3514 22.1884 41.4754 23.9234 42.0399C24.3766 44.4344 25.3917 46.6872 26.885 48.613L27.1194 48.4319V39.9092C27.1194 39.9092 30.3154 38.8439 37.7727 38.8439C45.2301 38.8439 48.4261 39.9092 48.4261 39.9092V48.4319L48.6604 48.613C50.1538 46.6872 51.1688 44.4344 51.6221 42.0399C52.8606 41.6504 53.9839 40.9616 54.8926 40.0343C55.8012 39.107 56.4672 37.97 56.8316 36.7239C56.9079 36.3703 56.9472 36.0097 56.9487 35.6479V34.5826C56.9471 34.018 56.722 33.477 56.3228 33.0778C55.9236 32.6786 55.3826 32.4536 54.8181 32.4519ZM30.3154 37.7786C29.1435 37.7786 28.1847 36.351 28.1847 34.5826C28.1847 32.8141 29.1435 31.3866 30.3154 31.3866C31.4872 31.3866 32.446 32.8141 32.446 34.5826C32.446 36.351 31.4872 37.7786 30.3154 37.7786ZM45.2301 37.7786C44.0582 37.7786 43.0994 36.351 43.0994 34.5826C43.0994 32.8141 44.0582 31.3866 45.2301 31.3866C46.4019 31.3866 47.3607 32.8141 47.3607 34.5826C47.3607 36.351 46.4019 37.7786 45.2301 37.7786Z" fill="#F2C4B2"/>
<path d="M44.1648 57.4021C44.1645 57.7587 44.2542 58.1097 44.4255 58.4226C44.5968 58.7354 44.8442 59 45.1449 59.1918C44.7294 59.7458 42.5135 62.2813 37.7728 62.2813C33.032 62.2813 30.8161 59.7458 30.4007 59.1918C30.7013 59 30.9488 58.7354 31.1201 58.4226C31.2914 58.1097 31.381 57.7587 31.3808 57.4021V52.2991C33.3747 53.2597 35.5595 53.7586 37.7728 53.7586C39.986 53.7586 42.1708 53.2597 44.1648 52.2991V57.4021Z" fill="#F2B59D"/>
<path d="M29.7401 59.4795L13.9199 63.2401C13.1742 63.4187 12.4722 63.7284 11.8443 64.1497C11.8443 64.1497 20.5 74 38 74C55.5 74 63.3737 63.944 63.3737 63.944C62.8326 63.6266 62.2441 63.3883 61.6256 63.2401L45.8054 59.4795C45.5706 59.4215 45.3473 59.3242 45.1449 59.1918C44.7294 59.7458 42.5135 62.2813 37.7727 62.2813C33.032 62.2813 30.8161 59.7458 30.4006 59.1918C30.1982 59.3242 29.9749 59.4215 29.7401 59.4795Z" fill="#2C2E31"/>
<path d="M50.2989 60.4324L21.4039 69.1011C20.9131 69.2481 20.4813 69.5456 20.1692 69.951C20.1692 69.951 17.5 68.5 16 67.5C14.5 66.5 11.7908 64.0746 11.7908 64.0746C12.4323 63.6348 13.153 63.3125 13.9199 63.1288L29.7401 59.3671C29.9749 59.3091 30.1982 59.2118 30.4006 59.0794C30.8161 59.6334 33.032 62.1689 37.7727 62.1689C42.5135 62.1689 44.7294 59.6334 45.1449 59.0794C45.3473 59.2118 45.5706 59.3091 45.8054 59.3671L50.2989 60.4324Z" fill="#181818"/>
<path d="M44.1648 52.2991C42.1708 53.2597 39.986 53.7586 37.7728 53.7586C35.5595 53.7586 33.3747 53.2597 31.3808 52.2991V57.4021C31.381 57.7587 31.2914 58.1097 31.1201 58.4226C30.9488 58.7354 30.7013 59 30.4007 59.1918C31.0636 59.9934 31.8847 60.6498 32.8126 61.1201L44.1648 54.025V52.2991Z" fill="#ED9776"/>
<path d="M45.8054 59.4795C45.5135 59.4072 45.2397 59.2753 45.0013 59.0919C44.7629 58.9085 44.5652 58.6778 44.4204 58.4141C44.4002 58.4376 44.3736 58.4536 44.3555 58.4791C44.3374 58.5047 44.3118 58.5303 44.2915 58.5569C44.087 58.8296 42.1694 61.2202 37.7717 61.2202C33.374 61.2202 31.4564 58.8296 31.2518 58.5569C31.2316 58.5303 31.2103 58.5047 31.1879 58.4791C31.1655 58.4536 31.1432 58.4376 31.1229 58.4141C30.9782 58.6778 30.7804 58.9085 30.5421 59.0919C30.3037 59.2753 30.0299 59.4072 29.738 59.4795L29.3651 59.5679C29.4233 59.6843 29.4975 59.7919 29.5857 59.8875C30.1247 60.5768 32.5974 63.3466 37.7728 63.3466C42.9482 63.3466 45.4208 60.5768 45.9577 59.8843C46.0459 59.7887 46.1201 59.6811 46.1782 59.5647L45.8054 59.4795Z" fill="#E3E3E3"/>
<path d="M22.858 34.5826H21.7927C21.5101 34.5826 21.2392 34.6948 21.0394 34.8946C20.8396 35.0944 20.7273 35.3654 20.7273 35.6479V36.7133C20.7273 37.8905 21.6808 39.9093 22.858 39.9093V34.5826Z" fill="#F2A283"/>
<path d="M52.6874 34.5826H53.7528C54.0353 34.5826 54.3063 34.6948 54.5061 34.8946C54.7059 35.0944 54.8181 35.3654 54.8181 35.6479V36.7133C54.8181 37.8905 53.8593 39.9093 52.6874 39.9093V34.5826Z" fill="#F2A283"/>
<path d="M18.5967 22.8639C17.3189 23.8977 16.2774 25.1932 15.5423 26.6634C14.8072 28.1335 14.3957 29.744 14.3354 31.3866C14.3354 36.5428 19.3318 38.7054 19.6514 38.8333C18.9911 37.8999 18.6239 36.7909 18.5967 35.6479V34.5826C18.5984 34.018 18.8234 33.477 19.2226 33.0778C19.6219 32.6786 20.1628 32.4536 20.7274 32.4519H22.8581V27.1252L16.466 29.2559C16.3555 26.9342 17.1153 24.6549 18.5967 22.8639V22.8639Z" fill="black"/>
<path d="M52.6874 28.1906V32.4519H54.8181C55.3827 32.4536 55.9237 32.6786 56.3229 33.0778C56.7221 33.4771 56.9471 34.018 56.9488 34.5826V30.3213L52.6874 28.1906Z" fill="black"/>
<path d="M29.2501 21.7986L22.8581 27.1252V28.1906V29.2559L29.2501 23.9292V21.7986Z" fill="#D9896D"/>
<path d="M47.3607 21.7986C47.3607 21.7986 47.3607 30.3212 52.6874 30.3212V28.1906C47.3607 28.1906 47.3607 19.6679 47.3607 19.6679C47.3607 19.6679 44.5173 24.4022 41.512 24.9402L40.9687 27.1252C44.1647 27.1252 47.3607 21.7986 47.3607 21.7986Z" fill="#D9896D"/>
<path d="M41.2574 23.8334L42.0234 20.7546C41.7038 21.1914 36.473 28.1906 29.2501 28.1906V30.3213C35.0284 30.3213 39.5241 25.8469 41.2574 23.8334Z" fill="#D9896D"/>
<path d="M38.8381 38.8535V38.8439C38.8381 37.6667 38.3608 36.7133 37.7727 36.7133C37.1847 36.7133 36.7074 37.6667 36.7074 38.8439V38.8535C37.0558 38.8535 37.4052 38.8439 37.7727 38.8439C38.1403 38.8439 38.4897 38.8439 38.8381 38.8535Z" fill="#D9896D"/>
<path d="M37.7727 51.628C37.0046 51.634 36.2381 51.5572 35.4865 51.3989C34.3135 51.1308 33.2672 50.4704 32.5205 49.5267C31.7739 48.5831 31.3718 47.4129 31.3807 46.2097V39.155C29.9398 39.2724 28.5131 39.5249 27.1194 39.9093V48.432L26.885 48.6131C28.0942 50.1575 29.6293 51.4161 31.3807 52.2991C33.3747 53.2598 35.5595 53.7586 37.7727 53.7586C39.986 53.7586 42.1708 53.2598 44.1647 52.2991C45.9162 51.4161 47.4513 50.1575 48.6605 48.6131L48.4261 48.432C48.4261 48.432 43.0994 51.628 37.7727 51.628Z" fill="#D4D4D4"/>
<path d="M30.3154 44.7033C30.1891 44.703 30.0671 44.6579 29.971 44.5759C29.8749 44.494 29.8111 44.3806 29.7908 44.2559C29.7706 44.1313 29.7953 44.0035 29.8606 43.8954C29.9258 43.7873 30.0274 43.7058 30.1471 43.6656C35.1264 42.2083 40.4191 42.2083 45.3984 43.6656C45.4648 43.6878 45.5262 43.7227 45.5791 43.7685C45.6319 43.8144 45.6753 43.8702 45.7066 43.9327C45.7379 43.9953 45.7566 44.0634 45.7615 44.1332C45.7665 44.203 45.7577 44.2731 45.7356 44.3395C45.7135 44.4059 45.6785 44.4672 45.6327 44.5201C45.5869 44.573 45.5311 44.6163 45.4685 44.6476C45.406 44.6789 45.3378 44.6976 45.268 44.7026C45.1983 44.7076 45.1282 44.6988 45.0618 44.6766C40.301 43.2924 35.2445 43.2924 30.4837 44.6766C30.4295 44.6948 30.3726 44.7038 30.3154 44.7033Z" fill="#D4D4D4"/>
<path d="M30.3154 48.9646C30.1891 48.9643 30.0671 48.9192 29.971 48.8373C29.8749 48.7553 29.8111 48.6419 29.7908 48.5173C29.7706 48.3926 29.7953 48.2648 29.8606 48.1567C29.9258 48.0486 30.0274 47.9672 30.1471 47.927C35.1264 46.4696 40.4191 46.4696 45.3984 47.927C45.4648 47.9491 45.5262 47.9841 45.5791 48.0299C45.6319 48.0757 45.6753 48.1315 45.7066 48.1941C45.7379 48.2566 45.7566 48.3248 45.7615 48.3946C45.7665 48.4643 45.7577 48.5344 45.7356 48.6008C45.7135 48.6672 45.6785 48.7286 45.6327 48.7814C45.5869 48.8343 45.5311 48.8776 45.4685 48.909C45.406 48.9403 45.3378 48.9589 45.268 48.9639C45.1983 48.9689 45.1282 48.9601 45.0618 48.938C40.301 47.5538 35.2445 47.5538 30.4837 48.938C30.4295 48.9561 30.3726 48.9651 30.3154 48.9646V48.9646Z" fill="#D4D4D4"/>
<path d="M62.2754 52.6933H60.1448V50.5626C60.1448 50.2801 60.0325 50.0091 59.8328 49.8093C59.633 49.6095 59.362 49.4973 59.0794 49.4973C58.7969 49.4973 58.5259 49.6095 58.3261 49.8093C58.1263 50.0091 58.0141 50.2801 58.0141 50.5626V52.6933H55.8834C55.6009 52.6933 55.3299 52.8055 55.1301 53.0053C54.9303 53.2051 54.8181 53.4761 54.8181 53.7586C54.8181 54.0412 54.9303 54.3121 55.1301 54.5119C55.3299 54.7117 55.6009 54.824 55.8834 54.824H58.0141V56.9546C58.0141 57.2372 58.1263 57.5081 58.3261 57.7079C58.5259 57.9077 58.7969 58.02 59.0794 58.02C59.362 58.02 59.633 57.9077 59.8328 57.7079C60.0325 57.5081 60.1448 57.2372 60.1448 56.9546V54.824H62.2754C62.558 54.824 62.829 54.7117 63.0288 54.5119C63.2285 54.3121 63.3408 54.0412 63.3408 53.7586C63.3408 53.4761 63.2285 53.2051 63.0288 53.0053C62.829 52.8055 62.558 52.6933 62.2754 52.6933Z" fill="#0075FF"/>
<path d="M19.6621 44.1706H17.5314V42.0399C17.5314 41.7574 17.4192 41.4864 17.2194 41.2866C17.0196 41.0868 16.7486 40.9746 16.4661 40.9746C16.1835 40.9746 15.9125 41.0868 15.7128 41.2866C15.513 41.4864 15.4007 41.7574 15.4007 42.0399V44.1706H13.2701C12.9875 44.1706 12.7165 44.2828 12.5167 44.4826C12.317 44.6824 12.2047 44.9534 12.2047 45.2359C12.2047 45.5185 12.317 45.7895 12.5167 45.9893C12.7165 46.189 12.9875 46.3013 13.2701 46.3013H15.4007V48.4319C15.4007 48.7145 15.513 48.9855 15.7128 49.1853C15.9125 49.385 16.1835 49.4973 16.4661 49.4973C16.7486 49.4973 17.0196 49.385 17.2194 49.1853C17.4192 48.9855 17.5314 48.7145 17.5314 48.4319V46.3013H19.6621C19.9446 46.3013 20.2156 46.189 20.4154 45.9893C20.6152 45.7895 20.7274 45.5185 20.7274 45.2359C20.7274 44.9534 20.6152 44.6824 20.4154 44.4826C20.2156 44.2828 19.9446 44.1706 19.6621 44.1706Z" fill="#0075FF"/>
<path d="M52.9517 31.9896C52.8909 31.9548 52.8238 31.9322 52.7544 31.9233C52.6849 31.9144 52.6143 31.9193 52.5467 31.9377C52.4792 31.9561 52.4159 31.9877 52.3605 32.0306C52.3051 32.0735 52.2587 32.1269 52.224 32.1877L48.1758 39.2829C44.7604 38.5378 41.267 38.2115 37.7728 38.3113C34.2803 38.2119 30.7887 38.5382 27.3751 39.2829L23.3268 32.1877C23.2562 32.0648 23.1396 31.975 23.0028 31.9381C22.8659 31.9011 22.72 31.92 22.5971 31.9907C22.4742 32.0613 22.3843 32.1779 22.3474 32.3147C22.3104 32.4516 22.3293 32.5975 22.4 32.7204L26.5867 40.0521V48.432C26.5867 48.5732 26.6429 48.7087 26.7428 48.8086C26.8427 48.9085 26.9781 48.9646 27.1194 48.9646C27.1407 48.962 27.1617 48.9577 27.1823 48.9519C27.0853 48.8368 26.9788 48.7313 26.885 48.6131L27.1194 48.432V39.9093C27.1194 39.9093 30.3154 38.844 37.7728 38.844C45.2301 38.844 48.4261 39.9093 48.4261 39.9093V48.432L48.6605 48.6131C48.5667 48.7313 48.4602 48.8368 48.3633 48.9519C48.3838 48.9577 48.4049 48.962 48.4261 48.9646C48.5674 48.9646 48.7029 48.9085 48.8028 48.8086C48.9027 48.7087 48.9588 48.5732 48.9588 48.432V40.0521L53.1509 32.7162C53.1855 32.6554 53.2078 32.5884 53.2166 32.5189C53.2253 32.4495 53.2203 32.3791 53.2018 32.3116C53.1833 32.2441 53.1517 32.181 53.1087 32.1257C53.0658 32.0705 53.0125 32.0242 52.9517 31.9896Z" fill="#BFBFBF"/>
<path d="M28.2848 30.8337C28.2625 30.8401 28.2412 30.8454 28.2188 30.8497C27.8992 30.9072 27.6542 30.399 27.6542 30.0549C27.6542 29.958 27.6904 27.6579 30.8502 27.6579C34.01 27.6579 34.0462 29.958 34.0462 30.0549C34.0511 30.1952 34.0208 30.3345 33.9581 30.4601C33.8953 30.5857 33.8022 30.6936 33.6872 30.774C33.4538 30.9157 33.2291 30.7836 33.048 30.561C32.9595 30.4544 32.8914 30.3181 32.7965 30.2158C32.7034 30.1229 32.5954 30.0462 32.4769 29.9889C32.1975 29.825 31.9019 29.6904 31.5948 29.5872C31.1868 29.4699 30.7558 29.4562 30.3412 29.5476C29.9265 29.6389 29.5412 29.8323 29.2202 30.1103C28.9532 30.4044 28.6366 30.6493 28.2848 30.8337V30.8337Z" fill="#3B220E"/>
<path d="M47.2627 30.8337C47.2851 30.8401 47.3064 30.8454 47.3288 30.8497C47.6484 30.9072 47.8934 30.399 47.8934 30.0549C47.8934 29.958 47.8572 27.6579 44.6974 27.6579C41.5376 27.6579 41.5014 29.958 41.5014 30.0549C41.4965 30.1952 41.5268 30.3345 41.5895 30.4601C41.6522 30.5857 41.7453 30.6936 41.8604 30.774C42.0927 30.9157 42.3185 30.7836 42.4996 30.561C42.588 30.4544 42.6562 30.3181 42.75 30.2158C42.8433 30.1231 42.9513 30.0464 43.0696 29.9889C43.3495 29.8252 43.6454 29.6906 43.9527 29.5872C44.3608 29.4699 44.7917 29.4562 45.2064 29.5476C45.6211 29.6389 46.0064 29.8323 46.3274 30.1103C46.5941 30.4046 46.9108 30.6495 47.2627 30.8337Z" fill="#3B220E"/>
</svg>
