<svg width="75" height="75" viewBox="0 0 75 75" fill="none" xmlns="http://www.w3.org/2000/svg">
<g clip-path="url(#clip0_534_424)">
<rect width="75" height="75" rx="37.5" fill="#0075FF"/>
<path fill-rule="evenodd" clip-rule="evenodd" d="M75.2379 31.3918L66.794 35.0125L57.2133 34.8479C54.0719 34.9248 51.0149 35.8942 48.3905 37.6457L34.8585 45.3809C34.8585 45.3809 35.5622 49.2759 40.975 47.2461C40.975 47.2461 45.1969 44.8872 46.3877 44.5032C47.5786 44.1191 49.8519 43.6803 50.8804 45.2712C47.5279 48.91 43.3462 51.6601 38.7016 53.2807C34.3372 54.0072 29.8997 54.1731 25.4944 53.7744C25.4944 53.7744 21.6513 54.6521 21.8137 57.7243L40.6502 60.5221L71.0701 46.8072L74.5884 46.0941C74.9064 44.7571 75.1414 43.4013 75.2921 42.0345V42.0345C75.7546 38.5011 75.7364 34.9201 75.2379 31.3918Z" fill="#C88266"/>
<path fill-rule="evenodd" clip-rule="evenodd" d="M74.8049 44.9419L70.8535 45.7648L40.3795 59.5894L22.5714 56.9561C22.9503 55.4201 24.8989 54.8166 25.3861 54.652C29.8649 55.0707 34.3787 54.8862 38.8098 54.1034C43.644 52.4542 47.9843 49.5845 51.4216 45.7648L51.8005 45.2711L51.4216 44.7225C50.7463 43.9875 49.8572 43.49 48.8837 43.3025C47.9102 43.1151 46.903 43.2474 46.0088 43.6802C44.9804 44.0642 41.2997 46.094 40.596 46.4231C40.0074 46.782 39.3471 47.0028 38.6633 47.0692C37.9796 47.1357 37.2898 47.0461 36.6447 46.8071C36.3241 46.6063 36.0625 46.3222 35.8869 45.9843L48.6069 38.3588C51.1855 36.7163 54.1678 35.8418 57.2133 35.8353H67.1728L75.6168 32.2146C75.647 31.6298 75.647 31.0438 75.6168 30.459L67.227 34.0798H57.4839C54.1766 34.1673 50.9563 35.173 48.1739 36.9873L33.8841 44.8871V45.4905C33.9654 46.0244 34.1568 46.5348 34.446 46.9886C34.7351 47.4423 35.1154 47.8291 35.5621 48.1238C36.4149 48.5046 37.3366 48.7013 38.2685 48.7013C39.2004 48.7013 40.1221 48.5046 40.9749 48.1238V48.1238C42.1116 47.4655 45.3051 45.71 46.1171 45.4357C47.0726 45.048 48.1386 45.048 49.0941 45.4357C45.9731 48.4577 42.2689 50.7924 38.2144 52.2931C33.9769 53.0207 29.6623 53.1683 25.3861 52.732C24.6243 52.9104 23.894 53.2064 23.2209 53.6097C22.5305 54 21.9587 54.5745 21.5675 55.2708C21.1763 55.9671 20.9806 56.7586 21.0017 57.5596V58.2728L40.8667 61.1803L71.2865 47.4655L74.3718 46.8071C74.5342 46.2037 74.6966 45.6002 74.8049 44.9419Z" fill="#052A39"/>
<path fill-rule="evenodd" clip-rule="evenodd" d="M46.8231 35.1221C46.8231 35.1221 49.8001 35.1221 50.179 32.5986C50.5579 30.075 49.8542 28.923 46.8231 25.3023C46.8231 25.3023 42.7093 28.923 43.4671 32.7083C43.646 33.4527 44.0839 34.1067 44.7005 34.5502C45.317 34.9936 46.0707 35.1967 46.8231 35.1221V35.1221Z" fill="white"/>
<path fill-rule="evenodd" clip-rule="evenodd" d="M44.7662 29.5813C44.6843 30.1961 44.7847 30.8217 45.0546 31.3785C45.3244 31.9353 45.7516 32.3982 46.2818 32.7082L45.1451 33.586C45.1451 33.586 42.9259 32.6534 44.7662 29.5813Z" fill="#0075FF"/>
<path d="M35.8648 15.558L30.5536 21.1128L32.1861 22.7163L37.4974 17.1614L35.8648 15.558Z" fill="#052A39"/>
<path fill-rule="evenodd" clip-rule="evenodd" d="M24.4141 21.517L31.992 28.9779L34.4278 25.412C34.5772 25.2261 34.6588 24.9936 34.6588 24.7537C34.6588 24.5139 34.5772 24.2814 34.4278 24.0954L29.2856 19.3775C29.1107 19.2303 28.8905 19.1497 28.6631 19.1497C28.4358 19.1497 28.2156 19.2303 28.0407 19.3775L24.4141 21.517Z" fill="#052A39"/>
<path fill-rule="evenodd" clip-rule="evenodd" d="M29.5022 23.6566C29.5022 23.6566 39.7865 33.0376 34.5361 38.5235L11.9106 62.2228C11.7138 62.4285 11.4783 62.592 11.2179 62.7037C10.9576 62.8154 10.6777 62.873 10.395 62.873C10.1123 62.873 9.83248 62.8154 9.57213 62.7037C9.31179 62.592 9.07623 62.4285 8.87944 62.2228L6.22717 59.7541C1.233 52.6666 -1.29902 44.0996 -0.971846 35.3965L14.617 18.9387C19.9215 13.5625 29.5022 23.6566 29.5022 23.6566Z" fill="#052A39"/>
<path fill-rule="evenodd" clip-rule="evenodd" d="M4.44094 57.2853C6.38955 59.0408 8.50054 60.9609 9.25833 61.7289C9.41082 61.919 9.61678 62.0575 9.84882 62.1261C10.0809 62.1947 10.328 62.1901 10.5574 62.1129L11.2069 61.7289L33.9948 37.9748C34.4504 37.5228 34.7991 36.9721 35.0147 36.364C35.2303 35.756 35.3072 35.1063 35.2397 34.4638C35.1308 33.0001 34.6659 31.5865 33.8865 30.3493C32.6319 28.2153 31.1029 26.2599 29.3398 24.5342L29.015 24.2051V23.8759C27.1373 22.0646 25.0026 20.5483 22.6821 19.3774C21.4315 18.6722 20.0482 18.2423 18.6225 18.1157C18.0073 18.0783 17.3912 18.1713 16.8134 18.3885C16.2357 18.6057 15.7088 18.9425 15.2665 19.3774L-0.971849 36.5484C-1.07544 43.8327 0.796924 51.0059 4.44094 57.2853V57.2853Z" fill="white"/>
<path fill-rule="evenodd" clip-rule="evenodd" d="M15.5371 19.8713L-0.97187 37.152C-0.95757 43.8191 0.737977 50.3719 3.95377 56.1882C6.11889 58.1631 8.77116 60.5769 9.36656 61.6741C9.47622 61.8066 9.62206 61.9034 9.78576 61.9522C9.94947 62.001 10.1238 61.9997 10.2867 61.9484C10.4669 61.8685 10.6318 61.7571 10.7739 61.6193L33.7241 37.7006L15.5371 19.8713Z" fill="#0075FF"/>
<path d="M13.0554 28.1814L0.219769 41.6245C-0.299947 42.1688 -0.285891 43.0371 0.251164 43.5638L10.6367 53.7498C11.1737 54.2765 12.0304 54.2623 12.5501 53.718L25.3858 40.2749C25.9055 39.7306 25.8914 38.8623 25.3544 38.3356L14.9689 28.1496C14.4318 27.6228 13.5751 27.6371 13.0554 28.1814Z" fill="#F9A134"/>
<path fill-rule="evenodd" clip-rule="evenodd" d="M41.4103 14.9888C43.6351 16.8335 45.4751 19.1087 46.8231 21.6817H45.1993C43.5703 19.492 41.5507 17.6312 39.2452 16.1957V16.1957L38.0544 17.4575L35.2397 14.7145L36.4847 13.8916L37.459 12.7944C37.459 12.7944 37.8379 12.3007 36.9718 11.4778L37.2966 11.1486C38.4723 12.6285 39.8587 13.9227 41.4103 14.9888V14.9888Z" fill="#052A39"/>
<path fill-rule="evenodd" clip-rule="evenodd" d="M10.828 36.329L12.9932 38.4685L15.2665 36.2741C15.347 36.197 15.4535 36.154 15.5642 36.154C15.675 36.154 15.7815 36.197 15.8619 36.2741L17.5399 37.8651C17.6198 37.9556 17.664 38.0728 17.664 38.1942C17.664 38.3157 17.6198 38.4328 17.5399 38.5234L15.2665 40.7177L17.3775 42.7475C17.425 42.7936 17.4628 42.849 17.4886 42.9103C17.5144 42.9715 17.5277 43.0375 17.5277 43.1041C17.5277 43.1708 17.5144 43.2367 17.4886 43.298C17.4628 43.3593 17.425 43.4146 17.3775 43.4607L15.8078 45.0516C15.7672 45.0983 15.7172 45.1357 15.6612 45.1614C15.6052 45.187 15.5445 45.2002 15.483 45.2002C15.4216 45.2002 15.3609 45.187 15.3049 45.1614C15.2489 45.1357 15.1989 45.0983 15.1583 45.0516L13.0473 42.967L10.9904 45.1065C10.945 45.1546 10.8903 45.1929 10.8299 45.2191C10.7694 45.2452 10.7043 45.2587 10.6386 45.2587C10.5729 45.2587 10.5078 45.2452 10.4473 45.2191C10.3869 45.1929 10.3322 45.1546 10.2868 45.1065L8.66293 43.4607C8.58679 43.3792 8.54436 43.2712 8.54436 43.159C8.54436 43.0467 8.58679 42.9388 8.66293 42.8573L10.7739 40.6629L8.6088 38.5234C8.56376 38.4874 8.52736 38.4416 8.50232 38.3893C8.47729 38.3371 8.46429 38.2797 8.46429 38.2216C8.46429 38.1635 8.47729 38.1062 8.50232 38.0539C8.52736 38.0017 8.56376 37.9559 8.6088 37.9199L10.1785 36.2193C10.2807 36.1519 10.4041 36.1257 10.5243 36.1461C10.6446 36.1664 10.753 36.2317 10.828 36.329V36.329Z" fill="#052A39"/>
</g>
<defs>
<clipPath id="clip0_534_424">
<rect width="75" height="75" rx="37.5" fill="white"/>
</clipPath>
</defs>
</svg>
