<svg width="75" height="75" viewBox="0 0 75 75" fill="none" xmlns="http://www.w3.org/2000/svg">
<g clip-path="url(#clip0_534_556)">
<path fill-rule="evenodd" clip-rule="evenodd" d="M75 37.4921C75.0031 44.9118 72.8056 52.1657 68.6854 58.3363C64.5651 64.5069 58.7074 69.3168 51.8531 72.1577C44.9987 74.9985 37.4558 75.7426 30.1785 74.2959C22.9013 72.8491 16.2165 69.2765 10.97 64.03C5.72348 58.7835 2.15087 52.0988 0.704127 44.8215C-0.74262 37.5442 0.00149422 30.0013 2.84234 23.1469C5.68318 16.2926 10.4931 10.4349 16.6637 6.31464C22.8342 2.19442 30.0882 -0.00312404 37.5079 3.33774e-06C42.432 -0.00207479 47.3083 0.966268 51.858 2.84969C56.4077 4.7331 60.5416 7.49467 64.0235 10.9765C67.5053 14.4584 70.2669 18.5923 72.1503 23.142C74.0337 27.6917 75.0021 32.568 75 37.4921Z" fill="#0075FF"/>
<path fill-rule="evenodd" clip-rule="evenodd" d="M36.7805 52.957C36.7805 52.957 36.2903 52.8621 35.5946 52.6566C34.67 52.3819 33.7619 52.0545 32.8748 51.6762C30.7178 50.7758 28.683 49.607 26.8185 48.1974C25.7437 47.3808 24.7339 46.4821 23.7982 45.5092L23.1341 44.7818L22.9127 44.9083C21.3314 45.8254 11.5117 51.8659 8.38077 61.2429C11.8904 65.5437 16.3143 69.0085 21.3308 71.3855C26.3472 73.7624 31.8303 74.9918 37.3814 74.9842C39.8228 74.9876 42.2588 74.7546 44.6553 74.2884C43.7698 64.4845 36.7489 52.957 36.7489 52.957H36.7805Z" fill="#2C2E31"/>
<path fill-rule="evenodd" clip-rule="evenodd" d="M34.5667 39.2315C34.4159 39.3829 34.2112 39.4682 33.9975 39.4687C33.9012 39.4707 33.8055 39.4535 33.716 39.4182C33.6264 39.3829 33.5447 39.3302 33.4757 39.2631C33.4029 39.1937 33.3451 39.1103 33.3055 39.0179C33.266 38.9255 33.2456 38.826 33.2456 38.7255C33.2456 38.625 33.266 38.5255 33.3055 38.4331C33.3451 38.3407 33.4029 38.2572 33.4757 38.1878L34.0291 38.7097L33.4757 38.172C33.6227 38.0319 33.8181 37.9537 34.0212 37.9537C34.2243 37.9537 34.4197 38.0319 34.5667 38.172C34.6375 38.2426 34.6936 38.3263 34.732 38.4186C34.7703 38.5109 34.79 38.6098 34.79 38.7097C34.79 38.8096 34.7703 38.9085 34.732 39.0007C34.6936 39.093 34.6375 39.1768 34.5667 39.2473V39.2315ZM32.9855 41.3504C32.9183 41.4574 32.825 41.5454 32.7143 41.6063C32.6036 41.6672 32.4793 41.6988 32.353 41.6983C32.1992 41.6972 32.0497 41.6473 31.926 41.556C31.8408 41.5018 31.7675 41.4307 31.7107 41.3473C31.6538 41.2638 31.6146 41.1696 31.5953 41.0705C31.5761 40.9713 31.5773 40.8693 31.5988 40.7706C31.6203 40.6719 31.6617 40.5787 31.7204 40.4965C31.8448 40.3473 32.0207 40.2503 32.2132 40.2247C32.4057 40.199 32.6008 40.2465 32.7599 40.3579C32.919 40.4693 33.0305 40.6364 33.0723 40.826C33.114 41.0157 33.0831 41.2141 32.9855 41.382V41.3504ZM31.6098 43.6591C31.5492 43.7879 31.4529 43.8966 31.3324 43.9723C31.2119 44.0479 31.0721 44.0874 30.9298 44.086C30.8077 44.0841 30.6881 44.0515 30.5819 43.9911C30.4907 43.9476 30.4092 43.886 30.3426 43.8099C30.276 43.7338 30.2256 43.645 30.1945 43.5487C30.1634 43.4525 30.1523 43.351 30.1618 43.2503C30.1713 43.1497 30.2013 43.052 30.2499 42.9633C30.3473 42.7839 30.5103 42.6492 30.7049 42.5873C30.8994 42.5254 31.1103 42.5412 31.2935 42.6312C31.4729 42.7287 31.6076 42.8917 31.6695 43.0863C31.7314 43.2808 31.7156 43.4917 31.6256 43.6749L31.6098 43.6591ZM30.5503 46.11C30.5028 46.2659 30.4064 46.4022 30.2754 46.4991C30.1444 46.5959 29.9858 46.648 29.8229 46.6477H29.5857C29.3914 46.5858 29.2293 46.4499 29.1346 46.2693C29.0399 46.0887 29.0202 45.8781 29.0797 45.6831C29.1448 45.4917 29.2821 45.3333 29.4623 45.2418C29.6425 45.1502 29.8513 45.1326 30.0443 45.1929C30.1403 45.2234 30.2292 45.2726 30.306 45.3378C30.3828 45.403 30.4458 45.4827 30.4914 45.5725C30.5371 45.6623 30.5644 45.7603 30.5717 45.8607C30.5791 45.9611 30.5665 46.062 30.5345 46.1575L30.5503 46.11ZM35.5471 36.2903C35.7082 36.187 35.9017 36.1469 36.0906 36.1777C36.2794 36.2086 36.4501 36.3082 36.5699 36.4574C36.6897 36.6066 36.75 36.7949 36.7392 36.9859C36.7285 37.1769 36.6475 37.3572 36.5117 37.4921C36.3781 37.6025 36.2107 37.6639 36.0373 37.666C35.8747 37.6671 35.7158 37.6171 35.5833 37.5229C35.4507 37.4287 35.3511 37.2952 35.2986 37.1412C35.2461 36.9873 35.2434 36.8208 35.2909 36.6652C35.3383 36.5096 35.4335 36.373 35.5629 36.2745L35.5471 36.2903ZM38.0297 34.709C38.2058 34.6461 38.3987 34.6488 38.5728 34.7169C38.7469 34.785 38.8906 34.9137 38.9773 35.0793C39.064 35.245 39.0878 35.4364 39.0445 35.6183C39.0011 35.8002 38.8934 35.9602 38.7413 36.0689C38.6347 36.1265 38.5144 36.1539 38.3934 36.148C38.2524 36.1528 38.1131 36.1165 37.9924 36.0435C37.8716 35.9705 37.7747 35.864 37.7135 35.7369C37.6269 35.5572 37.6113 35.3515 37.67 35.1609C37.7286 34.9703 37.8571 34.8089 38.0297 34.709ZM40.7495 33.6338C40.9466 33.5803 41.1568 33.6067 41.3345 33.7074C41.5122 33.8081 41.6429 33.9748 41.6983 34.1714C41.7273 34.268 41.7367 34.3693 41.7261 34.4695C41.7154 34.5698 41.6849 34.6669 41.6363 34.7552C41.5878 34.8435 41.5221 34.9213 41.4431 34.9839C41.3642 35.0466 41.2735 35.0929 41.1765 35.1202C41.1035 35.1355 41.0281 35.1355 40.9551 35.1202C40.7902 35.1195 40.63 35.0651 40.4988 34.9652C40.3675 34.8654 40.2724 34.7255 40.2277 34.5667C40.1965 34.4702 40.1853 34.3683 40.1949 34.2674C40.2045 34.1664 40.2347 34.0684 40.2835 33.9795C40.3324 33.8907 40.399 33.8127 40.4791 33.7505C40.5593 33.6884 40.6513 33.6432 40.7495 33.618V33.6338ZM43.6117 33.0961C43.8147 33.083 44.0147 33.1503 44.1686 33.2835C44.3224 33.4166 44.4177 33.6049 44.4339 33.8077C44.4425 33.9087 44.4308 34.0104 44.3995 34.1068C44.3682 34.2032 44.3179 34.2923 44.2516 34.369C44.1853 34.4456 44.1043 34.5082 44.0134 34.553C43.9225 34.5978 43.8235 34.624 43.7223 34.63H43.6433C43.4535 34.6271 43.2714 34.5547 43.1315 34.4264C42.9916 34.2982 42.9036 34.123 42.8843 33.9342C42.8733 33.8344 42.8823 33.7335 42.9106 33.6372C42.9389 33.5409 42.9861 33.4512 43.0493 33.3733C43.1126 33.2953 43.1906 33.2307 43.279 33.1831C43.3674 33.1356 43.4643 33.106 43.5642 33.0961H43.6117ZM45.6989 33.7761C45.719 33.5719 45.8177 33.3836 45.9741 33.2508C46.1304 33.118 46.3323 33.0512 46.537 33.0645C46.7411 33.0807 46.931 33.1755 47.0667 33.3288C47.2024 33.4822 47.2732 33.6822 47.2644 33.8868C47.2523 34.0839 47.1654 34.269 47.0213 34.4042C46.8773 34.5394 46.6871 34.6145 46.4896 34.6142H46.4105C46.3093 34.6082 46.2104 34.582 46.1195 34.5372C46.0286 34.4924 45.9476 34.4298 45.8813 34.3531C45.8149 34.2765 45.7646 34.1874 45.7333 34.091C45.702 33.9946 45.6903 33.8929 45.6989 33.7919V33.7761ZM48.482 34.0765C48.5025 33.9772 48.5428 33.883 48.6003 33.7995C48.6579 33.716 48.7316 33.6449 48.8171 33.5904C48.9025 33.5359 48.9981 33.499 49.0981 33.482C49.198 33.465 49.3004 33.4682 49.3991 33.4915L49.2252 34.2347L49.3991 33.4915C49.6088 33.5103 49.8024 33.6117 49.9374 33.7733C50.0723 33.935 50.1375 34.1436 50.1186 34.3533C50.0997 34.5629 49.9983 34.7565 49.8367 34.8915C49.6751 35.0264 49.4665 35.0916 49.2568 35.0727H49.0987C48.9994 35.0522 48.9052 35.012 48.8217 34.9544C48.7382 34.8969 48.6671 34.8232 48.6125 34.7377C48.558 34.6522 48.5212 34.5566 48.5042 34.4566C48.4872 34.3567 48.4904 34.2543 48.5136 34.1556L48.482 34.0765ZM38.2195 43.5642L42.8684 45.9677C43.3925 46.109 43.9506 46.0454 44.4294 45.7899C44.9082 45.5343 45.2717 45.106 45.4459 44.592L46.6161 42.6154L43.3586 40.876L43.754 40.37C44.2717 39.8331 44.9192 39.4389 45.6339 39.2256C46.3487 39.0122 47.1064 38.9871 47.8337 39.1524C48.1008 39.1945 48.3729 39.1945 48.6401 39.1524L49.3991 35.8634H51.439H51.518C51.5679 35.8851 51.6217 35.8964 51.6762 35.8964C51.7306 35.8964 51.7844 35.8851 51.8343 35.8634C51.9344 35.7991 52.0118 35.7051 52.0557 35.5946L51.012 28.5895V28.463C51.7786 26.5418 52.082 24.467 51.8975 22.4067C50.3163 22.5016 44.6711 22.0114 42.2043 22.802C40.623 23.308 39.1524 26.3441 39.1524 26.3441C38.7398 26.084 38.2688 25.9306 37.7821 25.8978C37.2954 25.865 36.8082 25.9537 36.3643 26.156C35.9204 26.3584 35.5339 26.6679 35.2394 27.0569C34.9449 27.4458 34.7518 27.9018 34.6774 28.3839C34.432 29.0088 34.322 29.6787 34.3547 30.3493C34.3874 31.0198 34.5621 31.6758 34.8672 32.2739L29.7122 36.5908C29.3169 36.9228 28.716 37.3498 28.1309 37.6977C28.1446 37.7441 28.1446 37.7935 28.1309 37.84L23.8773 45.3985C24.831 46.3906 25.8621 47.3054 26.9608 48.1341C27.8305 48.6875 28.9532 49.3675 30.3605 50.1581C31.2777 50.6799 32.1948 51.1701 33.0329 51.6129C33.9182 51.9961 34.8265 52.3235 35.7527 52.5933L35.136 50.2214L38.2195 43.5642Z" fill="white"/>
<path fill-rule="evenodd" clip-rule="evenodd" d="M44.2283 12.2707L46.5054 13.2986C45.7701 12.9057 45.0094 12.5623 44.2283 12.2707Z" fill="#1F351B"/>
<path fill-rule="evenodd" clip-rule="evenodd" d="M23.9247 45.4459L28.1784 37.8716C28.192 37.8251 28.192 37.7757 28.1784 37.7293L27.198 38.3776C27.198 38.3776 27.1031 38.172 26.9608 37.7767L22.976 44.8766L23.1815 44.7501C23.4662 44.9715 23.7034 45.2087 23.9247 45.4459Z" fill="#1F351B"/>
<path fill-rule="evenodd" clip-rule="evenodd" d="M24.494 25.2214C24.3456 27.6797 24.6456 30.1444 25.3795 32.4953C25.4212 32.664 25.4795 32.8282 25.5535 32.9855C24.8923 30.4489 24.5366 27.8424 24.494 25.2214Z" fill="#1F351B"/>
<path fill-rule="evenodd" clip-rule="evenodd" d="M26.9608 48.1341C28.8284 49.5476 30.8689 50.7166 33.0329 51.6129C32.1948 51.1701 31.2777 50.68 30.3605 50.1581C28.9374 49.3675 27.8147 48.6875 26.9608 48.1341Z" fill="#1F351B"/>
<path fill-rule="evenodd" clip-rule="evenodd" d="M52.2612 22.4383H51.9292C52.1136 24.4986 51.8103 26.5734 51.0436 28.4946V28.6211L52.0873 35.6262C52.0434 35.7367 51.966 35.8307 51.8659 35.895C51.8163 35.9178 51.7624 35.9295 51.7078 35.9295C51.6532 35.9295 51.5993 35.9178 51.5497 35.895H51.4706H49.3991L48.6401 39.1841C48.3729 39.2261 48.1008 39.2261 47.8337 39.1841C47.1063 39.0187 46.3487 39.0439 45.6339 39.2572C44.9192 39.4705 44.2717 39.8647 43.754 40.4017L43.3586 40.9077L46.6161 42.6154L45.4459 44.4181C45.2717 44.9321 44.9082 45.3604 44.4294 45.616C43.9506 45.8715 43.3924 45.9351 42.8684 45.7938L38.2195 43.3903L35.136 50.1107L35.7527 52.4826C36.4326 52.6882 36.8754 52.7672 36.9228 52.7831L36.2745 50.2056L38.7255 44.8609L42.4731 46.8058C43.2514 47.0445 44.0917 46.9738 44.8192 46.6086C45.5467 46.2434 46.1053 45.6117 46.3789 44.845L48.1341 42.1727L45.098 40.5914C45.8697 40.1692 46.7644 40.0294 47.6281 40.1961C48.8299 40.4017 49.2884 40.1012 49.4307 39.9747L49.5572 39.864L50.2214 36.9703H51.265C51.503 37.022 51.75 37.0144 51.9844 36.9482C52.2188 36.8821 52.4333 36.7593 52.6091 36.5908C52.7802 36.4514 52.9133 36.271 52.9963 36.0665C53.0792 35.862 53.1092 35.6398 53.0835 35.4206L52.0873 28.7002C52.9014 26.5871 53.1996 24.3103 52.957 22.0588C52.7346 22.202 52.502 22.3289 52.2612 22.4383Z" fill="#1F351B"/>
<path fill-rule="evenodd" clip-rule="evenodd" d="M28.2416 37.6977C28.7635 37.3498 29.3643 36.9228 29.8229 36.5908L34.8672 32.2739C34.5621 31.6758 34.3874 31.0198 34.3547 30.3493C34.322 29.6787 34.432 29.0088 34.6774 28.3839C34.7549 27.8986 34.9528 27.4403 35.253 27.0512C35.5533 26.662 35.9462 26.3542 36.396 26.1561C36.8458 25.9579 37.3381 25.8756 37.8279 25.9168C38.3177 25.9579 38.7894 26.1211 39.1999 26.3915C39.1999 26.3915 40.6705 23.3555 42.2518 22.8495C44.7185 22.0588 50.3953 22.549 51.945 22.4541C52.0549 22.4727 52.1671 22.4727 52.277 22.4541C52.514 22.3658 52.7417 22.2546 52.957 22.1221C53.7023 21.6649 54.3195 21.0262 54.7509 20.2658C55.1823 19.5053 55.4138 18.6478 55.4238 17.7736C55.4238 17.7736 50.68 15.2593 46.5054 13.2985L44.2283 12.2707C43.3043 11.8585 42.3595 11.4944 41.3979 11.1796C33.2859 8.76027 27.1664 13.4725 25.1107 20.4775C24.6819 22.0217 24.4743 23.6189 24.494 25.2214C24.5354 27.8477 24.8911 30.4595 25.5535 33.0013C25.9512 34.6097 26.4422 36.1937 27.024 37.7451C27.1664 38.1404 27.2612 38.346 27.2612 38.346L28.2416 37.6977Z" fill="black"/>
<path fill-rule="evenodd" clip-rule="evenodd" d="M34.5193 38.1562C34.3723 38.016 34.1769 37.9378 33.9738 37.9378C33.7706 37.9378 33.5753 38.016 33.4282 38.1562L33.9817 38.6938L33.4282 38.172C33.3555 38.2414 33.2976 38.3248 33.2581 38.4173C33.2185 38.5097 33.1982 38.6091 33.1982 38.7097C33.1982 38.8102 33.2185 38.9096 33.2581 39.0021C33.2976 39.0945 33.3555 39.1779 33.4282 39.2473C33.4973 39.3144 33.579 39.3671 33.6685 39.4024C33.7581 39.4377 33.8538 39.4548 33.95 39.4529C34.1637 39.4523 34.3685 39.367 34.5193 39.2157C34.6574 39.0739 34.7347 38.8838 34.7347 38.6859C34.7347 38.488 34.6574 38.2979 34.5193 38.1562Z" fill="#F9A134"/>
<path fill-rule="evenodd" clip-rule="evenodd" d="M43.6749 34.5667H43.754C43.8551 34.5608 43.9541 34.5346 44.045 34.4898C44.1359 34.4449 44.2169 34.3824 44.2832 34.3057C44.3495 34.2291 44.3998 34.1399 44.4312 34.0435C44.4625 33.9471 44.4742 33.8454 44.4655 33.7445C44.4494 33.5417 44.354 33.3533 44.2002 33.2202C44.0463 33.0871 43.8463 33.0198 43.6433 33.0329C43.5434 33.0427 43.4465 33.0723 43.3581 33.1199C43.2697 33.1675 43.1916 33.2321 43.1284 33.31C43.0652 33.388 43.018 33.4777 42.9897 33.574C42.9613 33.6702 42.9524 33.7712 42.9633 33.871C42.9814 34.052 43.0625 34.221 43.1926 34.3482C43.3227 34.4754 43.4935 34.5528 43.6749 34.5667Z" fill="#F9A134"/>
<path fill-rule="evenodd" clip-rule="evenodd" d="M46.3947 34.5351H46.4737C46.6713 34.5355 46.8615 34.4604 47.0055 34.3252C47.1495 34.19 47.2365 34.0049 47.2486 33.8077C47.2574 33.6031 47.1865 33.4031 47.0509 33.2498C46.9152 33.0964 46.7253 33.0016 46.5212 32.9855C46.3165 32.9722 46.1146 33.039 45.9582 33.1717C45.8018 33.3045 45.7032 33.4929 45.6831 33.697C45.6722 33.7993 45.6822 33.9026 45.7125 34.0009C45.7428 34.0991 45.7927 34.1902 45.8593 34.2686C45.9258 34.3469 46.0076 34.411 46.0996 34.4568C46.1917 34.5026 46.292 34.5293 46.3947 34.5351Z" fill="#F9A134"/>
<path fill-rule="evenodd" clip-rule="evenodd" d="M40.9393 35.0728H41.1607C41.2577 35.0455 41.3484 34.9992 41.4273 34.9365C41.5063 34.8739 41.5719 34.7961 41.6205 34.7078C41.6691 34.6195 41.6996 34.5224 41.7102 34.4221C41.7209 34.3219 41.7114 34.2205 41.6825 34.124C41.6271 33.9274 41.4964 33.7607 41.3187 33.66C41.141 33.5593 40.9308 33.5329 40.7337 33.5864C40.6355 33.6116 40.5435 33.6568 40.4633 33.7189C40.3832 33.7811 40.3166 33.8591 40.2677 33.9479C40.2188 34.0368 40.1887 34.1348 40.1791 34.2358C40.1695 34.3367 40.1806 34.4386 40.2119 34.5351C40.2594 34.6909 40.3558 34.8273 40.4868 34.9241C40.6177 35.0209 40.7764 35.073 40.9393 35.0728Z" fill="#F9A134"/>
<path fill-rule="evenodd" clip-rule="evenodd" d="M38.3618 36.1006C38.4828 36.1064 38.6031 36.0791 38.7097 36.0215C38.8265 35.9052 38.9032 35.7547 38.9287 35.5918C38.9541 35.429 38.9269 35.2622 38.8511 35.1159C38.7753 34.9695 38.6547 34.8512 38.507 34.778C38.3593 34.7048 38.1921 34.6807 38.0297 34.709C37.8504 34.8065 37.7156 34.9695 37.6537 35.1641C37.5918 35.3586 37.6076 35.5695 37.6977 35.7527C37.7664 35.8655 37.8645 35.9575 37.9815 36.0188C38.0985 36.0801 38.2299 36.1083 38.3618 36.1006Z" fill="#F9A134"/>
<path fill-rule="evenodd" clip-rule="evenodd" d="M49.0987 34.9304H49.2884C49.4981 34.9493 49.7067 34.8841 49.8683 34.7492C50.03 34.6143 50.1314 34.4207 50.1502 34.211C50.1691 34.0013 50.1039 33.7927 49.969 33.6311C49.834 33.4694 49.6404 33.368 49.4307 33.3492L49.2568 34.0924L49.4307 33.3492C49.2317 33.3067 49.0239 33.3442 48.8522 33.4537C48.6806 33.5632 48.559 33.7358 48.5136 33.9342C48.4776 34.038 48.4646 34.1484 48.4754 34.2577C48.4862 34.367 48.5206 34.4727 48.5762 34.5674C48.6318 34.6621 48.7074 34.7436 48.7976 34.8063C48.8878 34.869 48.9905 34.9113 49.0987 34.9304Z" fill="#F9A134"/>
<path fill-rule="evenodd" clip-rule="evenodd" d="M36.0215 37.6186C36.1949 37.6165 36.3623 37.5551 36.4959 37.4446C36.6316 37.3098 36.7127 37.1295 36.7234 36.9384C36.7342 36.7474 36.6739 36.5592 36.5541 36.4099C36.4343 36.2607 36.2636 36.1611 36.0747 36.1302C35.8859 36.0994 35.6923 36.1395 35.5313 36.2429C35.4019 36.3413 35.3067 36.478 35.2593 36.6336C35.2118 36.7891 35.2145 36.9557 35.267 37.1096C35.3195 37.2635 35.4191 37.397 35.5516 37.4912C35.6842 37.5854 35.8431 37.6355 36.0057 37.6344L36.0215 37.6186Z" fill="#F9A134"/>
<path fill-rule="evenodd" clip-rule="evenodd" d="M31.1986 42.6154C31.0154 42.5254 30.8045 42.5096 30.61 42.5715C30.4155 42.6334 30.2524 42.7681 30.155 42.9475C30.1064 43.0362 30.0764 43.1339 30.0669 43.2345C30.0574 43.3352 30.0685 43.4367 30.0996 43.5329C30.1307 43.6292 30.1811 43.718 30.2477 43.7941C30.3143 43.8702 30.3958 43.9318 30.487 43.9753C30.5941 44.0315 30.7141 44.0587 30.8349 44.0544C30.9759 44.0592 31.1153 44.0229 31.236 43.9499C31.3567 43.8769 31.4536 43.7704 31.5149 43.6433C31.6015 43.4636 31.617 43.2579 31.5584 43.0673C31.4997 42.8767 31.3712 42.7153 31.1986 42.6154Z" fill="#F9A134"/>
<path fill-rule="evenodd" clip-rule="evenodd" d="M29.981 45.1455C29.7881 45.0852 29.5792 45.1027 29.399 45.1943C29.2188 45.2859 29.0815 45.4443 29.0164 45.6357C28.9847 45.7322 28.9728 45.8341 28.9812 45.9353C28.9896 46.0365 29.0183 46.135 29.0654 46.225C29.1126 46.3149 29.1774 46.3945 29.2559 46.4589C29.3344 46.5234 29.425 46.5714 29.5224 46.6002H29.7596C29.9225 46.6005 30.0812 46.5484 30.2122 46.4516C30.3431 46.3548 30.4395 46.2184 30.487 46.0626C30.5367 45.874 30.5118 45.6735 30.4176 45.5028C30.3234 45.332 30.167 45.2041 29.981 45.1455Z" fill="#F9A134"/>
<path fill-rule="evenodd" clip-rule="evenodd" d="M32.7008 40.2751C32.6189 40.2178 32.5264 40.1772 32.4287 40.1556C32.3311 40.1341 32.2301 40.1321 32.1316 40.1498C32.0332 40.1674 31.9392 40.2043 31.8551 40.2584C31.7709 40.3125 31.6983 40.3826 31.6414 40.4649C31.5826 40.547 31.5412 40.6403 31.5197 40.739C31.4982 40.8377 31.497 40.9397 31.5162 41.0388C31.5355 41.138 31.5747 41.2322 31.6316 41.3157C31.6884 41.3991 31.7617 41.4701 31.8469 41.5243C31.9706 41.6157 32.1201 41.6655 32.2739 41.6667C32.4002 41.6672 32.5245 41.6355 32.6352 41.5747C32.7459 41.5138 32.8392 41.4257 32.9064 41.3188C33.0118 41.1514 33.0492 40.9501 33.011 40.7561C32.9728 40.5621 32.8618 40.39 32.7008 40.2751Z" fill="#F9A134"/>
<path fill-rule="evenodd" clip-rule="evenodd" d="M59.63 43.2637C59.6099 42.4522 59.2786 41.6795 58.7047 41.1056C58.1307 40.5316 57.358 40.2003 56.5465 40.1802C56.4787 40.1802 56.4116 40.1938 56.3491 40.2202C56.2867 40.2466 56.2302 40.2853 56.183 40.334C56.1358 40.3827 56.0988 40.4403 56.0744 40.5036C56.0499 40.5668 56.0384 40.6343 56.0405 40.7021C56.0405 40.8363 56.0938 40.965 56.1887 41.0599C56.2836 41.1548 56.4123 41.2081 56.5465 41.2081C56.9001 41.2031 57.2489 41.2902 57.5587 41.4607C57.8685 41.6312 58.1286 41.8793 58.3136 42.1807C58.4986 42.4821 58.6021 42.8264 58.6138 43.1798C58.6256 43.5332 58.5453 43.8837 58.3808 44.1967L58.2068 44.5446L58.4915 44.8134C58.7369 45.0315 58.933 45.2995 59.0666 45.5995C59.2002 45.8994 59.2683 46.2244 59.2663 46.5528C59.2663 47.1819 59.0164 47.7852 58.5716 48.23C58.1268 48.6748 57.5234 48.9247 56.8944 48.9247C56.5858 48.9222 56.2804 48.8632 55.993 48.7508L55.5661 48.5768L55.4238 48.9405C55.2004 49.3334 54.8537 49.6417 54.4374 49.8177C54.0211 49.9937 53.5585 50.0277 53.121 49.9142C52.6835 49.8008 52.2955 49.5464 52.0172 49.1903C51.7389 48.8342 51.5857 48.3963 51.5813 47.9443C51.5834 47.8765 51.5719 47.809 51.5474 47.7458C51.5229 47.6826 51.486 47.6249 51.4388 47.5762C51.3916 47.5276 51.3351 47.4889 51.2726 47.4625C51.2102 47.436 51.1431 47.4225 51.0753 47.4225C50.9369 47.4225 50.8042 47.4775 50.7063 47.5753C50.6084 47.6732 50.5535 47.8059 50.5535 47.9443C50.5735 48.7558 50.9048 49.5285 51.4788 50.1025C52.0528 50.6765 52.8255 51.0078 53.6369 51.0278C54.1134 51.0278 54.5833 50.9163 55.0089 50.7021C55.4345 50.4879 55.804 50.177 56.0879 49.7944C56.376 49.8763 56.6739 49.9189 56.9734 49.9209C57.6251 49.92 58.2628 49.7317 58.8106 49.3787C59.3583 49.0256 59.7931 48.5225 60.063 47.9293C60.3329 47.3361 60.4267 46.6779 60.3331 46.0329C60.2395 45.388 59.9625 44.7835 59.5351 44.2916C59.6206 43.9561 59.6527 43.6092 59.63 43.2637Z" fill="white"/>
<path fill-rule="evenodd" clip-rule="evenodd" d="M50.1897 41.7773L54.5857 43.153H54.728C54.8382 43.1541 54.9457 43.1191 55.0341 43.0534C55.1226 42.9878 55.1872 42.8951 55.2182 42.7894C55.2583 42.6593 55.246 42.5188 55.184 42.3977C55.122 42.2766 55.0151 42.1845 54.8861 42.141L50.4902 40.7653C50.4258 40.7456 50.3582 40.7387 50.2912 40.7451C50.2241 40.7516 50.159 40.7711 50.0996 40.8027C50.0401 40.8342 49.9874 40.8772 49.9446 40.9291C49.9017 40.9811 49.8695 41.0409 49.8498 41.1053C49.83 41.1697 49.8232 41.2373 49.8296 41.3043C49.836 41.3713 49.8556 41.4364 49.8871 41.4959C49.9187 41.5554 49.9617 41.608 50.0136 41.6509C50.0655 41.6938 50.1254 41.726 50.1897 41.7457V41.7773Z" fill="white"/>
<path fill-rule="evenodd" clip-rule="evenodd" d="M52.1347 46.4738C52.272 46.471 52.4027 46.4142 52.4984 46.3156C52.5472 46.2685 52.586 46.2119 52.6125 46.1495C52.639 46.087 52.6526 46.0198 52.6526 45.9519C52.6526 45.8841 52.639 45.8169 52.6125 45.7544C52.586 45.6919 52.5472 45.6354 52.4984 45.5882L49.6837 42.8843C49.6385 42.8233 49.5804 42.773 49.5137 42.7368C49.447 42.7006 49.3732 42.6794 49.2974 42.6747C49.2216 42.6699 49.1457 42.6818 49.075 42.7094C49.0043 42.737 48.9405 42.7798 48.888 42.8346C48.8355 42.8894 48.7956 42.9551 48.771 43.0269C48.7465 43.0988 48.738 43.1751 48.746 43.2506C48.754 43.3261 48.7784 43.3989 48.8175 43.464C48.8565 43.5291 48.9093 43.5849 48.9722 43.6275L51.8026 46.3314C51.8912 46.4194 52.0099 46.4703 52.1347 46.4738Z" fill="white"/>
</g>
<defs>
<clipPath id="clip0_534_556">
<rect width="75" height="75" fill="white"/>
</clipPath>
</defs>
</svg>
