<svg width="75" height="75" viewBox="0 0 75 75" fill="none" xmlns="http://www.w3.org/2000/svg">
<g clip-path="url(#clip0_534_498)">
<rect width="75" height="75" rx="37.5" fill="#0075FF"/>
<path d="M8.79767 53.5593L10.1768 45.8211C10.1968 45.3552 9.09747 44.1601 8.41792 43.4308C7.99819 42.9649 7.61844 42.58 7.43856 42.2964C5.1001 38.6502 4.66039 36.7055 4.54047 33.7277C4.42055 30.6487 5.43987 27.7114 7.43856 25.4021C9.43725 23.0928 12.1954 21.6951 15.1935 21.4723C15.4133 21.452 15.6332 21.452 15.853 21.4317C19.4307 21.3305 22.5287 22.4243 24.5673 24.5108C26.4461 26.4555 27.3855 29.1902 27.2855 32.4718L29.4441 38.0019C29.564 38.245 29.544 38.6097 29.3642 38.9135C29.1643 39.2781 28.8245 39.501 28.4448 39.501L27.4254 39.5415L27.0057 45.416C26.9857 46.7935 25.9064 47.8873 24.5473 47.9279H24.5273L20.9697 47.4417L20.3901 55.7065L14.6738 61.2367L8.79767 53.5593Z" fill="white"/>
<path d="M14.6736 61.8041L8.43765 53.6608L9.83673 45.8011C9.79676 45.4162 8.57756 44.1197 8.17782 43.6741C7.73811 43.2082 7.35836 42.803 7.17848 42.4992C4.80004 38.7719 4.34034 36.7867 4.22042 33.7482C4.10049 30.5881 5.1598 27.5495 7.19846 25.1795C9.25711 22.7892 12.0952 21.3712 15.1932 21.1483C15.4131 21.1281 15.6529 21.1281 15.8728 21.1078C19.5304 21.0065 22.7283 22.1207 24.8469 24.3084C26.7856 26.2936 27.765 29.1093 27.665 32.4517L29.7836 37.9009C29.9435 38.2452 29.9235 38.7111 29.6837 39.1163C29.4239 39.5822 28.9842 39.8658 28.4845 39.886L27.765 39.9063L27.3652 45.4567C27.3252 46.9962 26.106 48.2522 24.587 48.2927H24.5071L21.3092 47.8673L20.7496 55.9093L14.6736 61.8041ZM9.15718 53.4785L14.7335 60.771L20.09 55.6054L20.6896 47.0975L24.5671 47.6242C25.7463 47.5837 26.6657 46.6316 26.6857 45.4364V45.4162L27.1454 39.2378L28.4645 39.1973C28.7243 39.1973 28.9642 39.0352 29.1041 38.7922C29.244 38.5491 29.244 38.306 29.184 38.2047L29.164 38.1844L26.9855 32.5733V32.4922C27.1054 29.3119 26.186 26.6582 24.3672 24.7743C22.3885 22.7486 19.3705 21.675 15.8927 21.7763C15.6929 21.7763 15.453 21.7966 15.2532 21.8168C12.3351 22.0194 9.65684 23.3766 7.71812 25.6251C5.77939 27.8534 4.78005 30.7299 4.89997 33.7077C5.01989 36.6247 5.4596 38.5288 7.73811 42.1143C7.898 42.3574 8.27775 42.7625 8.67749 43.2082C9.89669 44.5046 10.5363 45.3149 10.5163 45.8416V45.8821L9.15718 53.4785Z" fill="#052A39"/>
<path d="M15.8929 55.0989C10.4564 54.5115 8.69758 52.4047 8.69758 52.4047C8.69758 52.4047 6.9684 53.9525 5.05206 56.2822C12.412 67.0369 17.5872 71.0528 29.0081 74C28.5254 59.5236 20.9781 52.9978 20.8096 54.5722C20.8096 54.5722 20.0101 55.5648 15.8929 55.0989Z" fill="#02567F"/>
<path d="M10.0766 46.5708C10.0766 46.5708 4.24043 39.3593 4.06055 32.8366C3.90066 26.7393 7.47831 21.3914 14.5137 21.2091C17.6117 21.1281 27.2453 22.8297 27.2453 22.8297C27.2453 22.8297 28.1647 25.4631 25.9662 27.3672C25.5464 27.7318 20.11 28.927 18.1913 30.3247C17.072 31.135 16.6923 33.9507 16.6923 33.9507C16.6923 33.9507 13.5343 33.2822 13.6343 36.7057C13.6942 38.8529 14.8135 39.724 14.8135 39.724C14.8135 39.724 12.595 43.3297 11.8554 44.5046C11.3758 45.2744 10.0766 46.5708 10.0766 46.5708Z" fill="#052A39"/>
<path d="M47.772 53.0531C47.5721 52.8911 47.5122 52.5872 47.6921 52.3644L49.9906 49.3259C50.1504 49.103 50.4502 49.0625 50.6701 49.2246C50.89 49.3866 50.9299 49.6905 50.77 49.9133L48.4716 52.9721L48.1118 53.1544L47.772 53.0531ZM45.0938 49.5892C44.9739 49.3461 45.0938 49.0625 45.3336 48.941L48.3716 47.5433C48.6115 47.4217 48.8913 47.5433 49.0112 47.7863C49.1111 48.0294 49.0112 48.313 48.7714 48.4346L45.7334 49.8525L45.5535 49.8931C45.3536 49.8931 45.1737 49.7715 45.0938 49.5892ZM44.8939 46.1658C44.6341 46.1455 44.4342 45.9227 44.4342 45.6391C44.4542 45.3758 44.674 45.1732 44.9539 45.1732L48.7314 45.396C48.9912 45.4163 49.1911 45.6391 49.1911 45.9227C49.1711 46.1658 48.9712 46.3683 48.7314 46.3886H48.6714L44.8939 46.1658Z" fill="#9AC445"/>
<path d="M59.2844 47.9686L55.6668 50.1563C54.8073 50.4399 53.8879 50.0145 53.5282 49.1637L53.5082 49.103L52.4889 47.7052L55.0672 46.1049L54.6674 45.7201C54.6275 45.6795 53.4682 44.5857 51.4895 45.0921C51.0898 45.1934 50.83 45.1326 50.71 45.0921L49.9305 42.3979L48.2916 42.4992L48.2317 42.5195L47.9718 42.479L47.772 42.2764L48.2716 36.5234L48.2317 36.4221C47.4922 34.7003 47.1524 33.0595 47.2323 31.5402C48.4715 31.5402 53.0285 30.8717 55.0472 31.3984C56.3463 31.7428 57.6655 34.1331 57.6655 34.1331C57.6655 34.1331 60.3037 32.391 61.403 35.5308C62.1026 37.4957 61.403 38.6909 61.403 38.6909C61.403 38.6909 64.6609 41.142 65.7402 41.9523C66.0799 42.2156 66.5796 42.5195 66.9993 42.7828L67.0393 42.9043L67.0593 42.9449L70.8368 48.9004C70.0973 49.7715 69.3178 50.5615 68.5383 51.23C67.8588 51.7161 66.9993 52.3238 65.9001 53.0531C65.2005 53.519 64.481 53.9647 63.8214 54.3698C62.962 54.7952 62.2225 55.099 61.6828 55.3016L62.0626 53.3367L59.2844 47.9686Z" fill="white"/>
<path d="M52.9685 22.8297C52.4089 23.1133 51.8093 23.4374 51.1897 23.7818C51.7293 23.4374 52.3289 23.1133 52.9685 22.8297Z" fill="#2A391C"/>
<path d="M69.4377 32.4111C69.6775 34.0316 69.5976 35.7737 69.0779 38.4071L68.958 38.8123C69.3177 36.9284 69.5776 34.6393 69.4377 32.4111Z" fill="#2A391C"/>
<path d="M70.8567 48.8801L67.0792 42.9245L67.0592 42.884L67.0192 42.7625C67.4789 43.0461 67.8387 43.2487 67.8387 43.2487C67.8387 43.2487 67.8987 43.0663 67.9986 42.7422L71.5363 48.3332L71.3564 48.2319C71.1965 48.4749 71.0366 48.6775 70.8567 48.8801Z" fill="#052A39"/>
<path d="M46.9726 31.4996L47.2524 31.5199C47.1724 33.0594 47.4922 34.7002 48.2517 36.422L48.2917 36.5233L47.792 42.2763L47.9719 42.4789L48.2318 42.5194L48.2917 42.4991L49.9306 42.3979L50.7101 45.092C50.83 45.1325 51.0899 45.1933 51.4896 45.092C53.4483 44.5856 54.6076 45.6795 54.6675 45.72L55.0673 46.1251L52.4889 47.7254L53.5083 49.1232L53.5283 49.1839C53.868 50.0347 54.8074 50.4601 55.6669 50.1765L59.2845 47.9888L62.0827 53.3164L61.7029 55.2813C61.1633 55.4839 60.8235 55.5649 60.7635 55.5851L61.1832 53.4582L58.9447 49.2245L56.0266 50.9868L55.9867 51.0071C54.7075 51.473 53.2884 50.845 52.7488 49.5891L51.2098 47.5026L53.5083 46.0846C53.1085 45.9226 52.489 45.7808 51.6695 45.9833C50.6302 46.2467 50.0905 45.801 50.0306 45.7403L49.9306 45.6592L49.2511 43.3499L48.4116 43.3904C48.0519 43.4917 47.6321 43.4107 47.3123 43.1474C47.0125 42.9043 46.8327 42.5397 46.8726 42.2155L47.3523 36.7056C46.5528 34.842 46.2331 32.9986 46.353 31.297C46.5928 31.3376 46.7727 31.4186 46.9726 31.4996Z" fill="#052A39"/>
<path d="M68.5583 51.2096C66.8994 52.6478 65.2205 53.6607 63.8414 54.3494C64.501 53.9443 65.2005 53.4986 65.92 53.0327C67.0193 52.3035 67.8787 51.716 68.5583 51.2096Z" fill="#2A391C"/>
<path d="M67.0194 42.7625C66.5997 42.4992 66.08 42.1953 65.7402 41.932C64.661 41.1217 61.4031 38.6706 61.4031 38.6706C61.4031 38.6706 62.1226 37.4957 61.4231 35.5308C60.3238 32.3909 57.6855 34.133 57.6855 34.133C57.6855 34.133 56.3664 31.7225 55.0673 31.3983C53.0486 30.8717 48.4916 31.5401 47.2524 31.5401L46.9726 31.5199C46.7727 31.4389 46.5928 31.3578 46.4129 31.2768C44.3143 30.1829 44.2344 27.8736 44.2344 27.8736C44.2344 27.8736 47.912 25.6049 51.1898 23.802C51.8094 23.4576 52.409 23.1335 52.9686 22.8499C53.8481 22.4043 54.6275 22.0396 55.1872 21.8168C61.603 19.4467 66.7196 22.9917 68.7183 28.5826C69.138 29.7778 69.3579 31.0945 69.4378 32.4315C69.5777 34.6597 69.2979 36.9285 68.9581 38.8327C68.6184 40.6153 68.2186 42.0535 67.9988 42.7828C67.8988 43.0664 67.8389 43.2487 67.8389 43.2487C67.8389 43.2487 67.4791 43.0461 67.0194 42.7625Z" fill="#052A39"/>
<path d="M61.6829 53.8634C61.1233 54.066 60.7835 54.147 60.7436 54.1673C60.7248 54.1673 56.2863 62.7335 55.5432 70.4186C66.193 63.7365 70.0308 58.7891 73.3865 48C72.4952 47.4484 71.822 47.0903 71.5165 46.9355L71.3366 46.8545C71.1767 47.0773 71.0168 47.2799 70.8369 47.4825C70.0974 48.3535 69.3179 49.1435 68.5384 49.812C66.8595 51.2705 65.2006 52.2631 63.8215 52.9518C62.9621 53.3772 62.2226 53.6608 61.6829 53.8634Z" fill="#052A39"/>
<path d="M44.9538 45.1933L48.7314 45.4364C48.9912 45.4567 49.1911 45.6795 49.1911 45.9631C49.1711 46.2062 48.9912 46.4088 48.7314 46.429H48.6714L44.8939 46.1859C44.6341 46.1657 44.4142 45.9429 44.4342 45.6593C44.4742 45.3757 44.694 45.1731 44.9538 45.1933Z" fill="#02567F"/>
<path d="M45.3135 48.9409L48.3515 47.5432C48.5913 47.4217 48.8711 47.5432 48.991 47.7863C49.111 48.0294 48.991 48.313 48.7512 48.4345L45.7132 49.8323L45.5533 49.8728C45.3534 49.893 45.1735 49.7715 45.0936 49.5892C44.9737 49.3461 45.0736 49.0625 45.3135 48.9409Z" fill="#02567F"/>
<path d="M49.9906 49.3258C50.1505 49.1233 50.4503 49.0625 50.6701 49.2448C50.87 49.4068 50.93 49.7107 50.7701 49.9335L48.4716 52.9721L48.1118 53.1746L47.792 53.0734C47.5722 52.9113 47.5322 52.6074 47.7121 52.3846L49.9906 49.3258Z" fill="#02567F"/>
<path d="M51.7892 38.7514C51.2495 38.9337 50.6699 38.954 50.2102 38.7919L50.0303 38.4273L50.3701 38.245C51.0896 38.4881 52.2089 38.1032 52.6486 37.4955L53.0284 37.4347L53.0883 37.8398C52.8085 38.2652 52.3088 38.5893 51.7892 38.7514Z" fill="#052A39"/>
<path d="M51.4494 37.0094C50.9097 37.3943 50.3301 37.6779 49.8904 37.7792L49.7705 37.5969L50.1302 37.3133C50.7898 37.1512 51.9491 36.3612 52.4687 35.713L52.8485 35.4902L52.8685 35.7535C52.5087 36.1789 51.989 36.6246 51.4494 37.0094Z" fill="#052A39"/>
<path d="M26.9055 74.4443L27.585 68.3672L29.5837 64.9236C30.0234 64.1335 30.4831 62.6548 30.3632 61.257L30.3033 55.0382C30.3033 55.0382 28.8442 54.471 28.4445 56.841C28.4445 56.841 28.4245 58.806 28.3645 59.2516C28.3046 59.6973 27.9648 60.6088 27.2253 60.6696C27.2253 60.6696 26.3459 58.5426 26.8655 54.7748C27.0454 53.4581 29.2839 50.0144 29.2839 50.0144C29.2839 50.0144 29.7436 48.4952 28.6643 47.928L23.9874 54.0456L22.7682 67.5772L20.9294 73.3099" fill="white"/>
<path d="M21.2293 73.472L23.108 67.6785L24.3272 54.1873L28.7443 48.4141C29.204 48.8597 29.0242 49.67 28.9842 49.8726C28.7044 50.298 26.7457 53.4176 26.5458 54.7343C26.0061 58.5426 26.8856 60.7101 26.9255 60.8114L27.0255 61.0544L27.2853 61.0342C28.1847 60.9532 28.6444 59.9606 28.7443 59.3123C28.8043 58.8667 28.8243 57.1854 28.8443 56.8815C28.9642 56.1522 29.224 55.6458 29.5838 55.4433L30.0235 55.342L30.0835 61.2975C30.1834 62.5737 29.7837 63.9917 29.3439 64.7615L27.3253 68.2457L26.6257 74.3835L27.3053 74.5456L27.9848 68.509L29.9436 65.1058C30.4432 64.2145 30.8829 62.675 30.763 61.2367L30.723 54.795L30.5032 54.714C30.4832 54.714 29.8836 54.4709 29.264 54.8355C28.7244 55.1597 28.3646 55.8079 28.1847 56.7802V56.841C28.1847 57.3879 28.1447 58.8464 28.1048 59.2111C28.0648 59.4946 27.8849 60.0416 27.5251 60.2442C27.3253 59.5554 26.8856 57.6715 27.2853 54.8355C27.4252 53.8024 29.0441 51.1488 29.6437 50.217L29.6637 50.1764L29.6837 50.1359C29.6837 50.1157 29.8236 49.6903 29.8036 49.1839C29.7637 48.4546 29.4639 47.9279 28.8843 47.6443L28.6244 47.5228L23.7077 53.9645L22.4685 67.5367L20.6497 73.2086L21.2293 73.472Z" fill="#052A39"/>
<path d="M38.2583 77.8678H37.199V72.682H38.2583V77.8678ZM38.2583 67.4962H37.199V62.2902H38.2583V67.4962ZM38.2583 57.1044H37.199V51.9186H38.2583V57.1044ZM38.2583 46.7328H37.199V41.547H38.2583V46.7328ZM38.2583 36.341H37.199V31.1552H38.2583V36.341ZM38.2583 25.9492H37.199V20.7634H38.2583V25.9492ZM38.2583 15.5776H37.199V10.3918H38.2583V15.5776ZM38.2583 5.18578H37.199V0H38.2583V5.18578Z" fill="white"/>
</g>
<defs>
<clipPath id="clip0_534_498">
<rect width="75" height="75" rx="37.5" fill="white"/>
</clipPath>
</defs>
</svg>
