<svg width="75" height="75" viewBox="0 0 75 75" fill="none" xmlns="http://www.w3.org/2000/svg">
<rect width="75" height="75" rx="37.5" fill="#0075FF"/>
<path d="M17.6739 33.0712L12.7484 32.0778V42.9222L17.6739 42.4255V33.0712Z" fill="#234B7D"/>
<path d="M17.6739 22.4751L12.7484 20.3435V30.7739L17.6739 31.8708V22.4751Z" fill="#234B7D"/>
<path d="M17.6739 43.5846L12.7484 44.2261V54.8014L17.6739 52.9389V43.5846Z" fill="#234B7D"/>
<path d="M62.2723 20.3435L57.3675 22.4751V31.8708L62.2723 30.7739V20.3435Z" fill="#234B7D"/>
<path d="M21.813 24.2344L18.6673 22.8685V32.0779L21.813 32.7195V24.2344Z" fill="#234B7D"/>
<path d="M21.813 33.8163L18.6673 33.2369V42.3428L21.813 42.0324V33.8163Z" fill="#234B7D"/>
<path d="M21.8129 43.1084L18.5637 43.4809V52.6282L21.8129 51.4693V43.1084Z" fill="#234B7D"/>
<path d="M56.4776 43.4809L53.2284 43.1084V51.4693L56.4776 52.6282V43.4809Z" fill="#234B7D"/>
<path d="M56.3741 33.2369L53.2284 33.8163V42.0324L56.3741 42.3428V33.2369Z" fill="#234B7D"/>
<path d="M62.2723 44.2261L57.3675 43.5846V52.9389L62.2723 54.8014V44.2261Z" fill="#234B7D"/>
<path d="M56.3741 22.8685L53.2284 24.2344V32.7195L56.3741 32.0779V22.8685Z" fill="#234B7D"/>
<path d="M62.2723 32.0778L57.3675 33.0712V42.4462L62.2723 42.9222V32.0778Z" fill="#234B7D"/>
<path d="M23.6342 52.6283H51.3246V23.0547H23.6342V52.6283ZM25.1036 24.2343H49.8345V51.4694H25.1036V24.2343Z" fill="#162439"/>
<path d="M10.6167 58.0713L23.2409 52.6698V23.0341L10.6167 16.9289V58.0713V58.0713ZM18.6672 22.8685L21.8129 24.2344V32.7195L18.6672 32.0779V22.8685ZM18.6672 33.2369L21.8129 33.8163V42.0324L18.6672 42.3428V33.2369ZM18.5638 43.4811L21.8129 43.1086V51.4695L18.5638 52.6284V43.4811ZM12.7484 20.3437L17.6738 22.496V31.8917L12.7484 30.7948V20.3437ZM12.7484 32.0779L17.6738 33.0713V42.4463L12.7484 42.9223V32.0779ZM12.7484 44.2261L17.6738 43.5845V52.9389L12.7484 54.7807V44.2261Z" fill="#162439"/>
<path d="M51.7798 52.6698L64.404 58.0713V16.9289L51.7798 23.0341V52.6698ZM57.3676 22.4753L62.2724 20.3437V30.7948L57.3469 31.8917V22.4753H57.3676ZM57.3676 33.0713L62.2931 32.0779V42.9223L57.3676 42.4463V33.0713ZM57.3676 43.5845L62.2931 44.2261V54.8014L57.3676 52.9389V43.5845ZM53.2285 24.2344L56.3742 22.8685V32.0779L53.2285 32.7195V24.2344ZM53.2285 33.8163L56.3742 33.2369V42.3428L53.2285 42.0324V33.8163ZM53.2285 43.1086L56.4777 43.4604V52.6284L53.2285 51.4695V43.1086Z" fill="#162439"/>
<path d="M64.673 58.0713L65.7906 57.5539V17.3221L64.673 16.9289V58.0713Z" fill="#162439"/>
<path d="M49.8551 24.2342H25.1035V51.4693H49.8551V24.2342Z" fill="white"/>
<path d="M35.2029 38.7211V36.9827H33.2782V35.265L28.808 37.8519L33.2782 40.4388V38.7211H35.2029Z" fill="#CC1619"/>
<path d="M39.7557 36.9827V38.7211H41.6804V40.4388L46.1713 37.8519L41.6804 35.265V36.9827H39.7557Z" fill="#CC1619"/>
</svg>
