<svg width="58" height="65" viewBox="0 0 58 65" fill="none" xmlns="http://www.w3.org/2000/svg">
<path d="M22.3807 43.2991C20.6293 42.4161 19.0942 41.1575 17.885 39.6131L18.1194 39.4319V30.9093C18.1194 30.9093 21.3154 29.8439 28.7727 29.8439C36.2301 29.8439 39.4261 30.9093 39.4261 30.9093V39.4319L39.6605 39.6131C38.4513 41.1575 36.9162 42.4161 35.1647 43.2991C33.1708 44.2597 30.986 44.7586 28.7727 44.7586C26.5595 44.7586 24.3747 44.2597 22.3807 43.2991Z" fill="#F5F5F5"/>
<path d="M21.3154 28.7786C22.4921 28.7786 23.446 27.3477 23.446 25.5826C23.446 23.8175 22.4921 22.3866 21.3154 22.3866C20.1386 22.3866 19.1847 23.8175 19.1847 25.5826C19.1847 27.3477 20.1386 28.7786 21.3154 28.7786Z" fill="#351F0D"/>
<path d="M36.2301 28.7786C37.4069 28.7786 38.3608 27.3477 38.3608 25.5826C38.3608 23.8175 37.4069 22.3866 36.2301 22.3866C35.0534 22.3866 34.0994 23.8175 34.0994 25.5826C34.0994 27.3477 35.0534 28.7786 36.2301 28.7786Z" fill="#351F0D"/>
<path d="M33.0235 11.7546C32.7039 12.1913 27.4731 19.1906 20.2501 19.1906V12.7986L13.8581 18.1253V23.4519H11.7274C11.1628 23.4536 10.6219 23.6786 10.2227 24.0779C9.82345 24.4771 9.59843 25.018 9.59674 25.5826V26.6479C9.62396 27.7909 9.99114 28.8999 10.6514 29.8333C10.3318 29.7055 5.3354 27.5428 5.3354 22.3866C5.39572 20.7441 5.80727 19.1335 6.54233 17.6634C7.27739 16.1933 8.3189 14.8977 9.59674 13.8639C7.81198 13.9013 6.05507 13.4173 4.54126 12.4712C3.02745 11.5251 1.82251 10.1579 1.07406 8.53724C1.07406 8.53724 9.59674 7.47191 13.8581 5.34124C18.1194 3.21057 20.2501 0.014562 28.7728 0.014562C30.8507 -0.0489876 32.9119 0.404446 34.7713 1.33416C36.6307 2.26387 38.2302 3.64076 39.4261 5.34124C39.8755 4.63217 40.5098 4.05908 41.2607 3.68365C42.0115 3.30822 42.8506 3.14466 43.6875 3.21057C46.8835 3.21057 52.2101 5.34124 52.2101 11.7332V20.8951C52.2103 21.8638 51.8796 22.8035 51.2726 23.5585L47.9488 27.7133L47.8316 27.7239C47.908 27.3703 47.9473 27.0097 47.9488 26.6479V25.5826C47.9471 25.018 47.7221 24.4771 47.3229 24.0779C46.9237 23.6786 46.3827 23.4536 45.8181 23.4519H43.6875V19.1906C38.3608 19.1906 38.3608 10.6679 38.3608 10.6679C38.3608 10.6679 35.1648 15.9946 31.9688 15.9946L33.0235 11.7546Z" fill="#28180B"/>
<path d="M45.8181 23.4519H43.6874V19.1906C38.3607 19.1906 38.3607 10.6679 38.3607 10.6679C38.3607 10.6679 35.1647 15.9946 31.9687 15.9946L33.0234 11.7545C32.7038 12.1913 27.473 19.1906 20.25 19.1906V12.7986L13.858 18.1252V23.4519H11.7274C11.1628 23.4536 10.6218 23.6786 10.2226 24.0778C9.8234 24.477 9.59838 25.018 9.59669 25.5826V26.6479C9.62391 27.7909 9.99109 28.8999 10.6514 29.8333L10.662 29.8439C11.6897 31.3514 13.1884 32.4754 14.9234 33.0399C15.3766 35.4344 16.3917 37.6872 17.885 39.613L18.1194 39.4319V30.9092C18.1194 30.9092 21.3154 29.8439 28.7727 29.8439C36.2301 29.8439 39.4261 30.9092 39.4261 30.9092V39.4319L39.6604 39.613C41.1538 37.6872 42.1688 35.4344 42.6221 33.0399C43.8606 32.6504 44.9839 31.9616 45.8926 31.0343C46.8012 30.107 47.4672 28.97 47.8316 27.7239C47.9079 27.3703 47.9472 27.0097 47.9487 26.6479V25.5826C47.9471 25.018 47.722 24.477 47.3228 24.0778C46.9236 23.6786 46.3826 23.4536 45.8181 23.4519ZM21.3154 28.7786C20.1435 28.7786 19.1847 27.351 19.1847 25.5826C19.1847 23.8141 20.1435 22.3866 21.3154 22.3866C22.4872 22.3866 23.446 23.8141 23.446 25.5826C23.446 27.351 22.4872 28.7786 21.3154 28.7786ZM36.2301 28.7786C35.0582 28.7786 34.0994 27.351 34.0994 25.5826C34.0994 23.8141 35.0582 22.3866 36.2301 22.3866C37.4019 22.3866 38.3607 23.8141 38.3607 25.5826C38.3607 27.351 37.4019 28.7786 36.2301 28.7786Z" fill="#F2C4B2"/>
<path d="M35.1648 48.4021C35.1645 48.7587 35.2542 49.1097 35.4255 49.4226C35.5968 49.7354 35.8442 50 36.1449 50.1918C35.7294 50.7458 33.5135 53.2813 28.7728 53.2813C24.032 53.2813 21.8161 50.7458 21.4007 50.1918C21.7013 50 21.9488 49.7354 22.1201 49.4226C22.2914 49.1097 22.381 48.7587 22.3808 48.4021V43.2991C24.3747 44.2597 26.5595 44.7586 28.7728 44.7586C30.986 44.7586 33.1708 44.2597 35.1648 43.2991V48.4021Z" fill="#F2B59D"/>
<path d="M57.5368 60.4617V65H0.0086937V60.4617C0.0098097 59.0238 0.494888 57.6282 1.38579 56.4995C2.2767 55.3709 3.52157 54.5751 4.91989 54.2401L20.7401 50.4795C20.9749 50.4215 21.1982 50.3242 21.4006 50.1918C21.8161 50.7458 24.032 53.2813 28.7727 53.2813C33.5135 53.2813 35.7294 50.7458 36.1449 50.1918C36.3473 50.3242 36.5706 50.4215 36.8054 50.4795L52.6256 54.2401C54.0239 54.5751 55.2688 55.3709 56.1597 56.4995C57.0506 57.6282 57.5357 59.0238 57.5368 60.4617Z" fill="#2C2E31"/>
<path d="M10.662 62.4448C10.6613 61.9186 10.8304 61.4063 11.1442 60.984C11.458 60.5617 11.8998 60.252 12.4039 60.1011L41.2989 51.4324L36.8054 50.3671C36.5706 50.3091 36.3473 50.2118 36.1449 50.0794C35.7294 50.6334 33.5135 53.1689 28.7727 53.1689C24.032 53.1689 21.8161 50.6334 21.4006 50.0794C21.1982 50.2118 20.9749 50.3091 20.7401 50.3671L4.91989 54.1288C3.52157 54.4637 2.2767 55.2596 1.38579 56.3882C0.494888 57.5168 0.0098097 58.9125 0.0086937 60.3503V64.8887H13.1059C12.4578 64.8887 11.8362 64.6312 11.3778 64.1729C10.9195 63.7146 10.662 63.0929 10.662 62.4448V62.4448Z" fill="#181818"/>
<path d="M35.1648 43.2991C33.1708 44.2597 30.986 44.7586 28.7728 44.7586C26.5595 44.7586 24.3747 44.2597 22.3808 43.2991V48.4021C22.381 48.7587 22.2914 49.1097 22.1201 49.4226C21.9488 49.7354 21.7013 50 21.4007 50.1918C22.0636 50.9934 22.8847 51.6498 23.8126 52.1201L35.1648 45.025V43.2991Z" fill="#ED9776"/>
<path d="M36.8054 50.4795C36.5135 50.4072 36.2397 50.2753 36.0013 50.0919C35.7629 49.9085 35.5652 49.6778 35.4204 49.4141C35.4002 49.4376 35.3736 49.4536 35.3555 49.4791C35.3374 49.5047 35.3118 49.5303 35.2915 49.5569C35.087 49.8296 33.1694 52.2202 28.7717 52.2202C24.374 52.2202 22.4564 49.8296 22.2518 49.5569C22.2316 49.5303 22.2103 49.5047 22.1879 49.4791C22.1655 49.4536 22.1432 49.4376 22.1229 49.4141C21.9782 49.6778 21.7804 49.9085 21.5421 50.0919C21.3037 50.2753 21.0299 50.4072 20.738 50.4795L20.3651 50.5679C20.4233 50.6843 20.4975 50.7919 20.5857 50.8875C21.1247 51.5768 23.5974 54.3466 28.7728 54.3466C33.9482 54.3466 36.4208 51.5768 36.9577 50.8843C37.0459 50.7887 37.1201 50.6811 37.1782 50.5647L36.8054 50.4795Z" fill="#E3E3E3"/>
<path d="M13.858 25.5826H12.7927C12.5101 25.5826 12.2392 25.6948 12.0394 25.8946C11.8396 26.0944 11.7273 26.3654 11.7273 26.6479V27.7133C11.7273 28.8905 12.6808 30.9093 13.858 30.9093V25.5826Z" fill="#F2A283"/>
<path d="M43.6874 25.5826H44.7528C45.0353 25.5826 45.3063 25.6948 45.5061 25.8946C45.7059 26.0944 45.8181 26.3654 45.8181 26.6479V27.7133C45.8181 28.8905 44.8593 30.9093 43.6874 30.9093V25.5826Z" fill="#F2A283"/>
<path d="M9.59672 13.8639C8.31888 14.8977 7.27737 16.1932 6.54231 17.6634C5.80725 19.1335 5.3957 20.744 5.33538 22.3866C5.33538 27.5428 10.3318 29.7054 10.6514 29.8333C9.99112 28.8999 9.62394 27.7909 9.59672 26.6479V25.5826C9.5984 25.018 9.82343 24.477 10.2226 24.0778C10.6219 23.6786 11.1628 23.4536 11.7274 23.4519H13.8581V18.1252L7.46605 20.2559C7.3555 17.9342 8.11529 15.6549 9.59672 13.8639Z" fill="black"/>
<path d="M43.6874 19.1906V23.4519H45.8181C46.3827 23.4536 46.9237 23.6786 47.3229 24.0778C47.7221 24.4771 47.9471 25.018 47.9488 25.5826V21.3213L43.6874 19.1906Z" fill="black"/>
<path d="M20.2501 12.7986L13.8581 18.1252V19.1906V20.2559L20.2501 14.9292V12.7986Z" fill="#D9896D"/>
<path d="M38.3607 12.7986C38.3607 12.7986 38.3607 21.3212 43.6874 21.3212V19.1906C38.3607 19.1906 38.3607 10.6679 38.3607 10.6679C38.3607 10.6679 35.5173 15.4022 32.512 15.9402L31.9687 18.1252C35.1647 18.1252 38.3607 12.7986 38.3607 12.7986Z" fill="#D9896D"/>
<path d="M32.2574 14.8334L33.0234 11.7546C32.7038 12.1914 27.473 19.1906 20.2501 19.1906V21.3213C26.0284 21.3213 30.5241 16.8469 32.2574 14.8334Z" fill="#D9896D"/>
<path d="M29.8381 29.8535V29.8439C29.8381 28.6667 29.3608 27.7133 28.7727 27.7133C28.1847 27.7133 27.7074 28.6667 27.7074 29.8439V29.8535C28.0558 29.8535 28.4052 29.8439 28.7727 29.8439C29.1403 29.8439 29.4897 29.8439 29.8381 29.8535Z" fill="#D9896D"/>
<path d="M28.7727 42.628C28.0046 42.634 27.2381 42.5572 26.4865 42.3989C25.3135 42.1308 24.2672 41.4704 23.5205 40.5267C22.7739 39.5831 22.3718 38.4129 22.3807 37.2097V30.155C20.9398 30.2724 19.5131 30.5249 18.1194 30.9093V39.432L17.885 39.6131C19.0942 41.1575 20.6293 42.4161 22.3807 43.2991C24.3747 44.2598 26.5595 44.7586 28.7727 44.7586C30.986 44.7586 33.1708 44.2598 35.1647 43.2991C36.9162 42.4161 38.4513 41.1575 39.6605 39.6131L39.4261 39.432C39.4261 39.432 34.0994 42.628 28.7727 42.628Z" fill="#D4D4D4"/>
<path d="M21.3154 35.7033C21.1891 35.703 21.0671 35.6579 20.971 35.5759C20.8749 35.494 20.8111 35.3806 20.7908 35.2559C20.7706 35.1313 20.7953 35.0035 20.8606 34.8954C20.9258 34.7873 21.0274 34.7058 21.1471 34.6656C26.1264 33.2083 31.4191 33.2083 36.3984 34.6656C36.4648 34.6878 36.5262 34.7227 36.5791 34.7685C36.6319 34.8144 36.6753 34.8702 36.7066 34.9327C36.7379 34.9953 36.7566 35.0634 36.7615 35.1332C36.7665 35.203 36.7577 35.2731 36.7356 35.3395C36.7135 35.4059 36.6785 35.4672 36.6327 35.5201C36.5869 35.573 36.5311 35.6163 36.4685 35.6476C36.406 35.6789 36.3378 35.6976 36.268 35.7026C36.1983 35.7076 36.1282 35.6988 36.0618 35.6766C31.301 34.2924 26.2445 34.2924 21.4837 35.6766C21.4295 35.6948 21.3726 35.7038 21.3154 35.7033Z" fill="#D4D4D4"/>
<path d="M21.3154 39.9646C21.1891 39.9643 21.0671 39.9192 20.971 39.8373C20.8749 39.7553 20.8111 39.6419 20.7908 39.5173C20.7706 39.3926 20.7953 39.2648 20.8606 39.1567C20.9258 39.0486 21.0274 38.9672 21.1471 38.927C26.1264 37.4696 31.4191 37.4696 36.3984 38.927C36.4648 38.9491 36.5262 38.9841 36.5791 39.0299C36.6319 39.0757 36.6753 39.1315 36.7066 39.1941C36.7379 39.2566 36.7566 39.3248 36.7615 39.3946C36.7665 39.4643 36.7577 39.5344 36.7356 39.6008C36.7135 39.6672 36.6785 39.7286 36.6327 39.7814C36.5869 39.8343 36.5311 39.8776 36.4685 39.909C36.406 39.9403 36.3378 39.9589 36.268 39.9639C36.1983 39.9689 36.1282 39.9601 36.0618 39.938C31.301 38.5538 26.2445 38.5538 21.4837 39.938C21.4295 39.9561 21.3726 39.9651 21.3154 39.9646Z" fill="#D4D4D4"/>
<path d="M53.2754 43.6933H51.1448V41.5626C51.1448 41.2801 51.0325 41.0091 50.8328 40.8093C50.633 40.6095 50.362 40.4973 50.0794 40.4973C49.7969 40.4973 49.5259 40.6095 49.3261 40.8093C49.1263 41.0091 49.0141 41.2801 49.0141 41.5626V43.6933H46.8834C46.6009 43.6933 46.3299 43.8055 46.1301 44.0053C45.9303 44.2051 45.8181 44.4761 45.8181 44.7586C45.8181 45.0412 45.9303 45.3121 46.1301 45.5119C46.3299 45.7117 46.6009 45.824 46.8834 45.824H49.0141V47.9546C49.0141 48.2372 49.1263 48.5081 49.3261 48.7079C49.5259 48.9077 49.7969 49.02 50.0794 49.02C50.362 49.02 50.633 48.9077 50.8328 48.7079C51.0325 48.5081 51.1448 48.2372 51.1448 47.9546V45.824H53.2754C53.558 45.824 53.829 45.7117 54.0288 45.5119C54.2285 45.3121 54.3408 45.0412 54.3408 44.7586C54.3408 44.4761 54.2285 44.2051 54.0288 44.0053C53.829 43.8055 53.558 43.6933 53.2754 43.6933Z" fill="#0075FF"/>
<path d="M10.6621 35.1706H8.53139V33.0399C8.53139 32.7574 8.41915 32.4864 8.21937 32.2866C8.01958 32.0868 7.7486 31.9746 7.46606 31.9746C7.18352 31.9746 6.91254 32.0868 6.71275 32.2866C6.51297 32.4864 6.40072 32.7574 6.40072 33.0399V35.1706H4.27005C3.98751 35.1706 3.71654 35.2828 3.51675 35.4826C3.31696 35.6824 3.20472 35.9534 3.20472 36.2359C3.20472 36.5185 3.31696 36.7895 3.51675 36.9893C3.71654 37.189 3.98751 37.3013 4.27005 37.3013H6.40072V39.4319C6.40072 39.7145 6.51297 39.9855 6.71275 40.1853C6.91254 40.385 7.18352 40.4973 7.46606 40.4973C7.7486 40.4973 8.01958 40.385 8.21937 40.1853C8.41915 39.9855 8.53139 39.7145 8.53139 39.4319V37.3013H10.6621C10.9446 37.3013 11.2156 37.189 11.4154 36.9893C11.6152 36.7895 11.7274 36.5185 11.7274 36.2359C11.7274 35.9534 11.6152 35.6824 11.4154 35.4826C11.2156 35.2828 10.9446 35.1706 10.6621 35.1706Z" fill="#0075FF"/>
<path d="M43.9517 22.9896C43.8909 22.9548 43.8238 22.9322 43.7544 22.9233C43.6849 22.9144 43.6143 22.9193 43.5467 22.9377C43.4792 22.9561 43.4159 22.9877 43.3605 23.0306C43.3051 23.0735 43.2587 23.1269 43.224 23.1877L39.1758 30.2829C35.7604 29.5378 32.267 29.2115 28.7728 29.3113C25.2803 29.2119 21.7887 29.5382 18.3751 30.2829L14.3268 23.1877C14.2562 23.0648 14.1396 22.975 14.0028 22.9381C13.8659 22.9011 13.72 22.92 13.5971 22.9907C13.4742 23.0613 13.3843 23.1779 13.3474 23.3147C13.3104 23.4516 13.3293 23.5975 13.4 23.7204L17.5867 31.0521V39.432C17.5867 39.5732 17.6429 39.7087 17.7428 39.8086C17.8427 39.9085 17.9781 39.9646 18.1194 39.9646C18.1407 39.962 18.1617 39.9577 18.1823 39.9519C18.0853 39.8368 17.9788 39.7313 17.885 39.6131L18.1194 39.432V30.9093C18.1194 30.9093 21.3154 29.844 28.7728 29.844C36.2301 29.844 39.4261 30.9093 39.4261 30.9093V39.432L39.6605 39.6131C39.5667 39.7313 39.4602 39.8368 39.3633 39.9519C39.3838 39.9577 39.4049 39.962 39.4261 39.9646C39.5674 39.9646 39.7029 39.9085 39.8028 39.8086C39.9027 39.7087 39.9588 39.5732 39.9588 39.432V31.0521L44.1509 23.7162C44.1855 23.6554 44.2078 23.5884 44.2166 23.5189C44.2253 23.4495 44.2203 23.3791 44.2018 23.3116C44.1833 23.2441 44.1516 23.181 44.1087 23.1257C44.0658 23.0705 44.0124 23.0242 43.9517 22.9896Z" fill="#BFBFBF"/>
<path d="M19.2848 21.8337C19.2625 21.8401 19.2412 21.8454 19.2188 21.8497C18.8992 21.9072 18.6542 21.399 18.6542 21.0549C18.6542 20.958 18.6904 18.6579 21.8502 18.6579C25.01 18.6579 25.0462 20.958 25.0462 21.0549C25.0511 21.1952 25.0208 21.3345 24.9581 21.4601C24.8953 21.5857 24.8022 21.6936 24.6872 21.774C24.4538 21.9157 24.2291 21.7836 24.048 21.561C23.9595 21.4544 23.8914 21.3181 23.7965 21.2158C23.7034 21.1229 23.5954 21.0462 23.4769 20.9889C23.1975 20.825 22.9019 20.6904 22.5948 20.5872C22.1868 20.4699 21.7558 20.4562 21.3412 20.5476C20.9265 20.6389 20.5412 20.8323 20.2202 21.1103C19.9532 21.4044 19.6366 21.6493 19.2848 21.8337Z" fill="#3B220E"/>
<path d="M38.2627 21.8337C38.2851 21.8401 38.3064 21.8454 38.3288 21.8497C38.6484 21.9072 38.8934 21.399 38.8934 21.0549C38.8934 20.958 38.8572 18.6579 35.6974 18.6579C32.5376 18.6579 32.5014 20.958 32.5014 21.0549C32.4965 21.1952 32.5268 21.3345 32.5895 21.4601C32.6522 21.5857 32.7453 21.6936 32.8604 21.774C33.0927 21.9157 33.3185 21.7836 33.4996 21.561C33.588 21.4544 33.6562 21.3181 33.75 21.2158C33.8433 21.1231 33.9513 21.0464 34.0696 20.9889C34.3495 20.8252 34.6454 20.6906 34.9527 20.5872C35.3608 20.4699 35.7917 20.4562 36.2064 20.5476C36.6211 20.6389 37.0064 20.8323 37.3274 21.1103C37.5941 21.4046 37.9108 21.6495 38.2627 21.8337Z" fill="#3B220E"/>
</svg>
