<svg width="72" height="91" viewBox="0 0 72 91" fill="none" xmlns="http://www.w3.org/2000/svg">
<path fill-rule="evenodd" clip-rule="evenodd" d="M28.6944 44.1267C33.4519 44.6566 37.7153 46.8182 40.9091 50.0377C41.6563 49.3749 42.4358 48.491 43.2287 47.3224C43.2287 47.3224 44.8366 45.4267 47.0035 47.837C49.1704 50.2474 48.13 53.0608 46.1952 53.6784C45.6346 53.8574 44.9938 54.2316 44.3984 54.7473C45.9371 57.609 46.8099 60.8803 46.8099 64.3549C46.8099 65.0935 46.7704 65.8229 46.6936 66.5412C47.8664 67.317 49.6305 67.9413 52.2831 68.089C52.2831 68.089 54.7338 68.4921 53.7793 71.5887C52.8163 74.6852 49.8583 75.2342 48.3363 73.8961C47.6311 73.2761 46.3888 72.7371 45.0642 72.6051C42.9276 77.4067 38.983 81.2302 34.0925 83.2158C34.0482 84.4947 34.314 86.1046 35.1199 88.118C35.1199 88.118 35.7906 90.5111 32.5661 90.9486C29.3415 91.3861 27.596 88.9414 28.1721 87.0029C28.3599 86.3709 28.3988 85.5156 28.2523 84.6275C27.6438 84.682 27.0276 84.7098 26.4049 84.7098C23.7431 84.7098 21.2003 84.2014 18.8689 83.2766C17.9842 83.7068 17.0885 84.3177 16.4519 85.1758C16.0134 85.7677 15.3685 85.9993 14.6634 85.9993C12.3245 86.0164 10.6133 83.5374 11.9634 82.2079C12.5674 81.6123 13.163 80.9104 13.5573 80.1694C11.382 78.4086 9.57712 76.2103 8.27731 73.7087C6.95967 73.6844 5.23695 73.8713 3.63124 74.7195C2.83155 75.1398 2.10927 75.1227 1.47296 74.8654C-0.616552 73.999 -0.427378 70.911 1.68793 70.0962C3.39481 69.4413 5.31537 68.4372 6.17694 67.0476C6.06021 66.1666 5.99997 65.2678 5.99997 64.3549C5.99997 61.093 6.76912 58.0103 8.13636 55.2775C7.36344 54.6004 6.34902 53.9197 5.02425 53.2667C5.02425 53.2667 2.92614 51.9372 5.02425 49.4582C7.12236 46.9878 10.0631 47.6312 10.9402 49.4582C11.0847 49.7591 11.2953 50.0769 11.5592 50.3903C14.5137 47.266 18.4483 45.0741 22.8727 44.3039C23.3541 43.2535 23.7523 41.9519 23.7523 40.5202C23.7523 39.6195 24.1048 38.9848 24.638 38.5473C26.3835 37.1063 29.032 38.7189 28.7568 40.9663C28.6351 41.9759 28.5781 43.0922 28.6944 44.1267Z" fill="url(#paint0_linear)"/>
<path d="M9.29164 52.1025C9.76552 51.433 9.68108 50.5602 9.10304 50.153C8.52501 49.7459 7.67226 49.9586 7.19838 50.6281C6.7245 51.2976 6.80893 52.1704 7.38696 52.5775C7.965 52.9846 8.81775 52.772 9.29164 52.1025Z" fill="white"/>
<path d="M47.3873 50.5627C47.7256 50.2578 47.4319 49.3838 46.7313 48.6106C46.0308 47.8373 45.1887 47.4577 44.8505 47.7626C44.5123 48.0676 44.806 48.9416 45.5065 49.7148C46.207 50.488 47.0491 50.8677 47.3873 50.5627Z" fill="white"/>
<path d="M52.2457 71.643C52.4187 70.8418 52.1939 70.1138 51.7436 70.017C51.2932 69.9203 50.7879 70.4913 50.6149 71.2925C50.4418 72.0937 50.6666 72.8217 51.117 72.9184C51.5673 73.0152 52.0726 72.4442 52.2457 71.643Z" fill="white"/>
<path d="M32.3331 90.0558C33.1343 89.8743 33.7232 89.4613 33.6486 89.1332C33.5739 88.8052 32.8638 88.6865 32.0626 88.868C31.2614 89.0496 30.6725 89.4626 30.7472 89.7906C30.8219 90.1186 31.5319 90.2374 32.3331 90.0558Z" fill="white"/>
<path d="M26.289 40.8033C27.1106 40.8033 27.7766 40.5153 27.7766 40.16C27.7766 39.8047 27.1106 39.5166 26.289 39.5166C25.4674 39.5166 24.8014 39.8047 24.8014 40.16C24.8014 40.5153 25.4674 40.8033 26.289 40.8033Z" fill="white"/>
<path d="M35.3778 74.5823C37.5196 74.5823 39.2559 72.8503 39.2559 70.7138C39.2559 68.5772 37.5196 66.8452 35.3778 66.8452C33.236 66.8452 31.4998 68.5772 31.4998 70.7138C31.4998 72.8503 33.236 74.5823 35.3778 74.5823Z" fill="white"/>
<path d="M32.1124 59.6993C32.6102 59.1204 32.2131 57.966 31.2255 57.1208C30.2379 56.2757 29.0337 56.0599 28.5359 56.6388C28.038 57.2176 28.4351 58.3721 29.4227 59.2172C30.4103 60.0624 31.6146 60.2782 32.1124 59.6993Z" fill="white"/>
<path d="M20.9167 62.8626C21.4146 62.2837 21.4178 61.4718 20.924 61.0493C20.4302 60.6267 19.6263 60.7534 19.1285 61.3323C18.6307 61.9112 18.6274 62.723 19.1212 63.1456C19.615 63.5682 20.4189 63.4415 20.9167 62.8626Z" fill="white"/>
<path d="M22.099 75.9718C23.2802 74.5983 23.1711 72.5722 21.8555 71.4464C20.5399 70.3205 18.5158 70.5213 17.3347 71.8948C16.1535 73.2684 16.2625 75.2945 17.5781 76.4204C18.8938 77.5462 20.9178 77.3454 22.099 75.9718Z" fill="white"/>
<path d="M2.79886 73.9637C3.11365 73.7974 3.05727 73.0755 2.67294 72.3512C2.28861 71.6269 1.72186 71.1744 1.40707 71.3406C1.09228 71.5068 1.14866 72.2288 1.53299 72.9531C1.91733 73.6774 2.48408 74.1299 2.79886 73.9637Z" fill="white"/>
<path d="M15.2922 84.8375C15.4318 84.5843 14.9108 84.0311 14.1285 83.6019C13.3463 83.1727 12.5989 83.0301 12.4593 83.2833C12.3197 83.5365 12.8407 84.0897 13.623 84.5188C14.4053 84.948 15.1526 85.0907 15.2922 84.8375Z" fill="white"/>
<g opacity="0.75">
<path d="M50.7155 24.9201C50.3531 23.9883 49.6802 24.3564 49.6802 24.3564C49.1568 24.7245 48.7139 24.9201 48.3343 25.0064C47.6728 23.9653 46.5973 23.2004 45.3262 22.9358C45.3492 22.723 45.401 22.5274 45.4757 22.3836C45.7518 21.8602 45.3894 21.0608 44.4404 21.0032C43.4914 20.9457 43.5489 21.6704 43.5489 21.6704C43.641 22.1651 43.6467 22.5619 43.6065 22.8898C42.5769 23.0451 41.6566 23.5225 40.9664 24.2126C40.6961 24.0689 40.4545 23.8215 40.2532 23.5685C39.8851 23.1083 39.0569 23.557 38.9821 24.2817C38.9591 24.506 39.0109 24.7073 39.1777 24.8683C39.5515 25.2134 39.7299 25.7253 39.8104 26.1164C39.6838 26.5248 39.6148 26.9619 39.6148 27.4106C39.6148 27.8304 39.6781 28.233 39.7874 28.6184C39.4998 28.7794 39.1892 28.86 38.9591 28.8542C38.3322 28.8312 37.7398 29.6077 38.1194 30.6257C38.499 31.638 39.1604 31.2181 39.1604 31.2181C39.8161 30.689 40.3568 30.4762 40.7881 30.4244C41.6509 31.3849 42.9162 31.9946 44.3311 31.9946C44.8258 31.9946 45.3032 31.9198 45.7518 31.7818C45.8036 31.9716 45.8266 32.1499 45.8151 32.2994C45.7691 32.9206 46.4593 33.5475 47.3968 33.2024C48.3343 32.8573 47.9777 32.1787 47.9777 32.1787C47.6441 31.684 47.4658 31.2641 47.3795 30.9018C48.3976 30.0621 49.0417 28.8082 49.0417 27.4106C49.0417 27.1747 49.0187 26.9504 48.9842 26.7261C49.2833 26.5766 49.5996 26.5018 49.8412 26.5133C50.4739 26.5593 51.0836 25.8576 50.7155 24.9201Z" fill="url(#paint1_linear)"/>
<path d="M50.5158 25.6243C50.6383 25.5638 50.6464 25.3301 50.5339 25.1022C50.4214 24.8743 50.231 24.7386 50.1085 24.7991C49.986 24.8595 49.9779 25.0933 50.0904 25.3211C50.2028 25.549 50.3933 25.6847 50.5158 25.6243Z" fill="white"/>
<path d="M38.7944 30.8348C38.9553 30.7853 39.004 30.4794 38.9032 30.1515C38.8023 29.8236 38.5902 29.5979 38.4292 29.6474C38.2683 29.6968 38.2196 30.0028 38.3204 30.3307C38.4213 30.6586 38.6335 30.8843 38.7944 30.8348Z" fill="white"/>
<path d="M47.3161 32.9645C47.6383 32.8136 47.8492 32.584 47.7872 32.4517C47.7253 32.3194 47.4139 32.3344 47.0917 32.4853C46.7695 32.6362 46.5585 32.8657 46.6205 32.9981C46.6825 33.1304 46.9939 33.1154 47.3161 32.9645Z" fill="white"/>
<path d="M45.0895 21.5096C45.0965 21.3764 44.8399 21.2545 44.5164 21.2374C44.1928 21.2203 43.9248 21.3145 43.9178 21.4477C43.9107 21.5809 44.1673 21.7028 44.4909 21.7199C44.8144 21.737 45.0824 21.6429 45.0895 21.5096Z" fill="white"/>
<path d="M46.1142 29.2338C46.759 29.2338 47.2818 28.7111 47.2818 28.0663C47.2818 27.4214 46.759 26.8987 46.1142 26.8987C45.4693 26.8987 44.9466 27.4214 44.9466 28.0663C44.9466 28.7111 45.4693 29.2338 46.1142 29.2338Z" fill="white"/>
<path d="M44.3369 26.174C44.5815 26.174 44.7798 25.9757 44.7798 25.7311C44.7798 25.4865 44.5815 25.2882 44.3369 25.2882C44.0923 25.2882 43.894 25.4865 43.894 25.7311C43.894 25.9757 44.0923 26.174 44.3369 26.174Z" fill="white"/>
<path d="M42.8608 28.8819C43.2019 28.685 43.2299 28.0949 42.9234 27.564C42.6168 27.0331 42.0918 26.7623 41.7507 26.9593C41.4096 27.1562 41.3816 27.7463 41.6881 28.2772C41.9946 28.8081 42.5197 29.0789 42.8608 28.8819Z" fill="white"/>
<path d="M39.6788 24.1959C39.8765 23.9982 39.9858 23.787 39.9229 23.7241C39.86 23.6612 39.6488 23.7705 39.4511 23.9681C39.2534 24.1658 39.1442 24.377 39.2071 24.4399C39.27 24.5028 39.4812 24.3935 39.6788 24.1959Z" fill="white"/>
</g>
<g opacity="0.75">
<path d="M71.7155 54.9201C71.3531 53.9883 70.6802 54.3564 70.6802 54.3564C70.1568 54.7245 69.7139 54.9201 69.3343 55.0064C68.6728 53.9653 67.5973 53.2004 66.3262 52.9358C66.3492 52.723 66.401 52.5274 66.4757 52.3836C66.7518 51.8602 66.3894 51.0608 65.4404 51.0032C64.4914 50.9457 64.5489 51.6704 64.5489 51.6704C64.641 52.1651 64.6467 52.5619 64.6065 52.8898C63.5769 53.0451 62.6566 53.5225 61.9664 54.2126C61.6961 54.0689 61.4545 53.8215 61.2532 53.5685C60.8851 53.1083 60.0569 53.557 59.9821 54.2817C59.9591 54.506 60.0109 54.7073 60.1777 54.8683C60.5515 55.2134 60.7299 55.7253 60.8104 56.1164C60.6838 56.5248 60.6148 56.9619 60.6148 57.4106C60.6148 57.8304 60.6781 58.233 60.7874 58.6184C60.4998 58.7794 60.1892 58.86 59.9591 58.8542C59.3322 58.8312 58.7398 59.6077 59.1194 60.6257C59.499 61.638 60.1604 61.2181 60.1604 61.2181C60.8161 60.689 61.3568 60.4762 61.7881 60.4244C62.6509 61.3849 63.9162 61.9946 65.3311 61.9946C65.8258 61.9946 66.3032 61.9198 66.7518 61.7818C66.8036 61.9716 66.8266 62.1499 66.8151 62.2994C66.7691 62.9206 67.4593 63.5475 68.3968 63.2024C69.3343 62.8573 68.9777 62.1787 68.9777 62.1787C68.6441 61.684 68.4658 61.2641 68.3795 60.9018C69.3976 60.0621 70.0417 58.8082 70.0417 57.4106C70.0417 57.1747 70.0187 56.9504 69.9842 56.7261C70.2833 56.5766 70.5996 56.5018 70.8412 56.5133C71.4739 56.5593 72.0836 55.8576 71.7155 54.9201Z" fill="url(#paint2_linear)"/>
<path d="M71.5158 55.6243C71.6383 55.5638 71.6464 55.3301 71.5339 55.1022C71.4214 54.8743 71.231 54.7386 71.1085 54.7991C70.986 54.8595 70.9779 55.0933 71.0904 55.3211C71.2028 55.549 71.3933 55.6847 71.5158 55.6243Z" fill="white"/>
<path d="M59.7944 60.8348C59.9553 60.7853 60.004 60.4794 59.9032 60.1515C59.8023 59.8236 59.5902 59.5979 59.4292 59.6474C59.2683 59.6968 59.2196 60.0028 59.3204 60.3307C59.4213 60.6586 59.6335 60.8843 59.7944 60.8348Z" fill="white"/>
<path d="M68.3161 62.9645C68.6383 62.8136 68.8492 62.584 68.7872 62.4517C68.7253 62.3194 68.4139 62.3344 68.0917 62.4853C67.7695 62.6362 67.5585 62.8657 67.6205 62.9981C67.6825 63.1304 67.9939 63.1154 68.3161 62.9645Z" fill="white"/>
<path d="M66.0895 51.5096C66.0965 51.3764 65.8399 51.2545 65.5164 51.2374C65.1928 51.2203 64.9248 51.3145 64.9178 51.4477C64.9107 51.5809 65.1673 51.7028 65.4909 51.7199C65.8144 51.737 66.0824 51.6429 66.0895 51.5096Z" fill="white"/>
<path d="M67.1142 59.2338C67.759 59.2338 68.2818 58.7111 68.2818 58.0663C68.2818 57.4214 67.759 56.8987 67.1142 56.8987C66.4693 56.8987 65.9466 57.4214 65.9466 58.0663C65.9466 58.7111 66.4693 59.2338 67.1142 59.2338Z" fill="white"/>
<path d="M65.3369 56.174C65.5815 56.174 65.7798 55.9757 65.7798 55.7311C65.7798 55.4865 65.5815 55.2882 65.3369 55.2882C65.0923 55.2882 64.894 55.4865 64.894 55.7311C64.894 55.9757 65.0923 56.174 65.3369 56.174Z" fill="white"/>
<path d="M63.8608 58.8819C64.2019 58.685 64.2299 58.0949 63.9234 57.564C63.6168 57.0331 63.0918 56.7623 62.7507 56.9593C62.4096 57.1562 62.3816 57.7463 62.6881 58.2772C62.9946 58.8081 63.5197 59.0789 63.8608 58.8819Z" fill="white"/>
<path d="M60.6788 54.1959C60.8765 53.9982 60.9858 53.787 60.9229 53.7241C60.86 53.6612 60.6488 53.7705 60.4511 53.9681C60.2534 54.1658 60.1442 54.377 60.2071 54.4399C60.27 54.5028 60.4812 54.3935 60.6788 54.1959Z" fill="white"/>
</g>
<g opacity="0.75">
<path d="M18.427 20.6454C17.7338 20.4826 17.6787 21.0262 17.6787 21.0262C17.6839 21.4819 17.6203 21.8208 17.5179 22.0785C16.64 22.0474 15.7573 22.3707 15.0896 23.0105C14.9739 22.9112 14.8799 22.802 14.8256 22.7002C14.6295 22.3271 14.0139 22.2177 13.5977 22.7518C13.1814 23.2859 13.6302 23.5442 13.6302 23.5442C13.9577 23.6896 14.1931 23.8461 14.3694 24.0019C14.0457 24.6691 13.9551 25.402 14.0823 26.0855C13.8889 26.1863 13.6463 26.2284 13.4165 26.2447C12.9979 26.2754 12.9276 26.9426 13.323 27.2786C13.4455 27.3825 13.5846 27.4332 13.7464 27.4002C14.0997 27.3197 14.4722 27.4213 14.7343 27.5317C14.9232 27.7706 15.1521 27.9873 15.4155 28.1681C15.6621 28.3373 15.924 28.4624 16.1944 28.5536C16.173 28.7874 16.0951 29.0022 15.999 29.135C15.7329 29.4939 15.9501 30.1548 16.7009 30.3422C17.4484 30.5272 17.4684 29.9696 17.4684 29.9696C17.4219 29.3712 17.5149 28.968 17.6583 28.6938C18.5701 28.5742 19.4382 28.0769 20.0084 27.246C20.2078 26.9555 20.3563 26.645 20.456 26.3259C20.5884 26.372 20.7023 26.4303 20.7855 26.4974C21.1318 26.7747 21.7781 26.6221 21.9533 25.9324C22.1285 25.2428 21.5862 25.1787 21.5862 25.1787C21.1613 25.1752 20.8428 25.1107 20.5953 25.0153C20.5124 24.079 20.0357 23.1954 19.2149 22.632C19.0765 22.537 18.9355 22.4601 18.7898 22.39C18.8225 22.1541 18.9061 21.9381 19.0103 21.8009C19.2923 21.4479 19.1259 20.8071 18.427 20.6454Z" fill="url(#paint3_linear)"/>
<path d="M18.76 21.0464C18.7739 20.9502 18.6399 20.8512 18.4608 20.8254C18.2816 20.7996 18.1251 20.8568 18.1113 20.9531C18.0974 21.0493 18.2314 21.1483 18.4106 21.1741C18.5897 21.1999 18.7462 21.1427 18.76 21.0464Z" fill="white"/>
<path d="M17.0958 30.03C17.1316 29.9156 16.9716 29.7637 16.7384 29.6907C16.5052 29.6178 16.2871 29.6514 16.2513 29.7658C16.2155 29.8803 16.3755 30.0322 16.6087 30.1051C16.8419 30.1781 17.06 30.1445 17.0958 30.03Z" fill="white"/>
<path d="M21.7811 25.8839C21.8223 25.6339 21.7725 25.4175 21.6698 25.4005C21.5671 25.3836 21.4505 25.5725 21.4092 25.8226C21.368 26.0726 21.4178 26.289 21.5205 26.3059C21.6231 26.3229 21.7398 26.1339 21.7811 25.8839Z" fill="white"/>
<path d="M14.1566 22.5747C14.0812 22.5169 13.9063 22.6185 13.7658 22.8016C13.6254 22.9847 13.5726 23.18 13.648 23.2378C13.7234 23.2957 13.8984 23.1941 14.0389 23.011C14.1793 22.8279 14.232 22.6326 14.1566 22.5747Z" fill="white"/>
<path d="M19.1058 25.0861C19.3657 24.7074 19.2694 24.1898 18.8907 23.9299C18.512 23.67 17.9943 23.7663 17.7344 24.145C17.4745 24.5237 17.5708 25.0413 17.9495 25.3012C18.3282 25.5611 18.8459 25.4648 19.1058 25.0861Z" fill="white"/>
<path d="M16.5925 24.8966C16.6911 24.753 16.6546 24.5566 16.5109 24.458C16.3673 24.3595 16.1709 24.396 16.0724 24.5396C15.9738 24.6833 16.0103 24.8796 16.1539 24.9782C16.2976 25.0768 16.4939 25.0403 16.5925 24.8966Z" fill="white"/>
<path d="M17.5879 26.8549C17.6097 26.5752 17.2745 26.3209 16.8391 26.287C16.4038 26.253 16.0332 26.4522 16.0114 26.7319C15.9896 27.0116 16.3248 27.2659 16.7601 27.2998C17.1954 27.3338 17.566 27.1346 17.5879 26.8549Z" fill="white"/>
<path d="M13.5534 26.8348C13.517 26.6391 13.437 26.4898 13.3747 26.5014C13.3124 26.513 13.2915 26.6811 13.3279 26.8768C13.3643 27.0725 13.4443 27.2218 13.5066 27.2102C13.5689 27.1987 13.5898 27.0306 13.5534 26.8348Z" fill="white"/>
</g>
<g opacity="0.75">
<path d="M38.427 1.64538C37.7338 1.48264 37.6787 2.02619 37.6787 2.02619C37.6839 2.48192 37.6203 2.82083 37.5179 3.07853C36.64 3.04738 35.7573 3.37069 35.0896 4.01053C34.9739 3.91125 34.8799 3.80203 34.8256 3.70017C34.6295 3.32708 34.0139 3.21767 33.5977 3.75181C33.1814 4.28595 33.6302 4.54425 33.6302 4.54425C33.9577 4.68957 34.1931 4.84614 34.3694 5.00192C34.0457 5.66912 33.9551 6.40197 34.0823 7.08547C33.8889 7.18627 33.6463 7.22845 33.4165 7.24467C32.9979 7.27539 32.9276 7.94259 33.323 8.27859C33.4455 8.38251 33.5846 8.43324 33.7464 8.4002C34.0997 8.31974 34.4722 8.42134 34.7343 8.53169C34.9232 8.77059 35.1521 8.9873 35.4155 9.16811C35.6621 9.33734 35.924 9.46245 36.1944 9.55359C36.173 9.78739 36.0951 10.0022 35.999 10.135C35.7329 10.4939 35.9501 11.1548 36.7009 11.3422C37.4484 11.5272 37.4684 10.9696 37.4684 10.9696C37.4219 10.3712 37.5149 9.96797 37.6583 9.69377C38.5701 9.57425 39.4382 9.07688 40.0084 8.24596C40.2078 7.95548 40.3563 7.64499 40.456 7.32589C40.5884 7.37199 40.7023 7.43034 40.7855 7.49737C41.1318 7.77475 41.7781 7.6221 41.9533 6.93245C42.1285 6.24279 41.5862 6.17867 41.5862 6.17867C41.1613 6.17522 40.8428 6.1107 40.5953 6.01532C40.5124 5.07902 40.0357 4.19536 39.2149 3.63205C39.0765 3.53701 38.9355 3.46011 38.7898 3.38997C38.8225 3.15406 38.9061 2.93814 39.0103 2.80092C39.2923 2.44791 39.1259 1.80707 38.427 1.64538Z" fill="url(#paint4_linear)"/>
<path d="M38.76 2.04646C38.7739 1.95016 38.6399 1.8512 38.4608 1.82541C38.2816 1.79961 38.1251 1.85677 38.1113 1.95306C38.0974 2.04936 38.2314 2.14833 38.4106 2.17412C38.5897 2.19991 38.7462 2.14275 38.76 2.04646Z" fill="white"/>
<path d="M37.0958 11.03C37.1316 10.9156 36.9716 10.7637 36.7384 10.6907C36.5052 10.6178 36.2871 10.6514 36.2513 10.7659C36.2155 10.8803 36.3755 11.0322 36.6087 11.1052C36.8419 11.1781 37.06 11.1445 37.0958 11.03Z" fill="white"/>
<path d="M41.7811 6.88392C41.8223 6.6339 41.7725 6.41749 41.6698 6.40055C41.5671 6.38361 41.4505 6.57255 41.4092 6.82257C41.368 7.07259 41.4178 7.289 41.5205 7.30594C41.6231 7.32288 41.7398 7.13394 41.7811 6.88392Z" fill="white"/>
<path d="M34.1566 3.57473C34.0812 3.5169 33.9063 3.61846 33.7658 3.80158C33.6254 3.98469 33.5726 4.18002 33.648 4.23785C33.7234 4.29568 33.8984 4.19413 34.0389 4.01101C34.1793 3.8279 34.232 3.63257 34.1566 3.57473Z" fill="white"/>
<path d="M39.1058 6.08614C39.3657 5.70746 39.2694 5.18978 38.8907 4.92989C38.512 4.66999 37.9943 4.76629 37.7344 5.14498C37.4745 5.52366 37.5708 6.04134 37.9495 6.30123C38.3282 6.56113 38.8459 6.46483 39.1058 6.08614Z" fill="white"/>
<path d="M36.5925 5.89662C36.6911 5.75298 36.6546 5.55663 36.5109 5.45805C36.3673 5.35946 36.1709 5.39599 36.0724 5.53963C35.9738 5.68327 36.0103 5.87962 36.1539 5.97821C36.2976 6.07679 36.4939 6.04026 36.5925 5.89662Z" fill="white"/>
<path d="M37.5879 7.8549C37.6097 7.57521 37.2745 7.32093 36.8391 7.28697C36.4038 7.253 36.0332 7.4522 36.0114 7.7319C35.9896 8.0116 36.3248 8.26588 36.7601 8.29985C37.1954 8.33381 37.566 8.1346 37.5879 7.8549Z" fill="white"/>
<path d="M33.5534 7.83485C33.517 7.63911 33.437 7.48982 33.3747 7.50141C33.3124 7.51299 33.2915 7.68107 33.3279 7.87681C33.3643 8.07255 33.4443 8.22184 33.5066 8.21025C33.5689 8.19867 33.5898 8.03059 33.5534 7.83485Z" fill="white"/>
</g>
<defs>
<linearGradient id="paint0_linear" x1="23.6673" y1="72.8518" x2="34.9017" y2="57.648" gradientUnits="userSpaceOnUse">
<stop stop-color="#C23BF1"/>
<stop offset="1" stop-color="#6A3BF1"/>
</linearGradient>
<linearGradient id="paint1_linear" x1="43.7556" y1="17.9993" x2="45.0276" y2="36.5297" gradientUnits="userSpaceOnUse">
<stop stop-color="#6A3BF1"/>
<stop offset="1" stop-color="#FFEFD8"/>
</linearGradient>
<linearGradient id="paint2_linear" x1="64.7556" y1="47.9993" x2="66.0276" y2="66.5297" gradientUnits="userSpaceOnUse">
<stop stop-color="#6A3BF1"/>
<stop offset="1" stop-color="#FFEFD8"/>
</linearGradient>
<linearGradient id="paint3_linear" x1="11.5576" y1="21.9432" x2="22.9524" y2="28.6648" gradientUnits="userSpaceOnUse">
<stop stop-color="#6A3BF1"/>
<stop offset="1" stop-color="#FFEFD8"/>
</linearGradient>
<linearGradient id="paint4_linear" x1="31.5576" y1="2.94325" x2="42.9524" y2="9.6648" gradientUnits="userSpaceOnUse">
<stop stop-color="#6A3BF1"/>
<stop offset="1" stop-color="#FFEFD8"/>
</linearGradient>
</defs>
</svg>
