<svg width="258" height="258" viewBox="0 0 258 258" fill="none" xmlns="http://www.w3.org/2000/svg">
<path d="M18.2355 218.732V231.684H21.2231C21.0665 230.321 21.0665 228.945 21.2231 227.582C21.5069 226.06 24.7526 222.128 24.6545 218.753L18.2355 218.732Z" fill="#EBEBEB"/>
<path d="M42.1367 218.732V231.684H45.1244C44.9677 230.321 44.9677 228.945 45.1244 227.582C45.4082 226.06 48.6538 222.128 48.5558 218.753L42.1367 218.732Z" fill="#E0E0E0"/>
<path d="M65.532 218.732V231.684H62.5392C62.6931 230.321 62.6931 228.945 62.5392 227.582C62.2503 226.06 59.0098 222.128 59.1027 218.753L65.532 218.732Z" fill="#EBEBEB"/>
<path d="M86.2133 218.732V231.684H83.2256C83.3795 230.321 83.3795 228.945 83.2256 227.582C82.9418 226.06 79.6962 222.128 79.7942 218.753L86.2133 218.732Z" fill="#E0E0E0"/>
<path d="M87.782 154.867H16.2025V219.145H87.782V154.867Z" fill="#F5F5F5"/>
<path d="M68.499 154.867L69.0305 219.145H87.7819V154.867H68.499Z" fill="#E0E0E0"/>
<path d="M65.3771 159.599H19.4221V175.956H65.3771V159.599Z" fill="#EBEBEB"/>
<path d="M65.3771 179.212H19.4221V195.569H65.3771V179.212Z" fill="#EBEBEB"/>
<path d="M65.3771 198.83H19.4221V215.188H65.3771V198.83Z" fill="#EBEBEB"/>
<path d="M37.0384 136.399L35.057 154.795H60.4545L62.5598 136.399H37.0384Z" fill="#E0E0E0"/>
<path d="M38.086 137.72L36.1562 153.814H59.0769L60.9293 137.72H38.086Z" fill="white"/>
<path d="M41.9405 140.429L40.7537 151.11H55.2171L55.9602 140.429H41.9405Z" fill="#EBEBEB"/>
<path d="M61.6518 144.32L66.8995 154.867L60.4547 154.795L61.6518 144.32Z" fill="#EBEBEB"/>
<path d="M44.0818 168.629C44.0829 168.962 43.9851 169.287 43.8009 169.565C43.6166 169.842 43.3543 170.058 43.047 170.186C42.7397 170.315 42.4013 170.349 42.0747 170.284C41.748 170.22 41.4478 170.06 41.2121 169.825C40.9763 169.59 40.8156 169.29 40.7502 168.964C40.6849 168.637 40.7179 168.299 40.8451 167.991C40.9722 167.684 41.1878 167.421 41.4646 167.236C41.7413 167.05 42.0668 166.952 42.3997 166.952C42.8449 166.952 43.272 167.128 43.5873 167.443C43.9026 167.757 44.0805 168.183 44.0818 168.629Z" fill="#E0E0E0"/>
<path d="M44.082 188.443C44.082 188.776 43.9834 189.101 43.7985 189.378C43.6137 189.654 43.351 189.87 43.0436 189.997C42.7362 190.125 42.398 190.158 42.0717 190.093C41.7454 190.028 41.4457 189.868 41.2104 189.633C40.9752 189.397 40.8149 189.098 40.75 188.771C40.6851 188.445 40.7184 188.107 40.8458 187.799C40.9731 187.492 41.1887 187.229 41.4653 187.044C41.7419 186.86 42.0672 186.761 42.3999 186.761C42.621 186.76 42.84 186.803 43.0444 186.888C43.2488 186.972 43.4345 187.096 43.5909 187.252C43.7472 187.409 43.8711 187.594 43.9554 187.799C44.0397 188.003 44.0827 188.222 44.082 188.443Z" fill="#E0E0E0"/>
<path d="M44.082 208.252C44.082 208.585 43.9834 208.91 43.7985 209.187C43.6137 209.464 43.351 209.679 43.0436 209.807C42.7362 209.934 42.398 209.967 42.0717 209.902C41.7454 209.837 41.4457 209.677 41.2104 209.442C40.9752 209.207 40.8149 208.907 40.75 208.581C40.6851 208.254 40.7184 207.916 40.8458 207.609C40.9731 207.301 41.1887 207.039 41.4653 206.854C41.7419 206.669 42.0672 206.57 42.3999 206.57C42.846 206.57 43.2739 206.748 43.5893 207.063C43.9048 207.378 44.082 207.806 44.082 208.252Z" fill="#E0E0E0"/>
<path d="M65.3051 50.377L24.7217 49.9849L25.8518 102.875L66.4352 103.024L65.3051 50.377Z" fill="#E0E0E0"/>
<path d="M62.6888 52.7351L27.1622 51.8167L28.189 99.784L63.7053 100.223L62.6888 52.7351Z" fill="#FAFAFA"/>
<path d="M56.626 59.9024L33.0499 59.5103L33.7723 93.0399L57.3226 92.5343L56.626 59.9024Z" fill="#EBEBEB"/>
<path d="M33.7723 93.0399L56.9562 75.3102L33.0499 59.5103L33.7723 93.0399Z" fill="#F5F5F5"/>
<path d="M239.945 22.8071L204.336 22.4614L205.332 68.8653L240.931 68.9943L239.945 22.8071Z" fill="#E0E0E0"/>
<path d="M237.644 24.8814L206.477 24.0713L207.38 66.1511L238.536 66.5329L237.644 24.8814Z" fill="#FAFAFA"/>
<path d="M232.324 31.1663L211.648 30.8206L212.277 60.2326L232.938 59.794L232.324 31.1663Z" fill="#EBEBEB"/>
<path d="M212.277 60.2326L232.618 44.6803L211.648 30.8206L212.277 60.2326Z" fill="#F5F5F5"/>
<path d="M200.058 197.267C199.909 197.721 205.218 217.907 205.218 217.907L208.861 217.148L203.851 197.267H200.058Z" fill="#EBEBEB"/>
<path d="M228.289 194.382L221.003 217.907H225.255L232.236 196.054L228.289 194.382Z" fill="#F5F5F5"/>
<path d="M234.966 190.739L226.617 217.907H230.869L238.913 192.411L234.966 190.739Z" fill="#EBEBEB"/>
<path d="M202.638 216.24L206.89 230.961H228.289L232.236 216.24H202.638Z" fill="#E0E0E0"/>
<path d="M213.676 216.24C213.657 216.19 213.641 216.138 213.629 216.085L213.516 215.636C213.418 215.224 213.283 214.641 213.108 213.898L211.637 207.468L206.833 186.028L206.962 186.137H203.216L203.345 185.972C205.249 194.408 206.957 201.968 208.18 207.427C208.779 210.146 209.264 212.339 209.604 213.877C209.759 214.625 209.888 215.208 209.976 215.626C210.012 215.817 210.043 215.967 210.064 216.08C210.072 216.133 210.072 216.187 210.064 216.24C210.045 216.19 210.029 216.138 210.017 216.085C209.986 215.972 209.95 215.822 209.904 215.636C209.8 215.224 209.661 214.641 209.48 213.898C209.124 212.35 208.614 210.177 207.979 207.468C206.725 202.009 204.996 194.46 203.067 186.028L203.025 185.868H207.05L207.076 185.972C208.928 194.408 210.595 201.968 211.797 207.427C212.38 210.146 212.855 212.339 213.185 213.877C213.34 214.625 213.459 215.208 213.547 215.626L213.634 216.08C213.657 216.131 213.671 216.185 213.676 216.24Z" fill="#E0E0E0"/>
<path d="M220.502 90.7385C220.384 90.6887 220.261 90.6507 220.136 90.625C219.767 90.542 219.385 90.542 219.016 90.625C218.419 90.7787 217.863 91.0643 217.391 91.4609C216.748 92.0173 216.192 92.6659 215.74 93.3856C214.682 95.0058 213.851 97.2453 212.881 99.8562C211.758 102.838 210.787 105.874 209.971 108.953C209.819 109.237 209.616 109.491 209.372 109.702C209.246 109.816 209.097 109.902 208.935 109.954C208.773 110.005 208.602 110.021 208.433 110.001C208.102 109.916 207.802 109.737 207.571 109.485C207.329 109.263 207.102 109.026 206.875 108.783C206.427 108.29 205.949 107.825 205.445 107.39C204.958 106.921 204.31 106.657 203.634 106.652C203.296 106.71 202.974 106.838 202.689 107.028C202.403 107.218 202.161 107.466 201.978 107.756C201.612 108.383 201.414 109.094 201.405 109.82C201.317 111.296 201.746 112.787 202.004 114.33C202.262 115.873 202.587 117.457 202.886 119.072C203.041 119.882 203.19 120.697 203.345 121.523L203.577 122.772C203.648 122.99 203.672 123.221 203.646 123.448C203.62 123.676 203.546 123.896 203.428 124.093C203.35 124.196 203.243 124.274 203.121 124.315C202.998 124.357 202.866 124.36 202.742 124.325C202.519 124.26 202.31 124.153 202.128 124.01L201.096 123.226C200.393 122.695 199.663 122.202 198.908 121.75C198.152 121.28 197.326 120.931 196.462 120.718C196.034 120.617 195.589 120.617 195.162 120.718C194.736 120.826 194.36 121.077 194.099 121.43C193.602 122.196 193.358 123.098 193.402 124.01C193.403 124.949 193.495 125.886 193.675 126.807C194.048 128.701 194.574 130.561 195.249 132.369C195.446 132.832 195.596 133.312 195.698 133.804C195.723 133.943 195.719 134.086 195.686 134.224C195.653 134.361 195.592 134.491 195.507 134.604C195.461 134.657 195.411 134.707 195.358 134.753C195.299 134.806 195.231 134.846 195.156 134.872C194.999 134.896 194.839 134.859 194.707 134.769C194.279 134.494 193.879 134.176 193.515 133.819L192.411 132.787C191.688 132.087 190.902 131.455 190.063 130.899C189.645 130.624 189.188 130.415 188.706 130.28C188.478 130.209 188.237 130.187 187.999 130.216C187.762 130.246 187.533 130.325 187.329 130.45C186.93 130.739 186.653 131.166 186.549 131.647C186.425 132.14 186.363 132.646 186.364 133.154C186.369 134.197 186.498 135.237 186.751 136.25C187.261 138.308 188.014 140.299 188.995 142.179C189.972 144.106 191.088 145.96 192.334 147.726C192.957 148.621 193.629 149.483 194.346 150.306C195.038 151.162 195.739 152.014 196.441 152.886V152.917L196.317 152.865L199.599 152.39C200.686 152.261 201.766 152.075 202.834 151.833C204.94 151.359 207.009 150.737 209.026 149.97C211.017 149.234 212.913 148.266 214.677 147.086C215.542 146.512 216.334 145.835 217.035 145.068C217.38 144.692 217.677 144.275 217.917 143.825C218.163 143.399 218.244 142.897 218.144 142.416C218.078 142.185 217.963 141.972 217.807 141.789C217.651 141.607 217.458 141.46 217.241 141.358C216.793 141.139 216.315 140.986 215.822 140.904C214.827 140.753 213.82 140.693 212.814 140.723H211.307C210.789 140.744 210.27 140.711 209.759 140.625C209.601 140.605 209.456 140.524 209.357 140.398C209.319 140.328 209.296 140.251 209.29 140.171C209.282 140.101 209.282 140.03 209.29 139.96C209.305 139.82 209.349 139.685 209.417 139.561C209.485 139.438 209.577 139.33 209.687 139.243C210.093 138.948 210.527 138.694 210.982 138.484C212.699 137.601 214.341 136.578 215.889 135.424C216.639 134.865 217.33 134.233 217.953 133.536C218.597 132.891 219.023 132.061 219.171 131.162C219.214 130.724 219.105 130.285 218.861 129.918C218.615 129.555 218.286 129.254 217.902 129.041C217.123 128.613 216.282 128.312 215.409 128.149C214.547 127.975 213.675 127.849 212.798 127.772L211.498 127.648C211.266 127.635 211.039 127.573 210.832 127.467C210.717 127.408 210.622 127.315 210.561 127.201C210.499 127.087 210.473 126.957 210.487 126.828C210.534 126.604 210.628 126.393 210.762 126.208C210.896 126.023 211.068 125.869 211.266 125.754L212.298 124.991L214.284 123.479L218.124 120.563C219.357 119.598 220.673 118.783 221.601 117.627C222.077 117.087 222.404 116.433 222.551 115.728C222.611 115.39 222.599 115.043 222.515 114.709C222.431 114.376 222.278 114.064 222.066 113.793C221.841 113.544 221.549 113.365 221.225 113.277C220.901 113.181 220.566 113.126 220.229 113.112C219.564 113.095 218.899 113.119 218.237 113.185C217.907 113.185 217.577 113.231 217.251 113.236C216.913 113.261 216.574 113.188 216.276 113.025C216.134 112.928 216.014 112.802 215.925 112.655C215.836 112.508 215.78 112.344 215.76 112.173C215.722 111.852 215.741 111.527 215.817 111.213C217.294 108.415 218.629 105.544 219.816 102.612C220.848 100.032 221.741 97.8129 222.061 95.9037C222.217 95.0703 222.252 94.2186 222.164 93.3753C222.097 92.7622 221.89 92.1726 221.56 91.6518C221.36 91.3332 221.088 91.0662 220.765 90.8727C220.656 90.8055 220.54 90.7485 220.42 90.7024C220.545 90.736 220.664 90.7863 220.776 90.852C221.108 91.0418 221.391 91.3069 221.601 91.626C221.938 92.1511 222.152 92.7456 222.226 93.365C222.326 94.2155 222.3 95.0762 222.148 95.9191C221.839 97.8335 220.962 100.047 219.935 102.627C218.772 105.593 217.46 108.499 216.003 111.332C215.931 111.622 215.914 111.923 215.951 112.22C215.965 112.366 216.01 112.507 216.083 112.634C216.156 112.761 216.255 112.872 216.374 112.957C216.644 113.1 216.948 113.163 217.251 113.138C217.571 113.138 217.896 113.107 218.227 113.081C218.897 113.014 219.571 112.988 220.244 113.004C220.594 113.018 220.941 113.075 221.276 113.174C221.631 113.269 221.953 113.46 222.205 113.726C222.43 114.015 222.592 114.348 222.681 114.704C222.77 115.059 222.783 115.429 222.721 115.79C222.571 116.53 222.229 117.216 221.73 117.782C220.776 118.969 219.45 119.794 218.227 120.765L214.393 123.685L212.411 125.192L211.405 125.961C211.235 126.074 211.081 126.21 210.946 126.363C210.822 126.511 210.74 126.689 210.709 126.879C210.7 126.965 210.717 127.051 210.758 127.127C210.8 127.203 210.864 127.264 210.941 127.302C211.123 127.391 211.321 127.441 211.524 127.452L212.824 127.576C213.708 127.651 214.586 127.777 215.456 127.952C216.359 128.119 217.229 128.427 218.036 128.866C218.447 129.102 218.8 129.429 219.068 129.82C219.337 130.231 219.46 130.719 219.419 131.208C219.265 132.16 218.82 133.04 218.144 133.726C217.503 134.435 216.795 135.08 216.029 135.651C214.47 136.816 212.818 137.852 211.09 138.747C210.651 138.946 210.233 139.188 209.842 139.47C209.756 139.535 209.685 139.618 209.631 139.712C209.578 139.806 209.544 139.909 209.532 140.017C209.527 140.068 209.527 140.12 209.532 140.171C209.532 140.213 209.532 140.311 209.568 140.305C209.635 140.365 209.717 140.403 209.806 140.414C210.29 140.492 210.781 140.523 211.271 140.507H212.778C213.799 140.47 214.822 140.53 215.832 140.687C216.353 140.768 216.858 140.93 217.329 141.167C217.578 141.286 217.799 141.457 217.976 141.668C218.154 141.878 218.285 142.125 218.361 142.39C218.478 142.932 218.39 143.499 218.113 143.979C217.864 144.449 217.555 144.884 217.195 145.275C216.481 146.058 215.673 146.752 214.79 147.339C213.011 148.535 211.095 149.514 209.083 150.254C207.05 151.029 204.963 151.657 202.84 152.132C201.768 152.375 200.685 152.561 199.594 152.689L196.307 153.169H196.23L196.183 153.107H196.157L194.062 150.527C193.346 149.703 192.672 148.842 192.045 147.947C190.789 146.169 189.665 144.301 188.681 142.359C187.695 140.458 186.938 138.447 186.426 136.368C186.165 135.341 186.031 134.286 186.028 133.226C186.029 132.694 186.095 132.163 186.224 131.647C186.346 131.106 186.662 130.629 187.112 130.305C187.347 130.16 187.61 130.067 187.884 130.031C188.158 129.995 188.437 130.019 188.701 130.099C189.206 130.242 189.686 130.461 190.125 130.749C190.978 131.313 191.776 131.956 192.509 132.669L193.614 133.701C193.965 134.042 194.348 134.347 194.759 134.614C194.833 134.667 194.921 134.696 195.012 134.697C195.012 134.697 195.089 134.65 195.125 134.624L195.239 134.511C195.301 134.424 195.346 134.325 195.369 134.22C195.392 134.115 195.393 134.007 195.373 133.902C195.275 133.429 195.13 132.968 194.94 132.524C194.261 130.702 193.733 128.828 193.361 126.92C193.177 125.984 193.086 125.032 193.087 124.077C193.046 123.113 193.31 122.159 193.841 121.353C194.135 120.961 194.553 120.681 195.027 120.558C195.491 120.45 195.973 120.45 196.436 120.558C197.323 120.768 198.171 121.116 198.949 121.59C199.713 122.044 200.451 122.542 201.157 123.081L202.189 123.866C202.343 123.99 202.518 124.086 202.705 124.15C202.789 124.174 202.877 124.172 202.959 124.144C203.042 124.117 203.113 124.064 203.165 123.995C203.267 123.841 203.325 123.663 203.335 123.479C203.34 123.274 203.318 123.069 203.268 122.87C203.19 122.452 203.118 122.039 203.041 121.626C202.886 120.801 202.736 119.98 202.587 119.175C202.293 117.555 201.999 115.976 201.715 114.433C201.431 112.89 201.034 111.394 201.121 109.872C201.136 109.117 201.346 108.38 201.73 107.73C201.929 107.416 202.192 107.148 202.503 106.943C202.813 106.739 203.164 106.602 203.531 106.544C203.896 106.514 204.263 106.587 204.589 106.755C204.906 106.909 205.202 107.101 205.471 107.328C205.982 107.769 206.464 108.241 206.916 108.742C207.136 108.983 207.363 109.215 207.597 109.438C207.807 109.661 208.075 109.82 208.371 109.898C208.517 109.914 208.665 109.899 208.805 109.853C208.944 109.808 209.073 109.733 209.181 109.634C209.407 109.439 209.596 109.205 209.739 108.943C210.565 105.858 211.55 102.819 212.69 99.8356C213.67 97.2298 214.517 94.9852 215.595 93.365C216.056 92.6412 216.623 91.9907 217.277 91.4351C217.759 91.0362 218.325 90.7537 218.934 90.6095C219.307 90.5214 219.696 90.5214 220.069 90.6095C220.22 90.6276 220.366 90.6712 220.502 90.7385Z" fill="#263238"/>
<path d="M217.793 97.7561C217.784 97.8151 217.767 97.8724 217.742 97.9264L217.566 98.4114C217.396 98.85 217.158 99.4744 216.859 100.264C216.23 101.889 215.337 104.216 214.233 107.08L205.662 129.598C202.329 138.37 199.274 146.353 197.014 152.091C195.889 154.96 194.95 157.277 194.31 158.876C193.99 159.661 193.737 160.275 193.557 160.708C193.469 160.909 193.407 161.064 193.355 161.188L193.278 161.343C193.287 161.286 193.305 161.23 193.329 161.178C193.371 161.054 193.433 160.894 193.505 160.693C193.675 160.249 193.913 159.63 194.212 158.835C194.841 157.21 195.734 154.888 196.838 152.024L205.409 129.516C208.742 120.718 211.792 112.767 214.057 107.029C215.182 104.16 216.121 101.838 216.761 100.243C217.081 99.4589 217.334 98.8397 217.514 98.4063C217.602 98.2102 217.664 98.0502 217.716 97.9315L217.793 97.7561Z" fill="#263238"/>
<path d="M218.072 115.584C217.664 115.876 217.233 116.133 216.782 116.353L213.624 118.107C212.385 118.793 211.261 119.408 210.43 119.825C209.993 120.073 209.531 120.274 209.052 120.424C209.463 120.137 209.894 119.88 210.342 119.655L213.49 117.875C214.728 117.189 215.858 116.59 216.694 116.183C217.133 115.94 217.594 115.739 218.072 115.584Z" fill="#263238"/>
<path d="M208.634 120.094C208.567 120.125 207.339 117.782 205.894 114.862C204.449 111.941 203.314 109.547 203.391 109.511C203.469 109.475 204.687 111.822 206.137 114.743C207.587 117.663 208.701 120.058 208.634 120.094Z" fill="#263238"/>
<path d="M204.124 133.835C203.712 133.53 203.332 133.184 202.989 132.803C202.318 132.132 201.441 131.177 200.487 130.073C199.532 128.969 198.758 127.927 198.211 127.153C197.889 126.753 197.611 126.321 197.38 125.863C197.735 126.231 198.062 126.624 198.361 127.039C198.949 127.782 199.759 128.799 200.693 129.898C201.627 130.997 202.494 131.962 203.123 132.669C203.486 133.032 203.82 133.421 204.124 133.835Z" fill="#263238"/>
<path d="M213.562 131.616C213.121 131.792 212.665 131.927 212.2 132.018C211.354 132.23 210.177 132.503 208.877 132.792C207.576 133.081 206.39 133.308 205.533 133.494C205.073 133.61 204.603 133.681 204.13 133.706C204.57 133.531 205.026 133.398 205.492 133.308C206.338 133.097 207.514 132.792 208.82 132.529C210.125 132.266 211.302 132.013 212.158 131.833C212.619 131.717 213.088 131.645 213.562 131.616Z" fill="#263238"/>
<path d="M211.121 144.258C210.548 144.456 209.962 144.613 209.367 144.728C208.273 144.98 206.787 145.316 205.094 145.667C203.402 146.018 201.9 146.327 200.801 146.534C200.213 146.674 199.614 146.769 199.011 146.817C199.583 146.617 200.169 146.46 200.765 146.348C201.854 146.095 203.345 145.76 205.038 145.409C206.73 145.058 208.227 144.748 209.326 144.542C209.916 144.401 210.516 144.306 211.121 144.258Z" fill="#263238"/>
<path d="M199.279 146.673C199.135 146.573 199.005 146.455 198.892 146.322C198.655 146.085 198.325 145.734 197.917 145.29C197.107 144.403 196.018 143.149 194.873 141.719C193.727 140.29 192.741 138.948 192.055 137.963C191.709 137.473 191.441 137.07 191.261 136.786C191.153 136.646 191.066 136.492 191.003 136.327C191.132 136.445 191.246 136.579 191.343 136.724L192.21 137.855C192.932 138.809 193.939 140.125 195.084 141.549C196.23 142.973 197.287 144.248 198.061 145.161C198.5 145.638 198.907 146.143 199.279 146.673Z" fill="#263238"/>
<path d="M194.119 181.24C185.161 174.016 183.861 161.668 184.986 150.723C185.177 148.897 185.105 146.951 186.085 145.403C187.065 143.855 189.181 142.901 190.765 143.783C192.081 144.516 192.561 146.141 193.232 147.498C194.129 149.312 195.521 150.836 197.246 151.895C198.371 152.581 199.79 153.051 200.982 152.493C202.623 151.73 202.958 149.562 203.072 147.741L203.706 137.555C203.82 135.728 203.944 133.871 204.63 132.184C205.316 130.496 206.694 128.974 208.443 128.602C210.193 128.231 212.282 129.387 212.525 131.182C212.542 131.941 212.507 132.699 212.422 133.453C212.422 134.211 212.716 135.073 213.418 135.331C214.119 135.589 214.893 135.13 215.482 134.635C217.489 132.927 218.923 130.646 220.28 128.37C221.637 126.095 222.953 123.762 224.8 121.874C226.648 119.985 229.109 118.556 231.73 118.587C234.352 118.618 237.014 120.419 237.499 123.025C237.984 125.63 236.307 128.143 234.532 130.109C231.897 133.032 228.852 135.557 225.492 137.607C224.836 137.903 224.293 138.402 223.944 139.031C223.464 140.218 224.532 141.502 225.703 141.988C227.03 142.529 228.516 142.504 229.924 142.756C231.333 143.009 232.829 143.752 233.273 145.13C233.892 147.044 232.2 148.886 230.58 150.063C227.35 152.41 223.743 154.187 219.914 155.316C218.536 155.713 217.097 156.043 215.951 156.91C214.806 157.777 214.042 159.372 214.609 160.698C215.177 162.024 216.823 162.555 218.221 162.39C219.62 162.225 220.951 161.549 222.324 161.136C224.904 160.362 228.113 160.76 229.548 163.03C230.502 164.526 230.461 166.513 229.811 168.19C229.086 169.818 228.042 171.285 226.741 172.504C222.447 176.998 217.038 180.271 211.065 181.988C205.12 183.603 199.713 183.778 194.078 181.271" fill="#0075FF"/>
<g opacity="0.1">
<path opacity="0.1" d="M194.119 181.24C185.161 174.016 183.861 161.668 184.986 150.723C185.177 148.897 185.105 146.951 186.085 145.403C187.065 143.855 189.181 142.901 190.765 143.783C192.081 144.516 192.561 146.141 193.232 147.498C194.129 149.312 195.521 150.836 197.246 151.895C198.371 152.581 199.79 153.051 200.982 152.493C202.623 151.73 202.958 149.562 203.072 147.741L203.706 137.555C203.82 135.728 203.944 133.871 204.63 132.184C205.316 130.496 206.694 128.974 208.443 128.602C210.193 128.231 212.282 129.387 212.525 131.182C212.542 131.941 212.507 132.699 212.422 133.453C212.422 134.211 212.716 135.073 213.418 135.331C214.119 135.589 214.893 135.13 215.482 134.635C217.489 132.927 218.923 130.646 220.28 128.37C221.637 126.095 222.953 123.762 224.8 121.874C226.648 119.985 229.109 118.556 231.73 118.587C234.352 118.618 237.014 120.419 237.499 123.025C237.984 125.63 236.307 128.143 234.532 130.109C231.897 133.032 228.852 135.557 225.492 137.607C224.836 137.903 224.293 138.402 223.944 139.031C223.464 140.218 224.532 141.502 225.703 141.988C227.03 142.529 228.516 142.504 229.924 142.756C231.333 143.009 232.829 143.752 233.273 145.13C233.892 147.044 232.2 148.886 230.58 150.063C227.35 152.41 223.743 154.187 219.914 155.316C218.536 155.713 217.097 156.043 215.951 156.91C214.806 157.777 214.042 159.372 214.609 160.698C215.177 162.024 216.823 162.555 218.221 162.39C219.62 162.225 220.951 161.549 222.324 161.136C224.904 160.362 228.113 160.76 229.548 163.03C230.502 164.526 230.461 166.513 229.811 168.19C229.086 169.818 228.042 171.285 226.741 172.504C222.447 176.998 217.038 180.271 211.065 181.988C205.12 183.603 199.713 183.778 194.078 181.271" fill="black"/>
</g>
<path d="M193.418 189.372C194.277 184.321 195.618 179.364 197.422 174.568C199.654 168.717 202.219 162.999 205.105 157.442L207.35 153.056C208.093 151.616 208.825 150.192 209.63 148.84C211.18 146.252 212.87 143.751 214.692 141.348C216.421 139.041 218.139 136.915 219.765 134.939C221.39 132.963 222.948 131.157 224.434 129.567C226.768 127.048 229.298 124.717 231.999 122.596C232.953 121.848 233.712 121.291 234.233 120.919L234.827 120.501C234.892 120.452 234.961 120.407 235.033 120.367C234.979 120.429 234.916 120.483 234.847 120.527L234.274 120.976C233.758 121.363 233.021 121.936 232.081 122.705C229.418 124.857 226.921 127.206 224.61 129.733C223.139 131.327 221.596 133.143 219.966 135.12C218.335 137.096 216.638 139.248 214.924 141.539C213.112 143.934 211.434 146.428 209.899 149.01C209.099 150.357 208.351 151.771 207.633 153.211L205.389 157.597C202.51 163.143 199.942 168.845 197.695 174.676C195.886 179.451 194.526 184.385 193.634 189.413" fill="#263238"/>
<path d="M209.728 148.825C209.655 148.567 209.612 148.302 209.599 148.035C209.542 147.519 209.475 146.786 209.408 145.868C209.279 144.041 209.181 141.503 209.083 138.711C208.985 135.919 208.851 133.386 208.691 131.559C208.614 130.651 208.547 129.913 208.49 129.402C208.443 129.138 208.428 128.87 208.443 128.603C208.527 128.856 208.586 129.117 208.619 129.382C208.712 129.898 208.82 130.625 208.928 131.539C209.15 133.36 209.321 135.894 209.444 138.696C209.568 141.497 209.615 143.948 209.671 145.858C209.708 146.719 209.733 147.442 209.759 148.025C209.774 148.292 209.764 148.56 209.728 148.825Z" fill="#263238"/>
<path d="M233.443 146.054C233.131 146.102 232.815 146.12 232.499 146.105C231.895 146.105 231.023 146.105 229.919 146.177C227.762 146.265 224.759 146.482 221.503 146.874C218.247 147.266 215.275 147.746 213.149 148.159C212.086 148.355 211.23 148.541 210.636 148.675C210.332 148.755 210.021 148.809 209.707 148.835C209.998 148.712 210.298 148.616 210.605 148.546C211.188 148.381 212.04 148.164 213.103 147.932C215.218 147.462 218.175 146.941 221.462 146.544C224.267 146.202 227.088 146.003 229.914 145.95C230.998 145.95 231.875 145.95 232.494 145.981C232.812 145.977 233.13 146.001 233.443 146.054Z" fill="#263238"/>
<path d="M197.741 174.145C197.68 174.054 197.633 173.955 197.602 173.851L197.256 172.973C196.962 172.215 196.565 171.1 196.095 169.723C195.151 166.962 193.964 163.107 192.71 158.84C191.457 154.573 190.311 150.708 189.424 147.932C188.99 146.58 188.629 145.471 188.366 144.645L188.082 143.752C188.042 143.65 188.016 143.542 188.005 143.432C188.063 143.524 188.11 143.623 188.144 143.726C188.237 143.964 188.35 144.242 188.484 144.604C188.779 145.362 189.176 146.477 189.651 147.854C190.595 150.615 191.782 154.47 193.03 158.742C194.279 163.015 195.435 166.869 196.322 169.645C196.756 170.997 197.112 172.107 197.354 172.932L197.638 173.825C197.687 173.926 197.722 174.034 197.741 174.145Z" fill="#263238"/>
<path d="M229.548 166.25C229.448 166.303 229.34 166.34 229.228 166.358L228.304 166.601L224.898 167.452C222.019 168.17 218.061 169.207 213.686 170.363C209.31 171.518 205.337 172.519 202.442 173.18C200.997 173.51 199.826 173.768 199.011 173.928L198.072 174.109C197.964 174.136 197.853 174.148 197.741 174.145C197.841 174.097 197.947 174.062 198.056 174.042L198.985 173.799L202.39 172.948C205.265 172.23 209.227 171.188 213.603 170.032C217.979 168.876 221.952 167.875 224.842 167.215C226.286 166.885 227.463 166.632 228.273 166.472L229.212 166.291C229.322 166.265 229.435 166.251 229.548 166.25Z" fill="#263238"/>
<path d="M196.204 38.7981H71.0687V210.265H196.204V38.7981Z" fill="#455A64"/>
<path d="M191.255 200.069H168.082H81.4918V45.728H191.255V180.868V200.069Z" fill="#E0E0E0"/>
<path d="M189.522 197.205H166.554H80.7437V43.6897H189.522V178.108V197.205Z" fill="#EBEBEB"/>
<path d="M177.834 185.259L165.306 195.461H78.7159V44.0767H188.479V176.627L177.834 185.259Z" fill="#FAFAFA"/>
<path d="M177.834 185.244C177.834 185.244 178.056 185.053 178.505 184.687L180.512 183.046L188.454 176.58V176.611C188.454 154.836 188.412 106.435 188.376 44.0613L188.495 44.1852H79.6859H78.7313L78.8655 44.051C78.8655 100.966 78.8655 153.469 78.8345 195.435L78.7313 195.327L165.321 195.389H165.29L174.702 187.757L177.06 185.853C177.576 185.43 177.85 185.223 177.85 185.223L177.076 185.868L174.718 187.824L165.337 195.492L78.7158 195.564H78.6075V195.456C78.6075 153.489 78.6075 100.986 78.5817 44.0717V43.9375H79.6704H188.479H188.603V44.0562C188.567 106.451 188.536 154.831 188.526 176.606L180.554 183.041L178.536 184.728L177.834 185.244Z" fill="#263238"/>
<path d="M118.788 33.4988H148.794C150.73 33.4988 152.587 34.268 153.957 35.6373C155.326 37.0066 156.095 38.8637 156.095 40.8002V48.8962H111.172V41.1098C111.173 39.0907 111.977 37.1549 113.405 35.7277C114.833 34.3005 116.769 33.4988 118.788 33.4988Z" fill="#0075FF"/>
<path d="M122.178 33.4988L120.538 25.1912H146.405L144.965 33.4988H122.178Z" fill="#0075FF"/>
<path d="M108.685 86.688H90.197V68.1946H108.685V86.688ZM90.713 86.172H108.169V68.7106H90.713V86.172Z" fill="#0075FF"/>
<path d="M174.036 72.6632C174.036 72.7355 161.162 72.7974 145.29 72.7974C129.418 72.7974 116.539 72.7355 116.539 72.6632C116.539 72.591 129.408 72.5291 145.29 72.5291C161.173 72.5291 174.036 72.5858 174.036 72.6632Z" fill="#263238"/>
<path d="M174.036 76.5023C174.036 76.5797 161.162 76.6365 145.29 76.6365C129.418 76.6365 116.539 76.5797 116.539 76.5023C116.539 76.4249 129.408 76.3682 145.29 76.3682C161.173 76.3682 174.036 76.4301 174.036 76.5023Z" fill="#263238"/>
<path d="M174.036 80.3463C174.036 80.4186 161.162 80.4805 145.29 80.4805C129.418 80.4805 116.539 80.4186 116.539 80.3463C116.539 80.2741 129.408 80.2122 145.29 80.2122C161.173 80.2122 174.036 80.2741 174.036 80.3463Z" fill="#263238"/>
<path d="M174.036 84.1906C174.036 84.2628 161.162 84.3247 145.29 84.3247C129.418 84.3247 116.539 84.2628 116.539 84.1906C116.539 84.1183 129.408 84.0564 145.29 84.0564C161.173 84.0564 174.036 84.108 174.036 84.1906Z" fill="#263238"/>
<path d="M108.685 115.187H90.197V96.6934H108.685V115.187ZM90.713 114.671H108.169V97.2094H90.713V114.671Z" fill="#0075FF"/>
<path d="M93.8708 106.322L96.3269 103.685L100.419 106.956L109.784 97.8645L112.029 100.512L100.238 112.142L93.8708 106.322Z" fill="#0075FF"/>
<path d="M174.036 101.162C174.036 101.234 161.162 101.296 145.29 101.296C129.418 101.296 116.539 101.234 116.539 101.162C116.539 101.09 129.408 101.028 145.29 101.028C161.173 101.028 174.036 101.09 174.036 101.162Z" fill="#263238"/>
<path d="M174.036 105.006C174.036 105.078 161.162 105.14 145.29 105.14C129.418 105.14 116.539 105.078 116.539 105.006C116.539 104.934 129.408 104.872 145.29 104.872C161.173 104.872 174.036 104.929 174.036 105.006Z" fill="#263238"/>
<path d="M174.036 108.845C174.036 108.923 161.162 108.979 145.29 108.979C129.418 108.979 116.539 108.923 116.539 108.845C116.539 108.768 129.408 108.711 145.29 108.711C161.173 108.711 174.036 108.773 174.036 108.845Z" fill="#263238"/>
<path d="M174.036 112.689C174.036 112.762 161.162 112.824 145.29 112.824C129.418 112.824 116.539 112.762 116.539 112.689C116.539 112.617 129.408 112.555 145.29 112.555C161.173 112.555 174.036 112.617 174.036 112.689Z" fill="#263238"/>
<path d="M108.685 142.767H90.197V124.273H108.685V142.767ZM90.713 142.251H108.169V124.789H90.713V142.251Z" fill="#0075FF"/>
<path d="M93.8708 133.902L96.3269 131.265L100.419 134.537L109.784 125.445L112.029 128.092L100.238 139.723L93.8708 133.902Z" fill="#0075FF"/>
<path d="M174.036 128.742C174.036 128.814 161.162 128.876 145.29 128.876C129.418 128.876 116.539 128.814 116.539 128.742C116.539 128.67 129.408 128.608 145.29 128.608C161.173 128.608 174.036 128.665 174.036 128.742Z" fill="#263238"/>
<path d="M174.036 132.581C174.036 132.659 161.162 132.715 145.29 132.715C129.418 132.715 116.539 132.659 116.539 132.581C116.539 132.504 129.408 132.447 145.29 132.447C161.173 132.447 174.036 132.509 174.036 132.581Z" fill="#263238"/>
<path d="M174.036 136.425C174.036 136.503 161.162 136.559 145.29 136.559C129.418 136.559 116.539 136.503 116.539 136.425C116.539 136.348 129.408 136.291 145.29 136.291C161.173 136.291 174.036 136.353 174.036 136.425Z" fill="#263238"/>
<path d="M174.036 140.269C174.036 140.342 161.162 140.404 145.29 140.404C129.418 140.404 116.539 140.342 116.539 140.269C116.539 140.197 129.408 140.135 145.29 140.135C161.173 140.135 174.036 140.197 174.036 140.269Z" fill="#263238"/>
<path d="M108.685 169.398H90.197V150.904H108.685V169.398ZM90.713 168.882H108.169V151.42H90.713V168.882Z" fill="#0075FF"/>
<path d="M93.8708 160.533L96.3269 157.896L100.419 161.168L109.784 152.076L112.029 154.718L100.238 166.348L93.8708 160.533Z" fill="#0075FF"/>
<path d="M174.036 155.368C174.036 155.445 161.162 155.502 145.29 155.502C129.418 155.502 116.539 155.445 116.539 155.368C116.539 155.29 129.408 155.233 145.29 155.233C161.173 155.233 174.036 155.316 174.036 155.368Z" fill="#263238"/>
<path d="M174.036 159.212C174.036 159.284 161.162 159.346 145.29 159.346C129.418 159.346 116.539 159.284 116.539 159.212C116.539 159.14 129.408 159.078 145.29 159.078C161.173 159.078 174.036 159.14 174.036 159.212Z" fill="#263238"/>
<path d="M174.036 163.056C174.036 163.128 161.162 163.19 145.29 163.19C129.418 163.19 116.539 163.128 116.539 163.056C116.539 162.984 129.408 162.922 145.29 162.922C161.173 162.922 174.036 162.979 174.036 163.056Z" fill="#263238"/>
<path d="M174.036 166.895C174.036 166.973 161.162 167.029 145.29 167.029C129.418 167.029 116.539 166.973 116.539 166.895C116.539 166.818 129.408 166.761 145.29 166.761C161.173 166.761 174.036 166.823 174.036 166.895Z" fill="#263238"/>
<path d="M168.747 170.399L156.714 195.321H165.306L168.747 170.399Z" fill="#E0E0E0"/>
<path d="M165.306 195.461L168.748 170.538L188.479 176.627L165.306 195.461Z" fill="#FAFAFA"/>
<path d="M165.306 195.461L171.942 189.996L188.397 176.524L188.443 176.751L180.822 174.408L168.732 170.657L168.892 170.554C167.86 177.778 166.978 183.995 166.353 188.402C165.729 192.69 165.409 194.904 165.321 195.461C165.319 195.423 165.319 195.385 165.321 195.347L165.368 195.007C165.409 194.682 165.466 194.228 165.543 193.65C165.703 192.437 165.93 190.698 166.219 188.49C166.818 184.047 167.654 177.798 168.629 170.497V170.352L168.768 170.394L180.889 174.129L188.505 176.482L188.742 176.555L188.552 176.709C181.89 182.081 176.064 186.777 171.895 190.125L167.029 194.031L165.729 195.063L165.399 195.327L165.306 195.461Z" fill="#263238"/>
<g opacity="0.3">
<path opacity="0.3" d="M144.614 25.1912L143.19 33.4988H144.965L146.405 25.1912H144.139" fill="black"/>
</g>
<path d="M68.8498 112.808C69.4719 112.855 70.0971 112.776 70.6881 112.576C71.279 112.376 71.8236 112.059 72.2893 111.644C72.755 111.229 73.1323 110.724 73.3987 110.16C73.665 109.595 73.8149 108.983 73.8395 108.36C73.9376 105.832 74.0253 103.277 74.0253 103.277C74.0253 103.277 77.854 102.921 78.1533 99.1494C78.4526 95.3774 78.3029 86.6158 78.3029 86.6158C76.2041 85.5569 73.8605 85.0779 71.5145 85.2285C69.1685 85.3791 66.9054 86.1538 64.9592 87.4723L65.1914 100.806V107.983C65.1965 110.367 66.4504 112.627 68.8498 112.808Z" fill="#FFBE9D"/>
<path d="M74.3554 94.5053C74.0758 94.1034 73.6548 93.8217 73.1766 93.7164C72.6983 93.6112 72.198 93.6903 71.7754 93.9377C71.3466 94.2357 71.0375 94.6763 70.9033 95.181C70.7691 95.6856 70.8185 96.2215 71.0427 96.6932C71.2381 97.0432 71.5041 97.3487 71.8239 97.5903C72.1437 97.8319 72.5103 98.0044 72.9003 98.0967C73.2461 98.1719 73.5527 98.3706 73.7626 98.6555C73.9725 98.9405 74.0714 99.2921 74.0407 99.6447C73.8818 100.641 73.4165 101.562 72.7094 102.281C71.5406 103.471 69.9849 104.203 68.3234 104.345C66.7083 104.536 64.861 104.201 63.9219 102.875C63.2356 101.91 63.1892 100.646 63.1634 99.4641C63.1049 96.6708 63.0464 93.8775 62.988 91.0843C62.9272 90.0775 62.9913 89.067 63.1789 88.076C63.3765 87.0764 63.9441 86.1882 64.7682 85.5888C65.6918 84.98 66.858 84.9284 67.9054 84.593C69.2212 84.1647 70.3358 83.2978 71.5639 82.6683C72.792 82.0388 74.2935 81.6621 75.5268 82.2813C76.4143 82.7251 77.0077 83.6074 77.8642 84.0976C79.0923 84.7942 80.759 84.6136 81.3524 86.4403C81.5613 87.0648 81.5613 87.7404 81.3524 88.3649C80.5216 90.8159 77.4875 91.8066 75.2997 90.7488C75.2584 91.1616 75.6661 92.0853 75.2275 93.3959C75.0882 93.8191 75.0417 94.4537 74.3864 94.4692" fill="#263238"/>
<path d="M63.8961 86.688C64.4975 85.4896 64.9084 84.2048 65.1139 82.8799C65.2112 82.2163 65.1543 81.5392 64.9476 80.9012C64.7409 80.2631 64.3899 79.6813 63.9219 79.2008C63.2312 78.6011 62.3387 78.2857 61.4245 78.3185C60.5561 78.3679 59.7241 78.6845 59.0425 79.2248C58.3609 79.7651 57.8628 80.5029 57.6164 81.3371C57.4039 82.1782 57.4367 83.0625 57.711 83.8855C57.9854 84.7085 58.4897 85.4357 59.1644 85.9811C59.8543 86.511 60.6719 86.8492 61.5345 86.9615C62.3972 87.0739 63.2741 86.9564 64.0767 86.6209" fill="#263238"/>
<path d="M64.6394 85.3206C64.6115 85.7839 64.4121 86.2201 64.0802 86.5445C63.7482 86.8688 63.3075 87.0579 62.8437 87.075C62.8437 86.9976 63.401 86.848 63.8757 86.3526C64.3504 85.8573 64.5671 85.3 64.6394 85.3206Z" fill="#0075FF"/>
<path d="M63.3955 86.2494C63.0998 86.5593 62.7501 86.8129 62.3635 86.9976C61.9504 87.2331 61.4868 87.3658 61.0116 87.3846C60.7099 87.4009 60.4087 87.3447 60.1331 87.2209C59.8575 87.097 59.6156 86.909 59.4275 86.6725C59.261 86.4236 59.15 86.1418 59.1019 85.8462C59.0539 85.5507 59.0699 85.2482 59.1489 84.9594C59.2686 84.5009 59.485 84.0734 59.7836 83.7055C60.0306 83.3567 60.3341 83.0516 60.6814 82.8025C60.4518 83.1591 60.2037 83.5036 59.9384 83.8345C59.6793 84.1938 59.4935 84.6006 59.3914 85.0316C59.327 85.2857 59.3162 85.5505 59.3598 85.809C59.4033 86.0675 59.5002 86.3142 59.6442 86.5332C59.8092 86.7346 60.0184 86.8953 60.2555 87.0027C60.4927 87.1101 60.7514 87.1613 61.0116 87.1524C61.4526 87.1453 61.8863 87.0395 62.281 86.8428C62.9518 86.4971 63.3697 86.2081 63.3955 86.2494Z" fill="#263238"/>
<path d="M56.956 90.5269C57.0337 90.6579 57.0944 90.7984 57.1366 90.9448C57.2703 91.3315 57.4598 91.6965 57.699 92.0284C57.8581 92.2685 58.0809 92.4594 58.3425 92.5797C58.6042 92.7 58.8941 92.745 59.1799 92.7096C59.5219 92.613 59.8332 92.4297 60.0836 92.1775C60.3341 91.9252 60.5151 91.6126 60.6092 91.2699C60.7946 90.5482 60.924 89.8133 60.9962 89.0717C61.0691 88.4358 61.3194 87.8332 61.7186 87.3328C62.0045 87.0037 62.394 86.7817 62.8229 86.7033C62.978 86.6654 63.1413 86.6799 63.2873 86.7446C63.2873 86.7446 63.117 86.7446 62.8435 86.8065C62.456 86.9137 62.1126 87.1414 61.8631 87.4567C61.5115 87.9416 61.2959 88.5117 61.2387 89.1079C61.1792 89.8674 61.0532 90.6202 60.8621 91.3576C60.7556 91.7447 60.548 92.0965 60.2605 92.3767C59.973 92.6569 59.616 92.8555 59.2264 92.9521C58.87 93.009 58.505 92.9396 58.1944 92.756C57.9366 92.5996 57.715 92.3903 57.5442 92.142C57.3076 91.787 57.1331 91.3944 57.0282 90.981C56.9752 90.8356 56.9507 90.6815 56.956 90.5269Z" fill="#263238"/>
<path d="M55.0933 122.359C55.0933 122.359 53.1583 136.508 55.0933 138.303C57.0283 140.099 58.8807 139.501 58.8807 139.501L62.5598 136.405L63.2822 122.338L55.0933 122.359Z" fill="#FFBE9D"/>
<path d="M95.0574 82.6425L97.5135 80.0058L101.605 83.2772L110.971 74.1853L113.215 76.8324L101.425 88.463L95.0574 82.6425Z" fill="#0075FF"/>
<path d="M106.595 83.3599L103.035 85.6457C102.875 84.2371 101.802 82.8439 101.853 83.5508C101.905 84.2577 101.853 87.9265 101.853 87.9265L95.5115 101.286C94.6498 103.401 92.9006 104.733 91.5951 105.047L85.6559 106.812L87.9728 114.65L96.2288 111.915C97.2826 111.566 98.2399 110.975 99.0239 110.189C99.808 109.403 100.397 108.445 100.744 107.39L106.42 90.0937C106.797 88.9796 107.1 87.8419 107.328 86.6881C107.576 85.2381 106.595 83.3599 106.595 83.3599Z" fill="#FFBE9D"/>
<path d="M77.4257 229.476L77.3329 225.518L69.9128 225.637L69.9799 231.431L70.4443 231.457C72.5083 231.534 80.8726 231.72 82.2349 231.287C83.7519 230.796 77.4257 229.476 77.4257 229.476Z" fill="#0075FF"/>
<g opacity="0.5">
<path opacity="0.5" d="M72.6732 231.333C72.5482 230.715 72.2013 230.164 71.698 229.785C71.2024 229.399 70.5795 229.215 69.9539 229.269L69.9849 231.333H72.6732Z" fill="white"/>
</g>
<g opacity="0.4">
<path opacity="0.4" d="M80.496 230.234C80.496 230.234 82.7148 230.832 82.4465 231.204C82.1782 231.575 73.7055 231.72 69.9593 231.431V231.266L79.8459 231.199C79.8459 231.199 80.0884 230.26 80.496 230.234Z" fill="white"/>
</g>
<path d="M69.8714 231.261H70.0004H70.3667L71.7187 231.297C72.859 231.323 74.4328 231.333 76.1717 231.297C77.9106 231.261 79.4896 231.214 80.6248 231.158L81.9767 231.08L82.3431 231.054H82.4669H82.3379H81.9716L80.6248 231.106C79.4845 231.142 77.9106 231.194 76.1717 231.22C74.4328 231.245 72.859 231.22 71.7187 231.22H70.3719H69.8559L69.8714 231.261Z" fill="#263238"/>
<path d="M79.8766 231.312C79.9303 231.088 80.0118 230.871 80.1192 230.667C80.2491 230.479 80.3997 230.306 80.5681 230.151C80.3485 230.255 80.1651 230.421 80.0417 230.63C79.9184 230.839 79.8609 231.081 79.8766 231.323V231.312Z" fill="#263238"/>
<path d="M77.6683 230.234C77.6683 230.234 77.7921 230.121 77.9005 229.95C78.0088 229.78 78.0707 229.625 78.0501 229.615C78.0294 229.605 77.9263 229.728 77.8231 229.899C77.7199 230.069 77.6476 230.224 77.6683 230.234Z" fill="#263238"/>
<path d="M77.0645 229.929C77.0645 229.929 77.1935 229.868 77.3225 229.749C77.4515 229.63 77.534 229.522 77.5185 229.506C77.503 229.491 77.3844 229.568 77.2605 229.682C77.1367 229.795 77.0438 229.909 77.0645 229.929Z" fill="#263238"/>
<path d="M76.6722 229.233C76.796 229.278 76.9288 229.292 77.0592 229.274C77.1901 229.289 77.3227 229.273 77.4463 229.228C77.3213 229.188 77.1897 229.174 77.0592 229.186C76.9284 229.172 76.7959 229.188 76.6722 229.233Z" fill="#263238"/>
<path d="M76.533 228.743C76.6632 228.823 76.8136 228.864 76.9664 228.861C77.1194 228.883 77.2755 228.86 77.4153 228.794C77.2677 228.78 77.1191 228.78 76.9716 228.794C76.8272 228.764 76.6804 228.746 76.533 228.743Z" fill="#263238"/>
<path d="M77.916 229.584C78.0729 229.613 78.2337 229.613 78.3907 229.584C78.566 229.561 78.7388 229.521 78.9067 229.465C79.0069 229.434 79.1038 229.392 79.1956 229.341C79.2247 229.326 79.2502 229.305 79.2707 229.279C79.2911 229.253 79.306 229.223 79.3143 229.192C79.3204 229.156 79.3164 229.119 79.3027 229.085C79.289 229.051 79.2662 229.022 79.2369 229.001C79.0531 228.916 78.8455 228.896 78.6492 228.946C78.4528 228.996 78.2795 229.112 78.1585 229.274C78.089 229.371 78.0383 229.479 78.0088 229.594C77.9998 229.637 77.9998 229.681 78.0088 229.723C78.0582 229.577 78.1295 229.44 78.2204 229.315C78.3268 229.189 78.4661 229.094 78.6229 229.042C78.8105 228.977 79.0161 228.988 79.1956 229.073C79.2679 229.13 79.2421 229.217 79.1595 229.269C79.074 229.317 78.9842 229.357 78.8912 229.388C78.723 229.446 78.5504 229.491 78.3752 229.522C78.0914 229.568 77.916 229.568 77.916 229.584Z" fill="#263238"/>
<path d="M78.0345 229.62C78.0926 229.52 78.111 229.402 78.0861 229.29C78.0667 229.165 78.019 229.047 77.9468 228.944C77.906 228.874 77.8481 228.816 77.7787 228.774C77.7092 228.733 77.6304 228.709 77.5495 228.707C77.5253 228.711 77.5024 228.721 77.482 228.735C77.4617 228.749 77.4442 228.767 77.4308 228.787C77.4173 228.808 77.4081 228.831 77.4037 228.855C77.3993 228.879 77.3997 228.904 77.405 228.928C77.4165 229.004 77.4447 229.076 77.4876 229.14C77.5503 229.246 77.6286 229.341 77.7198 229.424C77.7934 229.509 77.8875 229.575 77.9933 229.615C77.9933 229.615 77.9004 229.532 77.7662 229.383C77.6889 229.294 77.6199 229.199 77.5598 229.099C77.4927 229.001 77.4463 228.82 77.5598 228.794C77.6733 228.768 77.8023 228.897 77.8746 228.99C77.9437 229.082 77.9929 229.188 78.0191 229.3C78.0333 229.406 78.0385 229.513 78.0345 229.62Z" fill="#263238"/>
<path d="M69.9954 229.228C69.9954 229.228 70.207 229.228 70.5424 229.228C70.9799 229.269 71.3967 229.434 71.7446 229.702C72.0925 229.971 72.3573 230.332 72.5083 230.745C72.627 231.06 72.6425 231.261 72.658 231.261C72.6681 231.211 72.6681 231.161 72.658 231.111C72.6411 230.976 72.6118 230.843 72.5703 230.714C72.4272 230.283 72.1578 229.905 71.7971 229.629C71.4364 229.353 71.001 229.191 70.5475 229.166C70.4121 229.151 70.2754 229.151 70.1399 229.166C70.0881 229.177 70.039 229.198 69.9954 229.228Z" fill="#263238"/>
<path d="M70.7177 226.132C70.6715 226.638 70.6577 227.146 70.6764 227.654C70.6599 228.171 70.6754 228.688 70.7228 229.202C70.7698 228.687 70.7835 228.17 70.7641 227.654C70.7765 227.146 70.761 226.638 70.7177 226.132Z" fill="#263238"/>
<path d="M73.5918 230.595C73.9498 230.669 74.3154 230.698 74.6806 230.683C75.0448 230.698 75.4094 230.664 75.7642 230.58C75.7642 230.554 75.2482 230.58 74.6806 230.58C74.113 230.58 73.597 230.57 73.5918 230.595Z" fill="#263238"/>
<path d="M72.1419 230.611C72.1419 230.611 72.1832 230.714 72.2296 230.827C72.2761 230.941 72.3122 231.034 72.338 231.034C72.3638 231.034 72.3741 230.915 72.3122 230.786C72.2503 230.657 72.1574 230.595 72.1419 230.611Z" fill="#263238"/>
<path d="M71.5793 229.94C71.5793 229.94 71.6103 230.033 71.6929 230.11C71.7754 230.188 71.8477 230.234 71.8632 230.218C71.8786 230.203 71.8322 230.12 71.7548 230.048C71.6774 229.976 71.6 229.919 71.5793 229.94Z" fill="#263238"/>
<path d="M70.7899 229.62C70.7899 229.62 70.8983 229.62 71.0066 229.677C71.115 229.734 71.1924 229.77 71.213 229.754C71.2337 229.739 71.1717 229.636 71.0324 229.594C70.8931 229.553 70.7848 229.62 70.7899 229.62Z" fill="#263238"/>
<path d="M70.2325 229.501C70.2325 229.501 70.2635 229.563 70.3254 229.584C70.3873 229.605 70.4441 229.61 70.4544 229.584C70.4647 229.558 70.4183 229.522 70.3564 229.501C70.2945 229.481 70.2377 229.476 70.2325 229.501Z" fill="#263238"/>
<path d="M51.2336 228.211L53.7516 225.151L48.0447 220.399L44.3192 224.837L44.6494 225.156C46.151 226.555 52.3894 232.159 53.7 232.716C55.1706 233.34 51.2336 228.211 51.2336 228.211Z" fill="#0075FF"/>
<g opacity="0.5">
<path opacity="0.5" d="M46.44 226.524C46.7557 225.972 46.8567 225.324 46.7238 224.702C46.5972 224.088 46.2434 223.545 45.7331 223.18L44.376 224.764L46.44 226.524Z" fill="white"/>
</g>
<g opacity="0.4">
<path opacity="0.4" d="M53.086 230.802C53.086 230.802 54.376 232.706 53.9322 232.809C53.4885 232.912 46.9559 227.484 44.3192 224.837L44.4327 224.718L51.9714 231.116C51.9714 231.116 52.7403 230.539 53.086 230.802Z" fill="white"/>
</g>
<path d="M44.3451 224.641L44.4328 224.734L44.7011 224.986L45.7022 225.895C46.5484 226.653 47.7352 227.69 49.0717 228.805C50.4081 229.919 51.6517 230.905 52.5392 231.607L53.6125 232.427L53.9066 232.644L54.0149 232.716L53.9169 232.628L53.6331 232.396L52.6011 231.555C51.7084 230.843 50.4855 229.852 49.1491 228.738C47.8126 227.623 46.6207 226.596 45.7641 225.848L44.7321 224.961L44.4535 224.718L44.3451 224.641Z" fill="#263238"/>
<path d="M51.894 231.204C52.082 231.067 52.2866 230.954 52.5029 230.869C52.726 230.812 52.9541 230.778 53.184 230.766C52.9541 230.681 52.7017 230.681 52.4719 230.766C52.2325 230.837 52.0272 230.993 51.894 231.204Z" fill="#263238"/>
<path d="M50.9241 228.944C50.9241 228.97 51.0944 228.944 51.2853 228.877C51.4763 228.81 51.6311 228.748 51.6207 228.722C51.6104 228.696 51.4504 228.722 51.2595 228.789C51.1379 228.816 51.0235 228.869 50.9241 228.944Z" fill="#263238"/>
<path d="M50.6661 228.315C50.6661 228.315 50.8054 228.356 50.9808 228.351C51.1563 228.346 51.2904 228.32 51.2904 228.294C51.2904 228.268 51.1459 228.253 50.9757 228.258C50.8695 228.253 50.7635 228.272 50.6661 228.315Z" fill="#263238"/>
<path d="M50.8207 227.556C50.8207 227.556 50.9239 227.7 51.0891 227.84C51.1822 227.934 51.2925 228.009 51.4141 228.062C51.4141 228.062 51.3109 227.912 51.1458 227.773C50.9807 227.633 50.8414 227.515 50.8207 227.556Z" fill="#263238"/>
<path d="M51.0375 227.071C51.0937 227.212 51.1793 227.34 51.2887 227.446C51.3982 227.552 51.5289 227.634 51.6721 227.685C51.5722 227.577 51.4653 227.475 51.3522 227.381C51.182 227.215 51.0839 227.04 51.0375 227.071Z" fill="#263238"/>
<path d="M51.5329 228.588C51.6352 228.711 51.7594 228.814 51.8992 228.892C52.0456 228.987 52.2012 229.066 52.3636 229.13C52.4595 229.173 52.5599 229.206 52.6629 229.228C52.7278 229.239 52.7945 229.224 52.8487 229.186C52.8771 229.165 52.8986 229.135 52.9105 229.101C52.9224 229.067 52.9242 229.03 52.9157 228.996C52.8361 228.807 52.6929 228.652 52.511 228.558C52.3291 228.463 52.12 228.436 51.9199 228.48C51.802 228.503 51.6909 228.552 51.5948 228.624C51.5586 228.647 51.5271 228.677 51.5019 228.712C51.6341 228.631 51.7789 228.574 51.9302 228.541C52.0939 228.513 52.2624 228.533 52.4152 228.598C52.5991 228.669 52.7475 228.81 52.828 228.99C52.828 229.083 52.7713 229.135 52.6732 229.119C52.578 229.098 52.4848 229.069 52.3946 229.032C52.2356 228.973 52.0819 228.9 51.9353 228.815C51.6825 228.717 51.5432 228.588 51.5329 228.588Z" fill="#263238"/>
<path d="M51.5999 228.707C51.5999 228.707 51.7341 228.665 51.8579 228.49C51.9244 228.383 51.9667 228.264 51.9818 228.139C51.9936 228.058 51.9862 227.976 51.9602 227.899C51.9342 227.822 51.8903 227.752 51.8321 227.695C51.7876 227.671 51.7355 227.666 51.6872 227.681C51.6388 227.695 51.5982 227.728 51.5741 227.773C51.5349 227.837 51.5102 227.909 51.5019 227.984C51.4868 228.106 51.4868 228.229 51.5019 228.351C51.5019 228.464 51.5303 228.576 51.5845 228.676C51.5845 228.676 51.5845 228.547 51.5845 228.351C51.583 228.233 51.5934 228.115 51.6154 228C51.6154 227.881 51.7083 227.716 51.8167 227.773C51.925 227.829 51.9302 228.01 51.9302 228.129C51.921 228.243 51.8876 228.354 51.8321 228.454C51.7644 228.546 51.6865 228.631 51.5999 228.707Z" fill="#263238"/>
<path d="M45.7642 223.18C45.7642 223.18 45.9396 223.299 46.1718 223.541C46.474 223.861 46.6828 224.257 46.7755 224.687C46.861 225.118 46.8253 225.565 46.6723 225.977C46.5536 226.297 46.4246 226.467 46.4401 226.493C46.4789 226.459 46.512 226.419 46.5382 226.374C46.6151 226.263 46.6791 226.144 46.7291 226.018C46.9075 225.598 46.9542 225.134 46.8632 224.687C46.7701 224.241 46.5454 223.833 46.2182 223.516C46.1207 223.42 46.0135 223.336 45.8983 223.263C45.8593 223.227 45.8138 223.199 45.7642 223.18Z" fill="#263238"/>
<path d="M48.3337 221.297C47.9671 221.652 47.6225 222.03 47.3017 222.427C46.9611 222.805 46.6407 223.201 46.3419 223.614C46.7108 223.262 47.0555 222.887 47.3739 222.489C47.714 222.108 48.0343 221.71 48.3337 221.297Z" fill="#263238"/>
<path d="M47.601 226.56C47.8215 226.85 48.0782 227.11 48.3647 227.334C48.6326 227.583 48.9329 227.795 49.2574 227.964C49.2574 227.964 48.8807 227.654 48.4266 227.267C47.9725 226.88 47.6217 226.524 47.601 226.56Z" fill="#263238"/>
<path d="M46.4863 225.626C46.4863 225.626 46.4501 225.729 46.4192 225.848C46.3882 225.967 46.3418 226.054 46.3624 226.07C46.3831 226.085 46.4656 226.008 46.5069 225.869C46.5482 225.729 46.5121 225.621 46.4863 225.626Z" fill="#263238"/>
<path d="M46.5018 224.749C46.476 224.749 46.4657 224.842 46.476 224.95C46.4863 225.059 46.5121 225.146 46.5379 225.146C46.5637 225.146 46.574 225.053 46.5379 224.945C46.5018 224.837 46.5276 224.749 46.5018 224.749Z" fill="#263238"/>
<path d="M46.0992 224.006C46.0992 224.032 46.1663 224.094 46.2231 224.192C46.2798 224.29 46.3056 224.388 46.3314 224.388C46.3572 224.388 46.3727 224.269 46.3005 224.145C46.2282 224.021 46.1096 223.985 46.0992 224.006Z" fill="#263238"/>
<path d="M45.7642 223.536C45.7642 223.536 45.7642 223.609 45.7642 223.665C45.7642 223.722 45.8416 223.758 45.8622 223.748C45.8828 223.738 45.8622 223.676 45.8622 223.619C45.8622 223.562 45.7848 223.526 45.7642 223.536Z" fill="#263238"/>
<path d="M66.6774 145.3C66.6774 145.3 64.2058 155.755 64.9075 157.824C65.6093 159.893 70.1346 161.085 70.1346 161.085L69.9798 189.718L44.9435 220.678L54.1799 228.232C54.1799 228.232 81.2905 197.226 83.6796 191.596C86.0687 185.966 82.1316 144.821 82.1316 144.821L66.6774 145.3Z" fill="#263238"/>
<path d="M79.4639 141.038L80.6868 227.995L67.9571 228.072L61.5639 157.236C60.2119 155.946 58.3079 153.737 58.5711 148.809L58.8807 143.087L79.4639 141.038Z" fill="#263238"/>
<path d="M66.048 194.558C66.0666 194.512 66.0908 194.469 66.1202 194.429C66.1873 194.336 66.2647 194.217 66.3627 194.073L67.307 192.736L70.7642 187.948V188.015C70.4856 184.996 70.1502 181.338 69.789 177.39C69.3246 172.23 68.953 167.535 68.7312 164.134C68.6176 162.437 68.5454 161.064 68.5041 160.115C68.5041 159.661 68.4732 159.294 68.468 159.016C68.4523 158.889 68.4523 158.761 68.468 158.634C68.493 158.76 68.5085 158.887 68.5145 159.016C68.5145 159.289 68.566 159.655 68.6022 160.11C68.6796 161.085 68.7828 162.447 68.9169 164.124C69.1852 167.514 69.5877 172.194 70.0521 177.365C70.3978 181.327 70.7487 184.981 70.9809 188.015V188.051V188.082L67.4463 192.808L66.4505 194.114L66.1821 194.449C66.0738 194.532 66.048 194.563 66.048 194.558Z" fill="#455A64"/>
<path d="M69.9489 158.634C68.8098 158.573 67.6794 158.4 66.5742 158.118C65.45 157.928 64.3473 157.627 63.2822 157.22C64.4101 157.365 65.5284 157.576 66.631 157.855C67.7509 158.051 68.8587 158.311 69.9489 158.634Z" fill="#455A64"/>
<path d="M78.6694 188.34C77.5706 187.884 76.4142 187.582 75.2328 187.442C74.0426 187.394 72.8515 187.511 71.6931 187.788C71.9956 187.597 72.3319 187.466 72.6838 187.401C73.525 187.181 74.3971 187.105 75.2638 187.174C76.1249 187.243 76.9688 187.454 77.7612 187.798C78.0939 187.923 78.4015 188.106 78.6694 188.34Z" fill="#455A64"/>
<path d="M83.1637 192.354C83.2204 192.401 79.6394 197.21 75.1605 203.092C70.6816 208.975 67.0026 213.717 66.9458 213.675C66.889 213.634 70.4701 208.82 74.949 202.932C79.4278 197.045 83.1069 192.308 83.1637 192.354Z" fill="#455A64"/>
<path d="M81.4401 147.493C81.2933 147.87 81.045 148.199 80.7228 148.443C80.3541 148.766 79.9226 149.009 79.4553 149.157C78.9881 149.305 78.4953 149.355 78.0078 149.304C77.5203 149.253 77.0487 149.101 76.6226 148.859C76.1966 148.616 75.8252 148.289 75.5319 147.896C75.2588 147.594 75.0795 147.219 75.0159 146.817C75.2145 147.148 75.4315 147.466 75.666 147.772C76.2558 148.487 77.1027 148.941 78.0244 149.038C78.9461 149.134 79.8688 148.865 80.5938 148.288C80.8896 148.038 81.1721 147.773 81.4401 147.493Z" fill="#455A64"/>
<path d="M64.0354 102.751C61.9378 100.758 60.701 98.0249 60.5882 95.1337C60.4755 92.2424 61.4957 89.4213 63.4317 87.271" fill="#263238"/>
<path d="M56.8786 110.863C56.8786 110.863 54.1128 113.99 53.54 125.945C53.54 125.945 61.4194 127.442 61.5638 127.013C61.7083 126.585 56.8786 110.863 56.8786 110.863Z" fill="#0075FF"/>
<g opacity="0.3">
<path opacity="0.3" d="M56.8786 110.863C56.8786 110.863 54.1128 113.99 53.54 125.945C53.54 125.945 61.4194 127.442 61.5638 127.013C61.7083 126.585 56.8786 110.863 56.8786 110.863Z" fill="black"/>
</g>
<path d="M58.1583 145.687H82.3536L81.9614 141.905C81.9614 141.905 79.1956 127.529 79.2163 127.338L79.6497 126.425C80.215 125.239 80.5174 123.945 80.5361 122.631C80.5548 121.318 80.2894 120.016 79.7581 118.814L91.6261 114.764L88.7261 104.99C83.3494 105.893 75.2224 106.91 75.2224 106.91L74.015 107.008C74.015 107.008 65.6248 107.447 65.4442 107.467C61.9354 107.896 57.8539 108.164 56.3626 111.92C55.5628 113.928 56.3214 116.941 57.6268 120.047L60.7228 129.593C61.9612 134.841 59.985 134.588 58.8962 139.872C58.7208 140.667 58.1428 144.955 58.1583 145.687Z" fill="#0075FF"/>
<g opacity="0.3">
<path opacity="0.3" d="M58.1583 145.687H82.3536L81.9614 141.905C81.9614 141.905 79.1956 127.529 79.2163 127.338L79.6497 126.425C80.215 125.239 80.5174 123.945 80.5361 122.631C80.5548 121.318 80.2894 120.016 79.7581 118.814L91.6261 114.764L88.7261 104.99C83.3494 105.893 75.2224 106.91 75.2224 106.91L74.015 107.008C74.015 107.008 65.6248 107.447 65.4442 107.467C61.9354 107.896 57.8539 108.164 56.3626 111.92C55.5628 113.928 56.3214 116.941 57.6268 120.047L60.7228 129.593C61.9612 134.841 59.985 134.588 58.8962 139.872C58.7208 140.667 58.1428 144.955 58.1583 145.687Z" fill="black"/>
</g>
<path d="M91.4919 114.924C91.3283 115.016 91.1553 115.09 90.9759 115.145C90.6354 115.269 90.1348 115.44 89.5156 115.661C88.2772 116.079 86.5538 116.632 84.6549 117.24C82.756 117.849 81.0429 118.453 79.8561 118.948C79.2472 119.196 78.7674 119.413 78.432 119.557C78.2693 119.647 78.0959 119.717 77.916 119.764C78.0658 119.644 78.2285 119.542 78.401 119.459C78.7261 119.289 79.1956 119.041 79.7942 118.773C81.3585 118.091 82.9587 117.495 84.5878 116.988C86.4919 116.379 88.1998 115.852 89.4744 115.481C90.0987 115.295 90.6096 115.151 90.9604 115.053C91.1315 114.988 91.3101 114.944 91.4919 114.924Z" fill="#263238"/>
<path d="M90.0882 109.717C90.0882 109.789 82.9313 109.851 74.0922 109.851C65.2531 109.851 58.0962 109.789 58.0962 109.717C58.0962 109.645 65.248 109.583 74.0922 109.583C82.9364 109.583 90.0882 109.645 90.0882 109.717Z" fill="#FAFAFA"/>
<path d="M90.8157 114.469C90.8157 114.542 82.8539 114.604 73.0344 114.604C63.2149 114.604 55.2582 114.542 55.2582 114.469C55.2582 114.397 63.2149 114.335 73.0344 114.335C82.8539 114.335 90.8157 114.397 90.8157 114.469Z" fill="#FAFAFA"/>
<path d="M57.2761 119.877C56.7924 120.008 56.2894 120.054 55.79 120.011C55.2923 120.054 54.7911 120.008 54.3091 119.877C54.7911 119.746 55.2923 119.701 55.79 119.743C56.2894 119.7 56.7924 119.746 57.2761 119.877Z" fill="#FAFAFA"/>
<path d="M80.496 120.042C80.496 120.114 75.2896 120.176 68.8705 120.176C62.4515 120.176 57.2451 120.114 57.2451 120.042C57.2451 119.97 62.4463 119.908 68.8705 119.908C75.2947 119.908 80.496 119.965 80.496 120.042Z" fill="#FAFAFA"/>
<path d="M79.9798 125.61C79.9798 125.687 75.3048 125.744 69.5463 125.744C63.7877 125.744 59.1076 125.687 59.1076 125.61C59.1076 125.532 63.7774 125.476 69.5463 125.476C75.3152 125.476 79.9798 125.538 79.9798 125.61Z" fill="#FAFAFA"/>
<path d="M79.8355 130.775C79.8355 130.847 75.6043 130.909 70.3824 130.909C65.1605 130.909 60.9189 130.847 60.9189 130.775C60.9189 130.703 65.1553 130.641 70.3824 130.641C75.6095 130.641 79.8355 130.698 79.8355 130.775Z" fill="#FAFAFA"/>
<path d="M80.6662 134.949C80.6662 135.027 76.1357 135.084 70.5474 135.084C64.9591 135.084 60.4286 135.027 60.4286 134.949C60.4286 134.872 64.9591 134.815 70.5474 134.815C76.1357 134.815 80.6662 134.877 80.6662 134.949Z" fill="#FAFAFA"/>
<path d="M81.9769 140.275C81.9769 140.352 76.8169 140.409 70.465 140.409C64.113 140.409 58.953 140.352 58.953 140.275C58.953 140.197 64.113 140.14 70.465 140.14C76.8169 140.14 81.9769 140.202 81.9769 140.275Z" fill="#FAFAFA"/>
<path d="M60.563 129.144C60.4656 128.999 60.3924 128.839 60.3463 128.67L59.8303 127.349C59.402 126.234 58.7983 124.697 58.1791 122.978C57.5599 121.26 57.0387 119.691 56.7136 118.541C56.5537 117.963 56.4298 117.509 56.3627 117.168C56.3131 117 56.2837 116.827 56.275 116.652C56.5138 117.251 56.7205 117.863 56.8942 118.484C57.2657 119.619 57.8076 121.177 58.4422 122.891C59.0769 124.604 59.6342 126.152 59.9902 127.287C60.1812 127.854 60.3256 128.319 60.4185 128.639C60.488 128.8 60.5366 128.97 60.563 129.144Z" fill="#263238"/>
</svg>
